<svg width="150" height="84" viewBox="0 0 150 84" fill="none" xmlns="http://www.w3.org/2000/svg">
<path d="M142.2 51.7073C141.786 52.554 135.246 50.2268 135.246 50.2268C135.246 50.2268 136.732 47.2121 139.187 47.5009C141.641 47.7897 142.2 51.7073 142.2 51.7073Z" fill="#B7A088"/>
<path d="M127.962 29.9426C127.962 29.9426 123.738 36.0332 121.61 38.9549L123.031 39.7602C123.031 39.7602 124.278 38.0097 126.289 36.4663C128.299 34.9229 130.456 31.5313 130.456 31.5313L127.962 29.9426Z" fill="#FFD3C7"/>
<path d="M135.165 15.1945C132.733 15.2358 131.62 16.1428 130.775 18.2034C129.93 20.2641 127.998 29.4871 127.998 29.4871L125.255 33.4625C125.255 33.4625 127.441 35.4362 128.311 35.2635C128.311 35.2635 130.593 32.9197 131.034 31.3652C131.773 28.7632 133.919 21.6152 133.919 21.6152L135.165 15.1945Z" fill="#F50000"/>
<path d="M131.429 27.9062C131.429 27.9062 135.639 39.6447 138.809 40.992C141.978 42.3397 148.331 41.9334 148.331 41.9334C148.331 41.9334 144.036 32.1368 143.464 28.3347C142.893 24.5326 144.725 23.2378 142.124 21.3106C139.524 19.3831 131.872 19.4795 131.872 19.4795C131.872 19.4795 129.448 22.3279 131.429 27.9062Z" fill="#626BA0"/>
<path d="M144.656 8.16505C144.745 9.71455 144.39 13.3287 146.157 15.0607C147.925 16.7927 150.222 18.7369 149.692 20.3982C149.692 20.3982 149.586 19.3023 148.702 18.5247C148.702 18.5247 149.656 20.0092 149.197 21.2818C148.738 22.5544 147.573 22.8371 144.656 21.6352C141.739 20.4334 136.407 18.039 136.139 14.1462C135.871 10.2531 134.634 7.25458 136.601 5.42989C139.11 3.10448 144.507 5.57658 144.656 8.16505Z" fill="#0B0C0D"/>
<path d="M138.702 43.8868L129.8 38.9406C128.683 49.0802 134.707 55.1882 135.209 57.5655C135.463 58.7688 139.87 74.9505 139.692 75.753C139.475 76.7275 137.993 78.6088 137.443 79.0527C137.44 79.055 137.438 79.0555 137.429 79.0584C137.361 79.0755 137.011 79.1806 136.699 79.4451C136.604 79.5236 136.518 79.6244 136.437 79.735H139.436C139.591 79.5822 139.789 79.3455 140.019 78.9758C140.491 78.2196 141.401 78.3902 141.401 78.3902C141.682 78.6357 141.727 79.7558 141.735 80.0194H142.087C142.21 79.7047 142.639 78.2597 142.509 77.7194C142.401 77.2846 142.061 76.2826 141.936 75.7969C141.268 73.211 140.718 72.5393 140.3 65.4502C140.072 61.5759 140.3 58.6507 138.697 56.6993C138.697 56.6993 137.96 52.4316 138.702 43.8868Z" fill="#FFD3C7"/>
<path d="M130.035 79.7351C130.191 79.5823 130.388 79.3456 130.618 78.9759C131.09 78.2197 132 78.3903 132 78.3903C132.281 78.6361 132.326 79.7559 132.333 80.0195H132.686C132.809 79.7048 133.238 78.2598 133.108 77.7195C133 77.2847 132.675 76.2783 132.534 75.797C132.495 75.6627 132.463 75.5466 132.456 75.4071C132.849 73.7623 134.199 68.1485 136.545 63.6236C138.408 60.0297 139.008 58.6011 139.378 55.3794C139.747 52.1574 143.071 50.7295 143.071 44.2993C143.071 39.7654 138.559 32.9001 136.86 39.8668C135.161 46.8338 134.934 55.3791 134.65 57.0848C134.365 58.7906 131.81 70.7433 130.29 75.7531C130 76.7083 128.591 78.6089 128.042 79.0528C128.039 79.0551 128.036 79.0556 128.028 79.0585C127.96 79.0756 127.61 79.181 127.297 79.4452C127.203 79.524 127.116 79.6245 127.036 79.7351H130.035Z" fill="#FFD3C7"/>
<path d="M133.128 80.0183C133.128 80.0183 133.333 77.2517 132.793 76.5292C132.252 75.8067 130.764 77.2003 130.764 77.2003L129.438 76.5965C129.438 76.5965 129.505 77.4622 128.432 78.1699C127.358 78.8777 126.486 78.6764 126.419 80.0183H133.128Z" fill="#6B0567"/>
<path d="M142.678 80.0184C142.678 80.0184 142.883 77.2518 142.343 76.5293C141.802 75.8068 140.314 77.2004 140.314 77.2004L138.988 76.5966C138.988 76.5966 139.055 77.4623 137.982 78.17C136.908 78.8778 136.036 78.6765 135.969 80.0184H142.678Z" fill="#6B0567"/>
<path d="M137.899 48.0929C137.833 48.1278 137.771 48.159 137.709 48.1899C135.971 49.0822 134.411 49.3963 133.216 49.474C131.742 49.5673 130.823 49.2996 130.823 49.2996C127.184 40.5284 131.583 30.7951 131.583 30.7951C131.583 30.7951 141.867 45.9748 137.899 48.0929Z" fill="#FFF68E"/>
<path d="M137.707 48.19C135.969 49.0823 134.41 49.3965 133.215 49.4742C133.165 47.9766 133.654 45.8508 133.654 45.8508H132.49C132.49 45.8508 134.755 44.2293 134.096 44.2293C133.452 44.2293 131.458 42.0685 131.334 41.9328L134.755 44.2293L137.707 48.19Z" fill="#FFE500"/>
<path d="M131.582 30.7959C131.582 30.7959 130.349 33.8839 131.582 38.0863C132.815 42.2889 134.755 44.2285 134.755 44.2285C134.755 44.2285 134.704 48.7231 135.246 50.2259C135.246 50.2259 140.466 49.9385 142.201 51.7063C142.201 51.7063 147.382 40.6193 139.71 31.1739L131.582 30.7959Z" fill="#FFF68E"/>
<path d="M131.301 25.4398L131.582 30.7963C135.347 32.4422 139.71 31.1746 139.71 31.1746C139.973 28.8674 141.275 26.462 141.89 25.5957C143.542 23.2683 147.472 19.1736 145.54 16.7393C145.223 16.338 144.824 16.0405 144.368 15.8182C142.979 15.1511 141.07 15.1916 139.364 15.1569C136.782 15.1049 135.165 15.1945 135.165 15.1945C135.015 15.3013 134.871 15.4053 134.729 15.5121C128.593 20.1496 131.301 25.4398 131.301 25.4398Z" fill="#FF859F"/>
<path d="M142.093 5.19247C142.093 5.19247 137.313 3.69379 136.422 7.05614C135.53 10.4185 136.466 13.9287 138.691 13.6498C141.821 13.2573 145.819 7.00215 142.093 5.19247Z" fill="#FFD3C7"/>
<path d="M139.792 9.93478C139.817 10.1346 139.635 10.322 139.385 10.3532C139.135 10.3844 138.912 10.2478 138.887 10.048C138.862 9.84815 139.044 9.66074 139.294 9.62956C139.544 9.59808 139.767 9.73466 139.792 9.93478Z" fill="#FFD3C7"/>
<path d="M139.384 7.89355C139.354 7.8924 139.324 7.8768 139.306 7.84966C139.102 7.54444 138.72 7.58804 138.716 7.58891C138.662 7.59584 138.613 7.55714 138.606 7.50314C138.599 7.44914 138.638 7.39977 138.692 7.39283C138.712 7.39024 139.199 7.33451 139.47 7.74022C139.5 7.78555 139.488 7.84677 139.442 7.87709C139.425 7.88893 139.404 7.89413 139.384 7.89355Z" fill="#0E3944"/>
<path d="M137.185 7.42612C137.165 7.42526 137.145 7.41832 137.128 7.40475C136.843 7.17778 136.501 7.32967 136.487 7.33602C136.437 7.35884 136.378 7.33689 136.356 7.28751C136.333 7.23813 136.354 7.17981 136.404 7.15699C136.423 7.14804 136.87 6.94649 137.251 7.25055C137.293 7.28463 137.301 7.34671 137.267 7.38916C137.246 7.41457 137.216 7.42728 137.185 7.42612Z" fill="#0E3944"/>
<path d="M140.297 6.97879C140.297 6.97879 141.054 8.3481 141.033 10.1474C141.033 10.1474 142.106 9.11852 142.539 9.95911C142.972 10.7997 141.327 12.0714 141.327 12.0714C141.327 12.0714 144.018 12.171 144.267 8.68855C144.371 7.22163 142.506 5.95253 140.297 6.97879Z" fill="#0E3944"/>
<path d="M141.254 11.3234C140.908 12.3119 139.544 14.039 138.055 13.5819C138.055 13.5819 138.429 15.5711 137.66 15.5749C137.66 15.5749 137.221 16.7276 138.704 16.8605C140.559 17.0265 141.562 15.8839 141.562 15.8839C140.721 14.1036 141.785 11.4947 141.785 11.4947C141.39 11.7661 141.254 11.3234 141.254 11.3234Z" fill="#FFD3C7"/>
<path d="M136.997 10.4378L137.081 10.2377C137.044 10.2221 136.728 10.0762 136.848 9.76755C136.884 9.67399 136.936 9.61393 137.001 9.5891C137.117 9.54492 137.251 9.61393 137.252 9.6148L137.354 9.42306C137.345 9.41844 137.134 9.30871 136.927 9.38581C136.8 9.43259 136.705 9.53481 136.645 9.6893C136.487 10.0985 136.806 10.3578 136.997 10.4378Z" fill="#FFD3C7"/>
<path d="M140.309 7.0835C140.309 7.0835 140.241 6.53312 139.842 6.16639C139.443 5.79966 137.451 5.60475 137.093 5.82681C136.544 6.16639 136.14 7.08379 136.14 7.08379C136.14 7.08379 135.92 6.39682 136.603 5.10865C137.286 3.82048 140.521 2.8384 142.553 4.03243C144.585 5.22647 145.594 7.78086 144.727 10.9405C143.683 14.7487 142.808 7.83081 142.808 7.83081L140.309 7.0835Z" fill="#0B0C0D"/>
<path d="M140.573 6.88008C140.573 6.88008 140.006 8.50639 141.328 10.111C142.651 11.7157 144.639 14.3538 144.568 15.344C144.568 15.344 145.176 13.2941 144.271 10.6782C143.367 8.06228 140.573 6.88008 140.573 6.88008Z" fill="#0B0C0D"/>
<path d="M140.347 6.7191C140.347 6.7191 140.339 6.75809 140.323 6.83143C140.309 6.90391 140.29 7.00988 140.272 7.14474C140.236 7.41444 140.202 7.8011 140.213 8.26485C140.218 8.49644 140.233 8.74737 140.267 9.01044C140.298 9.27379 140.346 9.54984 140.415 9.83052C140.48 10.1118 140.566 10.3985 140.674 10.6815C140.722 10.8253 140.785 10.9645 140.848 11.1043C140.907 11.246 140.977 11.3855 141.047 11.5183C141.115 11.6543 141.187 11.7886 141.265 11.9209C141.34 12.0543 141.416 12.186 141.498 12.3121C141.656 12.5686 141.823 12.8131 141.99 13.045C142.324 13.5094 142.665 13.9211 142.969 14.2622C143.578 14.9448 144.039 15.3439 144.039 15.3439C144.039 15.3439 143.589 14.9315 143.002 14.2333C142.709 13.8845 142.382 13.4646 142.064 12.9939C141.904 12.7586 141.745 12.5114 141.597 12.2529C141.52 12.1253 141.448 11.9936 141.378 11.8608C141.306 11.73 141.238 11.5946 141.174 11.456C141.106 11.3176 141.043 11.1834 140.99 11.0436C140.933 10.905 140.875 10.7676 140.832 10.6258C140.735 10.3465 140.659 10.0647 140.603 9.78894C140.545 9.51375 140.505 9.24433 140.483 8.98762C140.457 8.73149 140.449 8.48748 140.451 8.26312C140.454 7.81409 140.497 7.44158 140.539 7.18516C140.56 7.05666 140.581 6.95733 140.596 6.89034C140.612 6.82479 140.621 6.78985 140.621 6.78985L140.347 6.7191Z" fill="#0B0C0D"/>
<path d="M137.301 3.95296C137.301 3.95296 137.981 3.77595 138.684 4.07279C139.07 3.97086 139.392 4.06789 139.553 4.13921C139.669 4.11207 140.306 3.98848 140.957 4.28302L140.868 4.55647C140.855 4.55474 140.84 4.55272 140.829 4.55128C140.577 4.89635 140.074 5.46348 139.549 5.36703C139.201 5.30293 139.115 4.98153 139.358 4.45974C139.329 4.38957 139.244 4.23392 139.056 4.20851C138.895 4.18657 138.714 4.2706 138.607 4.33124C138.349 4.65956 137.824 5.22813 137.323 5.175C136.89 5.12909 136.858 4.66274 137.301 3.95296Z" fill="#F50000"/>
<path d="M140.957 4.28252L141.941 8.01448L141.822 7.96366L140.684 4.55395L140.957 4.28252Z" fill="#F50000"/>
<path d="M136.403 18.9976C140.004 19.3614 143.108 16.9503 144.22 15.9511C144.223 15.9511 144.223 15.9511 144.223 15.9511C144.275 15.9021 144.324 15.8587 144.367 15.8183C142.978 15.1513 141.069 15.1917 139.363 15.157C136.781 15.1051 135.164 15.1946 135.164 15.1946C135.014 15.3014 134.87 15.4054 134.728 15.5122C134.575 15.7432 134.437 15.9945 134.33 16.2515C133.836 17.4325 133.995 18.7521 136.403 18.9976Z" fill="#FFD3C7"/>
<path d="M134.331 16.2513C135.171 16.852 136.575 17.0887 136.575 17.0887L136.713 17.7933L137.695 17.0887C140.305 17.2129 142.979 16.3957 144.221 15.951C144.224 15.951 144.224 15.951 144.224 15.951C144.276 15.9019 144.325 15.8586 144.368 15.8182C142.979 15.1511 141.071 15.1916 139.364 15.1569C136.783 15.1049 135.165 15.1945 135.165 15.1945C135.015 15.3013 134.871 15.4053 134.729 15.5121C134.576 15.7431 134.438 15.9943 134.331 16.2513Z" fill="#FFD3C7"/>
<path d="M143.917 15.1945C142.896 15.3698 139.945 18.8107 140.095 22.9946C140.246 27.1785 147.021 44.5525 147.021 44.5525C147.021 44.5525 149.139 43.9749 149.77 42.4829C150.401 40.9909 149.005 40.1728 147.369 38.6328C145.732 37.0929 143.251 31.4138 143.072 30.0661C142.893 28.7184 143.727 24.6758 143.911 24.2426C144.096 23.8095 146.044 21.1904 146.418 19.0348C146.791 16.8792 143.917 15.1945 143.917 15.1945Z" fill="#AFB0E8"/>
<path d="M145.994 49.5137C145.962 49.7866 146.678 50.0906 146.678 50.0906C146.678 50.0906 146.929 50.5714 147.298 50.5714C147.668 50.5714 148.423 49.3211 147.832 48.6754C147.241 48.03 146.093 48.6618 145.994 49.5137Z" fill="#FFD3C7"/>
<path d="M147.997 46.7655C147.997 46.7655 149.363 48.5917 149.223 49.0057C149.082 49.4198 147.997 49.898 147.997 49.898C147.997 49.898 147.789 50.6439 147.298 50.5711C147.298 50.5711 147.515 50.1296 147.357 49.6702C147.2 49.2108 146.458 49.0762 146.458 49.0762L145.994 49.5131C145.994 49.5131 145.963 47.5345 146.266 46.9575C146.568 46.3809 147.997 46.7655 147.997 46.7655Z" fill="#FFD3C7"/>
<path d="M145.632 17.0356C144.596 15.9276 143.545 18.1089 142.886 20.6217C142.226 23.1345 143.222 32.45 143.222 32.45L146.266 46.9586C146.266 46.9586 147.253 47.4258 147.997 46.7663C147.997 46.7663 147.154 34.4581 146.628 32.0527C146.628 32.0527 147.586 19.1242 145.632 17.0356Z" fill="#FFD3C7"/>
<path d="M145.541 16.74C144.216 15.9655 143.101 18.2993 142.66 20.0318C142.22 21.7644 142.257 28.5714 142.535 30.7963C142.812 33.0213 145.069 41.2516 145.069 41.2516C145.069 41.2516 147.794 41.0538 148.761 39.8915C148.761 39.8915 147.737 37.4396 147.613 36.8933C147.49 36.3469 147.204 31.5824 147.022 31.2936C146.84 31.0048 146.777 29.3398 146.777 29.3398C146.993 28.684 147.713 18.0096 145.541 16.74Z" fill="#F50000"/>
<path d="M135.798 15.1414L135.209 14.7141C135.209 14.7141 131.61 16.8316 130.706 20.8742C129.803 24.9169 131.431 27.9053 131.431 27.9053C131.431 27.9053 130.217 24.5684 131.035 21.9811C131.853 19.3938 133.175 17.5552 135.798 15.1414Z" fill="#AFB0E8"/>
<path d="M121.956 38.4787C121.956 38.4787 120.899 38.969 120.466 39.1616C120.033 39.3542 120.033 40.8376 119.888 41.2508C119.744 41.664 120.321 41.2508 120.321 41.2508C120.321 41.2508 120.273 42.001 120.418 42.2898C120.562 42.5786 120.911 42.2898 120.911 42.2898C120.911 42.2898 121.072 42.338 121.611 42.1936C122.15 42.0493 122.294 41.6161 122.68 41.6161C123.064 41.6161 123.69 38.9399 123.69 38.9399L121.956 38.4787Z" fill="#FFD3C7"/>
<path d="M121.61 40.4483C121.61 40.4483 123.655 39.9805 124.328 38.2355C124.328 38.2355 123.316 39.5009 121.776 40.1434C121.776 40.1434 121.508 38.8425 121.955 38.4787C121.955 38.4787 121.244 38.8717 121.61 40.4483Z" fill="#626BA0"/>
<path d="M103.554 70.1791C103.554 70.1791 117.494 60.4409 120.321 41.2506C120.321 41.2506 120.68 40.682 121.777 40.2922" stroke="#626BA0" stroke-miterlimit="10"/>
<path d="M120.354 42.0832C120.354 42.0832 120.267 41.1101 120.354 40.7974C120.441 40.4846 120.754 40.1381 120.874 40.143C120.995 40.1476 120.874 40.9417 120.874 40.9417C120.874 40.9417 121.024 40.1962 121.284 40.143C121.543 40.0896 121.506 40.3991 121.506 40.3991C121.506 40.3991 121.479 40.0723 121.611 40.0035C121.742 39.9348 122.102 40.5571 122.102 40.5571L120.354 42.0832Z" fill="#FFD3C7"/>
<path d="M102.117 67.4117C101.971 67.2471 100.691 67.0695 100.601 67.1027C100.511 67.1359 100.529 66.807 100.168 67.0978C99.8072 67.3886 99.5724 67.623 99.5002 67.7313C99.428 67.8396 99.1933 68.2006 99.0128 68.3088C98.8323 68.4171 98.992 68.4423 98.8684 68.8324C98.7448 69.2225 98.7601 69.6808 98.8684 69.789C98.9767 69.8973 98.9949 69.9516 99.2475 69.789C99.5002 69.6265 100.258 68.7423 100.547 68.6519C100.836 68.5615 101.341 68.8145 101.612 68.3449C101.883 67.8754 102.286 67.6014 102.117 67.4117Z" fill="#CEBEA7"/>
<path d="M102.203 73.4137C102.206 73.4637 102.205 73.5139 102.2 73.5647C102.187 73.7215 102.14 73.8821 102.185 74.0328C102.217 74.1408 102.293 74.2292 102.363 74.3175C102.821 74.8968 103.033 75.5996 103.474 76.1956C103.85 76.7024 105.329 77.6048 105.726 77.9297C106.123 78.2545 107.459 79.59 107.928 79.554C108.397 79.5179 108.325 79.0125 108.325 79.0125C107.729 79.0668 107.27 78.9614 107.378 78.2349C107.386 78.1777 107.398 78.1133 107.363 78.0674C107.339 78.0356 107.298 78.0221 107.262 78.0062C107.104 77.9378 106.981 77.7951 106.936 77.6296C106.89 77.4607 106.912 77.2528 106.776 77.1416C106.656 77.0423 106.428 77.0357 106.413 76.8803C106.544 76.8699 106.592 76.6842 106.53 76.5676C106.469 76.4509 106.346 76.3825 106.244 76.2984C105.568 75.7423 105.804 74.4452 105.51 73.6938C105.297 73.1515 104.329 72.7215 103.867 72.4397C103.541 72.2405 103.318 72.0886 103.08 71.8024C102.828 71.4998 102.624 71.1273 102.172 71.1166C102.062 71.114 101.954 71.1377 101.848 71.1625C101.543 71.2338 101.206 71.3427 101.066 71.6219C101.036 71.6814 101.016 71.7484 101.026 71.8142C101.047 71.9595 101.191 72.0476 101.316 72.125C101.777 72.41 102.177 72.883 102.203 73.4137Z" fill="#E8DAC3"/>
<path d="M113.55 73.912C113.52 74.08 113.481 74.2461 113.429 74.4089C113.303 74.7996 113.096 75.1444 112.803 75.4323C112.644 75.5891 111.931 75.9518 112.083 76.2322C112.105 76.2729 112.142 76.3041 112.161 76.3462C112.25 76.5437 111.891 76.7508 111.997 76.9396C111.667 77.052 111.306 77.1885 111.14 77.4955C111.091 77.5862 111.059 77.6916 110.978 77.7554C110.9 77.8172 110.793 77.825 110.698 77.8533C109.892 78.0924 109.666 79.3444 109.01 79.7813C108.866 79.8775 108.144 79.7813 108.144 79.7813C108.144 79.7813 107.807 79.1556 108.144 79.1556C108.513 79.1556 108.836 78.9139 109.033 78.6485C109.097 78.5622 109.559 77.4912 109.527 77.4712C109.617 77.5287 109.712 77.378 109.673 77.2786C109.634 77.1793 109.537 77.1112 109.5 77.0112C109.455 76.8877 109.512 76.7514 109.51 76.6197C109.5 75.7794 107.965 75.4641 108.115 74.5556C108.217 73.9414 109.052 73.8028 109.534 73.9001C110.306 74.0558 110.665 73.9117 111.204 73.236C111.478 72.8929 111.752 72.5499 112.025 72.2068C112.119 72.0893 112.215 71.9677 112.256 71.823C112.323 71.5839 112.231 71.3154 112.326 71.0855C112.399 70.9085 112.567 70.7927 112.727 70.687C113.164 70.3977 113.635 70.0977 114.16 70.0983C114.307 70.0986 114.455 70.1225 114.598 70.0905C114.739 70.059 114.863 69.975 114.974 69.8817C115.433 69.4956 115.722 68.9149 115.754 68.3163C115.764 68.1202 115.751 67.9115 115.85 67.7417C115.916 67.627 116.026 67.5453 116.114 67.446C116.406 67.113 116.402 66.5595 116.104 66.2317C116.381 66.2938 116.579 66.5537 116.652 66.8277C116.725 67.1021 116.696 67.3917 116.667 67.6741C117.267 67.1344 117.362 66.1229 116.874 65.4807C117.526 65.8884 117.761 66.8404 117.375 67.5049C117.614 67.3478 117.854 67.1904 118.093 67.0333C118.459 67.3492 118.456 67.9441 118.219 68.3648C117.983 68.7858 117.571 69.0737 117.173 69.3472C117.463 69.3853 117.753 69.4231 118.043 69.4613C117.523 69.9995 116.853 70.3916 116.128 70.5814C116.069 70.597 116.007 70.6125 115.961 70.653C115.8 70.7948 115.965 71.078 115.867 71.2686C115.763 71.471 115.47 71.4289 115.248 71.4774C114.555 71.6293 114.362 72.8199 113.655 72.7563C113.637 73.1427 113.617 73.5325 113.55 73.912Z" fill="#E8DAC3"/>
<path d="M98.0448 70.0858C98.065 70.1956 98.1401 70.2937 98.1574 70.4064C98.1661 70.4468 98.1632 70.4901 98.1574 70.5334C98.1546 70.5738 98.1488 70.6143 98.1459 70.6547C98.0766 71.4979 98.9487 71.4806 99.4164 71.9195C99.3991 71.8617 99.4598 71.804 99.5204 71.7982C99.581 71.7953 99.6359 71.8271 99.6879 71.8617C99.838 71.957 99.9766 72.0696 100.104 72.1967C100.124 72.1534 100.109 72.0985 100.075 72.0725C100.274 72.0696 100.476 72.1072 100.664 72.1823C100.638 72.1649 100.678 72.1158 100.701 72.1389C101.005 72.0148 101.366 72.0408 101.646 72.2082C101.906 72.3642 102.451 72.6558 102.446 72.9504C102.44 73.2276 102.703 73.4182 102.873 73.6347C103.09 73.9119 103.15 74.2527 103.295 74.5617C103.422 74.8302 103.707 75.1161 103.736 75.4164C103.754 75.633 103.604 75.8033 103.557 76.0055C103.482 76.3231 103.569 76.6754 103.468 76.9786C103.243 77.6658 102.518 78.2318 102.379 78.9768C102.353 79.1212 101.432 79.1559 101.106 79.41C100.782 79.6612 101.106 79.8229 101.106 79.8229H102.053C102.342 79.5977 102.625 79.3638 102.916 79.1414C103.13 78.9768 103.266 78.9422 103.471 78.818C103.601 78.74 103.736 78.7401 103.806 78.5726C103.829 78.5177 103.837 78.4542 103.875 78.4051C103.976 78.2751 104.227 78.3242 104.299 78.1741C104.317 78.1365 104.317 78.0961 104.328 78.0557C104.424 77.7092 105.07 77.842 105.197 77.507C105.307 77.2183 105.18 77.1085 105.385 76.8631C105.437 76.7996 105.723 76.6436 105.813 76.5628C106.156 76.2596 106.243 76.0661 106.815 76.2567C107.19 76.3837 107.583 76.5859 107.958 76.4617C108.094 76.4184 108.215 76.3347 108.354 76.2942C108.596 76.222 108.859 76.3029 109.11 76.2625C109.341 76.2278 109.549 76.0921 109.777 76.0343C109.956 75.9881 110.147 75.991 110.335 75.9939C111.028 76.0112 111.761 75.9824 112.443 76.0401C113.11 76.0979 112.783 76.7505 113.225 76.8256C113.471 76.866 113.716 76.9064 113.961 76.9497C113.886 77.0999 114.025 77.2818 114.184 77.3395C114.34 77.3973 114.516 77.38 114.68 77.4146C114.963 77.4782 115.203 77.7034 115.284 77.9806C115.758 78.0355 116.13 78.3964 116.465 78.7343C116.757 79.0317 116.985 79.1732 116.754 79.5803C116.731 79.6208 116.326 80.0193 116.326 80.0193C116.329 80.0193 117.288 80.0193 117.288 80.0193C117.288 80.0193 117.672 79.3002 117.626 79.1559C117.594 79.0664 117.32 78.6938 117.106 78.3098C117.1 78.1596 117.106 77.9922 117.144 77.8564C117.242 77.5157 116.757 77.2645 116.855 76.8949C116.953 76.5252 116.615 76.3231 116.615 76.3231C116.615 76.3231 116.298 75.9968 115.977 75.7109C115.844 75.4597 115.72 75.1854 115.7 75.0179C115.685 74.8995 115.538 74.5126 115.319 74.0217C115.353 73.6405 115.365 73.1121 115.267 72.754C115.122 72.2256 114.929 70.9752 114.256 70.4439C113.456 69.8144 112.437 69.4419 111.415 69.4563C110.901 69.4621 110.439 69.5892 109.956 69.7538C109.445 69.927 109.032 69.7104 108.527 69.8404C108.432 69.8664 108.339 69.9068 108.247 69.9414C107.895 70.0627 107.51 70.031 107.141 69.9992C107.158 70.2187 106.973 70.415 106.765 70.4843C106.555 70.5536 106.329 70.5247 106.11 70.4988C104.966 70.3515 104.256 70.1436 103.569 69.182C103.306 68.8095 103.081 68.4052 102.766 68.0703C102.599 67.8895 102.356 67.7457 102.152 67.6111C102.045 67.5404 101.914 67.4347 101.786 67.4047C101.604 67.3619 101.51 67.6045 101.334 67.5788C101.303 67.5742 101.274 67.5568 101.243 67.558C101.212 67.5592 101.185 67.5779 101.155 67.5849C101.087 67.6007 101.022 67.554 100.956 67.5303C100.849 67.4913 100.73 67.5144 100.617 67.5381C100.552 67.5519 100.484 67.5664 100.428 67.6039C100.307 67.6859 100.253 67.869 100.108 67.8915C100.043 67.9016 99.97 67.8748 99.9125 67.9074C99.8845 67.9233 99.8655 67.951 99.8398 67.9704C99.7592 68.0307 99.6301 67.9987 99.56 68.0706C99.5305 68.1009 99.5169 68.1454 99.4834 68.1711C99.4335 68.2095 99.3509 68.1982 99.3162 68.2505C99.2911 68.2883 99.3035 68.3449 99.2721 68.3778C99.2539 68.3969 99.2259 68.4023 99.2048 68.4179C99.1508 68.4584 99.1655 68.5407 99.1773 68.6071C99.2132 68.8066 99.201 69.1976 98.912 69.1595C98.8473 69.1508 98.782 69.1268 98.7182 69.141C98.6896 69.1474 98.6634 69.1612 98.6353 69.1702C98.5663 69.1921 98.4921 69.1829 98.4196 69.1791C98.2241 69.1684 98.2034 69.2686 98.1872 69.4251C98.169 69.5998 98.0734 69.7497 98.0448 69.9212C98.0362 69.9732 98.0333 70.0281 98.0448 70.0858Z" fill="white"/>
<path d="M98.3456 69.273C98.3243 69.1988 98.0704 69.1185 98.0364 69.273C98.0026 69.4275 98.1227 69.6779 98.1227 69.6779C98.1227 69.6779 98.3774 69.3842 98.3456 69.273Z" fill="#14141B"/>
<path d="M99.6634 69.1814C99.6634 69.3252 99.7199 69.4419 99.7898 69.4419C99.8597 69.4419 99.9163 69.3252 99.9163 69.1814C99.9163 69.0376 99.8597 68.921 99.7898 68.921C99.7197 68.921 99.6634 69.0376 99.6634 69.1814Z" fill="#14141B"/>
<path d="M103.77 69.4416C103.77 69.4416 103.372 72.1129 101.992 72.7826L102.184 73.2665C102.184 73.2665 103.708 72.5146 104.242 69.8912L103.77 69.4416Z" fill="#FF335F"/>
<path d="M102.039 67.2069C102.162 67.1853 102.286 67.1636 102.41 67.142C102.554 67.1168 102.7 67.0914 102.845 67.1102C103.183 67.1541 103.332 67.3793 103.534 67.6106C103.719 67.8232 103.958 67.9849 104.157 68.1835C104.325 68.3519 104.445 68.8333 104.349 69.0738C104.253 69.3143 104.109 69.8439 103.555 70.1806C103.002 70.5176 101.654 71.0229 101.582 70.5416C101.53 70.1927 101.365 69.874 101.302 69.5295C101.238 69.1829 101.262 68.8003 101.239 68.4434C101.235 68.3857 101.231 68.3271 101.212 68.2725C101.174 68.1601 101.076 68.0747 101.043 67.9606C101.01 67.8503 101.043 67.7325 101.077 67.6225C101.099 67.5465 101.125 67.4668 101.183 67.4125C101.242 67.3574 101.326 67.338 101.405 67.3222C101.562 67.2907 101.72 67.2627 101.878 67.2349C101.932 67.2257 101.985 67.2165 102.039 67.2069Z" fill="#E8DAC3"/>
<path d="M14.5382 19.6631L12.2709 23.9045C12.2709 23.9045 7.65008 27.8291 4.14075 31.7236L5.0258 33.922C5.0258 33.922 12.3269 29.3199 14.1071 27.8395C15.8873 26.3593 17.8772 21.4772 17.8772 21.4772L14.5382 19.6631Z" fill="#FFD3C7"/>
<path d="M19.2687 10.7287C17.0605 12.0968 13.2073 20.0052 13.2073 20.0052C13.2073 20.0052 13.8801 23.7449 17.1108 23.4547C20.3414 23.1648 19.2687 10.7287 19.2687 10.7287Z" fill="#A0D858"/>
<path d="M40.3418 22.9291C40.805 23.8549 37.9566 29.0456 36.8091 27.659C35.6615 26.2724 36.8743 19.7227 36.8743 19.7227L40.3418 22.9291Z" fill="#7DC247"/>
<path d="M3.21845 32.1543C3.21845 32.1543 2.36602 32.195 2.02239 32.305C1.60975 32.437 0.839041 33.0942 0.839041 33.0942C0.839041 33.0942 0.785041 33.1809 0.942128 33.2412C1.18642 33.335 1.50926 32.8571 1.84047 33.0359C2.17197 33.2149 3.21845 32.1543 3.21845 32.1543Z" fill="#FFD3C7"/>
<path d="M5.61537 33.4102C5.61537 33.4102 4.72339 31.8105 4.07598 31.7793C4.07598 31.7793 2.68877 32.4039 2.20451 32.5506C1.6729 32.7117 0.249587 33.8679 0.156028 34.2823C-0.0914414 35.3793 -0.028491 35.3819 0.231973 35.4137C0.492437 35.4454 0.499366 34.6661 0.686773 34.472C0.779177 34.3764 1.38645 34.1596 1.38645 34.1596C1.16381 34.3143 0.89324 34.6736 0.923849 35.0054C0.961966 35.4168 0.957923 35.7885 1.15746 35.8702C1.51812 36.018 1.41243 35.0588 1.63651 34.9727C1.71737 34.9418 2.1944 34.6857 2.1944 34.6857C2.12164 34.8483 1.90593 35.0146 1.86839 35.1789C1.82046 35.3891 1.84038 36.1835 2.04021 36.1864C2.35178 36.1907 2.30818 35.4734 2.50309 35.3267C2.58048 35.2684 2.97175 35.0903 2.97175 35.0903C2.97175 35.0903 2.7933 35.4215 2.78377 35.565C2.77279 35.731 2.89206 36.3689 3.02142 36.3192C3.35927 36.1896 3.13433 35.6343 3.50394 35.2927C3.8109 35.0088 4.70288 34.5991 4.89289 34.1535C5.08347 33.7076 5.61537 33.4102 5.61537 33.4102Z" fill="#FFD3C7"/>
<path d="M36.8413 83.5125V82.728C36.8413 81.8239 35.9975 80.1834 35.9975 79.581C35.9975 78.9784 33.6658 80.0705 33.6658 80.0705C33.6658 80.0705 33.6473 80.9804 32.8636 81.8242C32.2656 82.4681 32.2644 83.2937 32.2976 83.5128H36.8413V83.5125Z" fill="#7DC247"/>
<path d="M20.9234 83.5121L21.3271 83.3239L21.5154 83.5121H23.0548C23.2075 83.0694 23.7288 81.3857 23.2586 80.2182C22.7132 78.8639 21.0256 79.2254 21.0256 79.2254C21.0256 79.2254 19.8807 80.8229 19.2177 81.109C18.5547 81.3952 16.0234 82.4197 15.7222 83.0827C15.6321 83.2808 15.7858 83.4148 15.7413 83.5121H20.9234Z" fill="#7DC247"/>
<path d="M30.7762 33.0479C31.6503 45.7188 34.0366 62.3255 36.6257 79.7939C36.6257 79.7939 36.118 80.6198 33.2385 80.1878L24.37 43.0956C24.3322 42.9972 24.2375 42.9319 24.1318 42.9319C23.9946 42.9319 23.8817 43.039 23.8768 43.1765C23.7746 45.972 22.878 54.5237 23.3599 80.3062C23.3599 80.3062 21.8462 81.1372 20.2323 80.3062C20.2323 80.3062 14.5145 42.1725 15.8316 34.8717L30.7762 33.0479Z" fill="#5D3660"/>
<path d="M30.1736 38.1591C30.1736 38.1591 27.4133 40.3375 20.5462 38.2203C16.6456 37.0179 15.1123 34.81 15.1123 34.81C15.1123 34.81 16.9422 12.8612 18.6161 11.228C19.833 10.0417 21.932 9.75874 24.5823 9.9961C25.5817 10.0868 26.6591 10.2502 27.7982 10.4682C28.642 10.6291 29.4283 10.8817 30.1482 11.1974C32.9746 12.4402 34.7614 14.666 34.8579 16.2259C34.98 18.1822 30.1736 38.1591 30.1736 38.1591Z" fill="#E8DAC3"/>
<path d="M28.1565 10.5413C28.1565 10.5413 29.3107 11.4564 29.1267 12.6154C29.1267 12.6154 29.9225 10.083 28.9711 9.54446C28.0196 9.00591 28.1565 10.5413 28.1565 10.5413Z" fill="#7DC247"/>
<path d="M25.8136 7.47268L25.0859 11.2393C25.0859 11.2393 25.8387 12.1495 28.5372 11.7328C28.5372 11.7328 28.6522 8.66094 30.4714 7.29365C30.4714 7.29365 30.221 7.19373 29.8138 7.05859C29.8138 7.05859 28.4858 8.8778 25.8136 7.47268Z" fill="#FFD3C7"/>
<path d="M31.3803 40.9231C31.3803 40.9231 28.8484 41.8488 25.0186 39.9026C25.0186 39.9026 25.4849 17.2994 26.1436 15.1239C26.1436 15.1239 27.5201 13.9726 28.6356 13.363C29.6133 12.8299 30.0523 11.5178 30.1478 11.1973C32.9743 12.4401 35.0288 14.1467 35.1255 15.7066C35.2471 17.6632 31.3803 40.9231 31.3803 40.9231Z" fill="#099906"/>
<path d="M24.5823 9.99595C24.09 10.5769 23.1342 11.9021 22.6225 13.9182C22.2731 15.2953 16.3927 39.2205 16.3927 39.2205C14.067 38.3117 14.1508 35.6984 14.1508 35.6984C14.1508 35.6984 16.9422 12.8613 18.6165 11.2281C19.833 10.0419 21.9321 9.75888 24.5823 9.99595Z" fill="#099906"/>
<path d="M28.9716 9.54297C28.9716 9.54297 31.0527 9.87851 31.265 12.0849C31.4772 14.2914 28.5125 15.5746 28.5125 15.5746C28.5125 15.5746 28.2307 14.3592 27.6321 14.2749C27.0335 14.1906 26.1455 15.1224 26.1455 15.1224C26.1455 15.1224 26.9006 13.9041 27.844 13.3705C28.7871 12.8369 29.8613 11.1029 28.9716 9.54297Z" fill="#A0D858"/>
<path d="M25.5338 8.91504C25.5338 8.91504 22.3803 9.03256 20.7363 11.9361C20.7363 11.9361 21.5232 11.7186 21.9682 12.1122C22.4132 12.5055 22.6219 13.9176 22.6219 13.9176C22.6219 13.9176 23.5824 10.6782 25.3106 10.0724L25.5338 8.91504Z" fill="#A0D858"/>
<path d="M25.6808 4.15186C24.2644 8.32333 28.5586 10.3374 30.109 9.13388C30.6059 8.74839 31.2132 7.94736 31.7243 7.02303C31.841 6.81368 31.9516 6.59912 32.0552 6.38111C32.7563 4.90149 33.1184 3.28904 32.3922 2.59254C29.8652 0.166647 27.0972 -0.0196067 25.6808 4.15186Z" fill="#FFD3C7"/>
<path d="M28.1179 4.82602C27.9859 4.97791 28.033 5.23462 28.2227 5.39979C28.4127 5.56496 28.6734 5.57565 28.8054 5.42376C28.9374 5.27187 28.8906 5.01516 28.7006 4.84999C28.5109 4.68482 28.2498 4.67413 28.1179 4.82602Z" fill="#FFD3C7"/>
<path d="M31.3451 6.60613C31.3168 6.79816 31.4846 6.98066 31.7222 7.02253C31.8389 6.81318 31.9495 6.59862 32.0531 6.38061C31.9919 6.34307 31.9218 6.31852 31.8455 6.30726C31.5957 6.2729 31.3719 6.40718 31.3451 6.60613Z" fill="#FFD3C7"/>
<path d="M30.4592 3.44461C30.434 3.44374 30.4086 3.43623 30.3855 3.4218C30.3815 3.4192 29.9905 3.17202 29.631 3.2702C29.5536 3.29185 29.4745 3.24594 29.4534 3.16884C29.4323 3.09203 29.4777 3.01233 29.5548 2.99125C30.0399 2.85842 30.5221 3.16566 30.5423 3.17866C30.6093 3.22197 30.6281 3.3112 30.5851 3.37819C30.5571 3.42266 30.5083 3.44606 30.4592 3.44461Z" fill="#0E3944"/>
<path d="M32.441 4.9401C32.426 4.93952 32.4107 4.93692 32.3959 4.93143C32.3209 4.904 32.2824 4.82113 32.3099 4.74605C32.3477 4.64296 32.1303 4.49194 32.0055 4.43418C31.9333 4.4004 31.9016 4.31464 31.9351 4.24245C31.9686 4.17026 32.054 4.13792 32.1265 4.1717C32.3494 4.27421 32.696 4.53179 32.581 4.84539C32.5594 4.90545 32.5016 4.94212 32.441 4.9401Z" fill="#0E3944"/>
<path d="M31.1653 4.7666C31.1653 4.7666 30.7928 5.82694 31.0992 6.87255C31.0992 6.87255 30.9744 7.33111 30.2188 6.89652" stroke="#FFD3C7" stroke-width="0.7508" stroke-miterlimit="10"/>
<path d="M32.7854 3.80058C32.7854 3.80058 32.3144 2.41798 29.6361 1.86038C29.6361 1.86038 28.7462 3.26955 27.8141 3.46879C26.8819 3.66804 26.1511 4.87824 26.1511 4.87824C26.1511 4.87824 26.2917 4.20398 25.9816 4.02264C25.6711 3.84158 25.4115 6.08556 25.4115 6.08556C25.4115 6.08556 24.2034 5.47569 25.2937 1.94413C26.2796 -1.2493 28.7392 0.453532 28.7392 0.453532C28.7392 0.453532 29.8244 -0.639724 32.6176 1.02355L32.3615 1.06802C32.3615 1.06802 33.6846 1.74488 33.7946 3.08041L33.5676 2.97963C33.5676 2.97963 33.6306 3.68883 32.7854 3.80058Z" fill="black"/>
<path d="M26.5726 4.41299C26.5726 4.41299 26.2489 3.3593 25.4367 3.56721C24.6244 3.77511 25.0338 5.63244 25.7136 5.86431C26.3936 6.09619 26.5726 4.41299 26.5726 4.41299Z" fill="#FFD3C7"/>
<path d="M31.3089 7.71246L30.9907 7.8759C31.0895 7.19905 30.4325 7.75722 28.7225 6.63856C28.0497 6.19848 27.6387 6.98565 27.6387 6.98565C27.6387 6.98565 26.1092 6.35152 27.0364 3.86816L26.5143 4.25915C26.5143 4.25915 25.3697 6.09251 25.3711 6.83145L25.538 6.81181C25.538 6.81181 25.2166 7.62757 26.1816 8.64199C27.1597 9.6697 27.9959 9.94258 27.9959 9.94258L27.7667 10.0581C27.7667 10.0581 29.6035 10.8187 30.5321 9.66392L30.4516 9.98589C30.4513 9.98647 31.4949 8.97667 31.3089 7.71246Z" fill="black"/>
<path d="M38.802 21.0869L41.0456 24.9101C41.0456 24.9101 42.1889 25.7542 43.8221 27.9326C45.4553 30.1107 48.9274 33.7076 48.9274 33.7076L47.4054 35.5126C47.4054 35.5126 39.3705 29.1437 38.7716 28.5719C38.1727 28.0002 34.2363 22.9644 34.2363 22.9644L38.802 21.0869Z" fill="#FFD3C7"/>
<path d="M34.479 14.1943C32.7345 15.0188 32.2595 18.0008 32.4521 20.7331C32.6447 23.4654 33.7981 24.0192 33.7981 24.0192L36.8096 27.6585C36.8096 27.6585 36.6467 23.6141 40.3423 22.9285C40.3423 22.9285 38.1968 19.032 37.4616 17.9988C35.3675 15.0551 34.479 14.1943 34.479 14.1943Z" fill="#A0D858"/>
<path d="M80.6118 69.5223C80.5552 69.2936 80.6927 69.0525 80.8847 68.9159C81.3773 68.5651 82.0265 68.4915 82.5514 68.1337C82.9239 67.8799 83.4876 67.9679 83.7648 68.3234C84.2442 68.9382 85.5133 71.8056 84.2095 71.872C83.619 71.902 83.0282 71.9321 82.4377 71.9624C82.2297 71.9731 82.0117 71.9817 81.8243 71.8908C81.6196 71.7917 81.4862 71.5907 81.3678 71.3967C81.0559 70.885 80.7764 70.3534 80.5312 69.8062" fill="#603231"/>
<path d="M52.4626 60.1242C51.2622 59.4159 49.6729 54.543 50.0555 53.2346C50.4381 51.9263 51.3763 50.7906 51.3763 50.7906C51.3763 50.7906 49.7384 51.7374 49.5346 52.8691C49.5346 52.8691 49.9053 49.9982 51.4225 49.7207C51.4225 49.7207 48.7055 50.451 48.0694 52.6049C47.4333 54.759 48.4913 56.6213 48.4913 56.6213C48.4913 56.6213 47.1968 55.3984 46.9551 54.0236C46.9551 54.0236 46.3576 55.8436 48.3327 57.9077C50.3079 59.9718 49.5819 62.3723 49.5819 62.3723L52.4626 60.1242Z" fill="#312C19"/>
<path d="M56.7198 64.8198C56.7198 64.8198 58.6141 71.5307 57.4899 73.4989C56.3658 75.4668 54.8911 78.1252 54.8911 78.1252C54.8911 78.1252 56.7591 81.3524 57.8463 81.664C58.9338 81.9755 59.5113 82.8357 59.3187 83.5126H56.1423C56.1423 83.5126 52.0996 78.3178 51.8109 78.2216C51.5221 78.1254 52.1126 73.0401 49.8441 70.4813C47.5759 67.9223 53.0624 62.584 56.7198 64.8198Z" fill="#312C19"/>
<path d="M74.9117 74.8468C74.9117 74.8468 73.3391 80.2397 72.9704 80.4332C72.6016 80.627 73.3391 80.2394 73.3391 80.2394L80.2946 82.6229C80.2946 82.6229 84.0078 82.2094 84.1521 83.5117H78.5097C78.5097 83.5117 69.714 81.8328 68.559 81.663C67.4039 81.4933 65.911 76.1451 65.911 76.1451L74.9117 74.8468Z" fill="#312C19"/>
<path d="M54.181 59.4474C54.4051 59.5017 54.6202 59.5502 54.8215 59.5857C56.2208 59.8335 57.8269 60.2328 58.4261 61.5213C58.5439 61.7748 58.6184 62.0578 58.809 62.2628C59.0539 62.5262 59.4365 62.6036 59.7365 62.802C60.1463 63.0725 60.3822 63.5542 60.7966 63.8181C61.1621 64.0506 61.6164 64.0829 62.025 64.2261C63.2999 64.6726 64.2063 66.2004 65.5482 66.0462C65.7003 66.0286 65.8915 65.9177 65.8372 65.7742C66.0298 66.0032 66.2862 66.1782 66.5698 66.2743C66.6091 66.1476 66.6481 66.0205 66.6873 65.8935C66.9478 66.3491 67.3313 66.734 67.7861 66.996C67.7096 66.9243 67.797 66.7837 67.9019 66.7768C68.0064 66.7699 68.0976 66.8423 68.177 66.9105C69.1057 67.7069 70.0635 68.5169 71.1753 69.0479C72.2209 69.5472 73.2495 69.4761 74.3364 69.7591C74.7265 69.8608 79.34 70.6404 79.388 70.8928C79.388 70.8934 80.295 75.6669 80.295 75.6669C78.1241 77.1878 75.4943 78.2646 72.8839 78.6389C71.242 78.8742 69.8207 79.735 68.1438 79.9221C66.2911 80.1292 64.3833 79.8343 62.6467 79.1708C61.6164 78.7772 60.6346 78.2681 59.6554 77.7602C59.1463 77.4959 58.3005 77.2456 57.8945 76.8457C57.3733 76.3322 57.4977 76.0556 56.7813 75.6831C56.0236 75.2889 55.2656 74.8945 54.5079 74.5003C54.533 74.5465 54.613 74.4986 54.6049 74.4466C54.5968 74.3946 54.5446 74.3632 54.4978 74.3392C54.0031 74.088 53.4707 73.9185 52.9633 73.716C53.1244 73.6574 53.7311 73.3932 53.8845 73.4784C52.1065 72.4905 50.2354 71.4108 49.2715 69.6199C48.3535 67.9142 48.4248 65.8686 48.5201 63.9336C48.5767 62.7843 48.6512 61.5759 49.2709 60.6062C49.3601 60.6062 50.0685 59.6599 50.2357 59.5361C50.5426 59.3088 50.9625 59.0486 51.3514 59.0027C52.1842 58.9042 53.257 59.2239 54.181 59.4474Z" fill="#FFD231"/>
<path d="M72.9697 69.3785C75.294 70.0033 79.1793 68.9615 80.2939 69.0914C81.4082 69.2214 84.8734 69.986 85.3065 70.47C85.7397 70.9539 86.1728 71.9274 86.1728 71.9274L89.9267 72.4139C89.9267 72.4139 90.0711 75.0371 88.0498 75.6666C86.0284 76.2961 77.4871 77.2293 77.4871 77.2293L72.9697 69.3785Z" fill="#FFD231"/>
<path d="M66.2477 71.4778C63.0006 70.4845 64.2264 73.7758 64.2264 73.7758C64.2264 73.7758 59.5354 73.2387 58.9209 74.4789C58.3067 75.7192 61.9163 83.5129 61.9163 83.5129H66.2477C66.2477 83.5129 67.1088 81.9784 64.8013 81.6642C62.4938 81.3501 62.6278 78.8277 62.6278 78.8277C62.6278 78.8277 66.8252 80.385 68.2691 80.4344C69.7129 80.4838 72.9692 78.6874 72.9692 78.6874C72.9692 78.6874 71.7342 73.1564 66.2477 71.4778Z" fill="#FFD231"/>
<path d="M53.662 59.1201C50.6256 59.1452 47.4166 60.5902 45.6245 63.0946C44.7646 64.2959 44.652 65.2142 44.7392 66.6268C44.8611 68.5964 44.2471 70.5369 44.2529 72.5048C44.2564 73.7078 44.4334 75.0569 43.6621 75.9801C43.1799 76.557 42.3197 77.0442 42.4744 77.78C42.5099 77.9489 42.6003 78.1002 42.689 78.248C43.7207 79.9665 44.8229 81.8368 45.9246 83.5119H48.8546C48.8546 83.5119 48.7342 82.3597 48.1535 82.0701C46.5936 81.2896 45.6352 79.8963 45.5056 78.149C45.8171 78.445 46.3514 78.2789 46.6554 77.9755C46.9595 77.672 47.1429 77.2616 47.4588 76.9706C47.9777 76.4921 48.7461 76.4222 49.375 76.1014C50.2023 75.6792 50.7345 74.8554 51.2274 74.0682C52.0564 72.7445 52.8913 71.409 53.4359 69.9452C54.2661 67.714 53.7281 65.7839 53.7059 63.5287C53.6908 62.0591 53.6764 60.5896 53.662 59.1201Z" fill="#FFD231"/>
<path d="M76.7559 69.9459C76.7169 70.3383 76.7709 70.7503 76.7946 71.2309C76.8001 71.3412 76.8076 71.4578 76.8688 71.5496C76.9124 71.6149 76.9788 71.6608 77.0455 71.7021C77.7207 72.1205 78.5927 72.2034 79.3346 71.9195C79.4553 71.8733 79.5823 71.8087 79.634 71.6903C79.6779 71.5898 79.6571 71.4746 79.6614 71.3648C79.6822 70.8384 80.2505 70.5312 80.7437 70.3458C80.8194 70.3172 80.9011 70.2843 80.9418 70.2144C80.9883 70.1347 80.9664 70.0348 80.9667 69.9424C80.9687 69.4399 81.5655 69.4238 81.902 69.325C81.7163 68.7723 81.3891 67.932 80.6889 67.9615C80.1359 67.9826 78.9915 67.9774 78.5315 67.8341C78.1151 67.7007 77.3692 68.6444 77.1712 68.904C76.8997 69.2589 76.7906 69.5944 76.7559 69.9459Z" fill="#312C19"/>
<path d="M85.044 72.8475C85.1892 72.8475 85.3068 72.5817 85.3068 72.2539C85.3068 71.926 85.1892 71.6602 85.044 71.6602C84.8989 71.6602 84.7812 71.926 84.7812 72.2539C84.7812 72.5817 84.8989 72.8475 85.044 72.8475Z" fill="black"/>
<path d="M89.292 72.3314C89.292 72.3314 89.6758 72.1775 89.9284 72.414C90.1811 72.6505 89.8845 73.1547 89.8845 73.1547C89.8845 73.1547 89.6391 72.3765 89.292 72.3314Z" fill="#7DC247"/>
<path d="M59.6551 77.7606C59.6551 77.7606 58.0205 75.6162 59.3554 73.8992C60.6904 72.182 64.8774 72.7194 64.8774 72.7194C64.8774 72.7194 59.6797 71.7812 58.4524 72.8479C57.2252 73.9146 58.4524 77.2301 58.4524 77.2301L59.6551 77.7606Z" fill="#312C19"/>
<path d="M76.484 69.4854C76.484 69.4854 74.4332 75.4191 77.488 77.2291L76.6492 77.7596C76.6492 77.7596 73.2432 74.5144 75.8103 69.4854H76.484Z" fill="#099906"/>
<path d="M49.1736 36.3214C49.1736 36.3214 58.8968 55.8037 75.567 69.9961" stroke="#A0D858" stroke-miterlimit="10"/>
<path d="M46.8706 34.6418C47.3358 33.7755 47.993 33.4224 48.9277 33.7074C49.8625 33.9921 51.956 34.8667 52.0282 35.5121C52.1004 36.1578 52.2878 37.046 52.0282 37.4572C51.9075 37.6484 51.2341 37.8904 51.2341 37.8904C51.2341 37.8904 50.7048 38.5964 49.6667 38.3235C49.4597 38.2689 48.9277 37.8904 48.9277 37.8904C48.9277 37.8904 48.9277 38.6845 48.611 38.5883C47.9428 38.3853 48.1296 37.3129 47.4077 36.7353C46.6858 36.1578 46.8706 34.6418 46.8706 34.6418Z" fill="#FFD3C7"/>
<path d="M48.928 37.8911C48.928 37.8911 48.1541 36.7684 48.2263 35.5128C48.2985 34.2576 50.2061 34.162 50.6661 34.4072L50.2476 33.9928C50.2476 33.9928 48.5873 33.6079 47.9615 34.402C47.3358 35.1961 47.9615 36.6399 47.9615 36.6399C47.9615 36.6399 48.5708 37.3615 48.928 37.8911Z" fill="#099906"/>
</svg>
