<svg width="140" height="109" viewBox="0 0 140 109" fill="none" xmlns="http://www.w3.org/2000/svg">
<mask id="mask0_1_644" style="mask-type:luminance" maskUnits="userSpaceOnUse" x="-1" y="0" width="142" height="109">
<path d="M140.085 108.193L140.085 0.111542L-0.000167847 0.111542L-0.000167847 108.193L140.085 108.193Z" fill="white"/>
</mask>
<g mask="url(#mask0_1_644)">
<path d="M116.47 47.4321C116.738 45.1367 117.961 42.8955 119.999 41.504C122.037 40.1135 124.905 39.6791 127.235 40.6221C128.713 41.22 129.886 42.2975 130.914 43.4282C131.926 42.6426 132.972 41.823 134.393 41.823C135.939 41.823 137.236 42.7741 137.615 44.0622C138.334 43.0439 139.59 42.3668 141.026 42.3668C143.26 42.3668 145.07 44.003 145.07 46.0206C145.07 46.5342 144.951 47.0228 144.74 47.4663C144.995 47.3408 145.284 47.2636 145.595 47.2636C146.575 47.2636 147.368 47.9699 147.396 48.8487C147.791 48.6832 148.23 48.5889 148.695 48.5889C149.784 48.5889 150.741 49.0975 151.293 49.866C151.229 49.5992 151.193 49.3233 151.193 49.0393C151.193 46.8864 153.125 45.1417 155.506 45.1417C156.866 45.1417 158.077 45.7116 158.868 46.6005C158.825 46.4229 158.799 46.2383 158.799 46.0487C158.799 44.6451 160.058 43.5074 161.611 43.5074C162.773 43.5074 163.769 44.1435 164.198 45.0514C164.149 44.7645 164.116 44.4736 164.116 44.1746C164.116 41.0094 166.956 38.4431 170.459 38.4431C173.962 38.4431 176.802 41.0094 176.802 44.1746C176.802 44.3301 176.79 44.4826 176.776 44.6351C177.75 43.676 179.143 43.071 180.698 43.071C183.638 43.071 186.023 45.225 186.023 47.8826C186.023 52.4173 181.291 52.2798 177.783 53.268C173.361 54.5141 169.279 56.7453 166.029 59.7289C163.278 62.2561 161.105 65.304 158.044 67.5222C154.561 70.0453 150.135 71.3204 145.701 71.791C138.942 72.5083 131.956 71.4308 125.863 68.6929C119.769 65.9551 114.593 61.5649 111.221 56.2226C110.176 54.5682 109.508 52.1484 110.219 50.2693C110.614 49.2229 111.633 48.2839 112.7 47.7863C112.994 47.6488 116.535 46.8794 116.47 47.4321Z" fill="white"/>
<path d="M130.184 50.1977C131.219 49.3439 133.06 49.4944 133.907 50.5027C133.949 49.5947 135.155 48.9506 136.104 49.2516C137.052 49.5526 137.566 50.601 137.31 51.4798C138.21 51.1518 139.325 51.3855 139.974 52.0376C140.174 51.3484 140.806 50.8086 141.528 50.5227C142.513 50.1325 143.715 49.99 144.76 50.3161C146.03 50.7133 146.671 51.7557 146.899 52.9004C148.558 52.2694 150.705 53.087 151.363 54.5999C151.439 54.7725 151.495 54.9721 151.406 55.1387C151.353 55.237 151.257 55.3092 151.161 55.3754C149.668 56.4148 147.734 56.7629 145.864 56.9806C141.766 57.4572 137.545 57.4421 133.566 56.4339" fill="#D6DFFF"/>
<path d="M102.984 55.5608C104.789 55.2167 106.382 54.0639 107.147 52.547C109.091 48.6956 105.472 44.3274 100.489 43.7556C101.666 41.73 101.256 38.9149 98.6153 37.41C96.4858 36.1961 93.547 36.3225 91.4686 37.5716C91.1277 37.7762 89.8854 38.4043 89.3802 39.576C87.9602 36.6907 82.591 37.0148 82.1901 40.2703C81.1299 37.8364 79.2913 36.7409 76.7166 35.9955C74.1419 35.25 71.1919 35.3153 68.877 36.5773C67.0029 37.5996 65.6884 39.3132 64.8679 41.1471C64.638 41.6598 64.0019 41.099 63.6321 41.5394C63.2924 41.9427 63.2658 43.3392 62.8272 43.6552C61.4227 44.6675 60.2048 45.8905 59.2377 47.2589C58.6049 48.1548 58.0642 49.1801 58.1752 50.2386C58.2863 51.302 59.039 52.221 59.8784 52.9724C61.9645 54.8384 64.698 56.0002 67.4737 56.861C76.7454 59.7353 87.0131 59.6279 95.9474 63.2737" fill="white"/>
<path d="M75.312 48.2681C75.755 48.3674 76.1103 48.6222 76.3257 48.9503C76.3024 48.6022 76.3368 48.246 76.4345 47.8899C76.953 46.0058 79.0647 44.858 81.1498 45.3266C81.9292 45.5021 82.5942 45.8783 83.095 46.379C83.075 46.1934 83.0816 46.0017 83.1349 45.8101C83.3847 44.9012 84.4028 44.3484 85.4087 44.5741C85.9317 44.6915 86.3447 44.9995 86.5889 45.3938C86.5945 45.3737 86.5967 45.3526 86.6023 45.3326C87.1851 43.2147 89.5589 41.9256 91.9026 42.4523C93.8623 42.8927 95.1757 44.4638 95.2145 46.2044C96.0217 45.8483 96.9654 45.7359 97.9047 45.9466C100.025 46.4231 101.317 48.3634 100.789 50.2796C100.262 52.1958 98.1145 53.3626 95.9939 52.886C94.3064 52.5068 93.1484 51.2006 93.0096 49.7168C92.067 50.2023 90.9267 50.3759 89.7909 50.1201C88.1011 49.7398 81.3574 52.6182 79.2723 52.1486C77.9478 51.8507 75.3998 51.34 74.5204 51.1424C73.6411 50.9447 73.1059 50.1401 73.3247 49.3456C73.5434 48.551 74.4327 48.0704 75.312 48.2681Z" fill="#D6DFFF"/>
<path d="M34.6191 57.1247C35.3575 56.9732 35.987 56.7434 36.7597 56.7274C39.1934 56.6792 41.5794 56.7946 44.013 56.5568C46.2791 56.3351 48.5818 55.9338 50.5325 54.8683C52.4832 53.8029 54.0354 51.9589 54.1075 49.9013C54.193 47.4534 51.9092 45.1308 49.208 44.9212C49.6498 43.9861 49.7287 42.6508 49.1924 41.7268C48.775 41.0065 47.9978 40.4828 47.1373 40.2651C46.7332 40.1628 46.2691 40.1056 45.8516 40.1718C45.7217 40.1929 44.6948 40.4477 44.6936 40.4989C44.7203 38.8796 43.026 37.137 40.6823 36.826C38.3219 36.513 36.7375 37.9075 35.5984 39.5538C34.3349 38.8997 32.8261 38.8977 31.778 39.912C31.0352 40.6303 30.7377 41.6646 30.8276 42.6438C29.8883 42.2114 28.7026 42.2485 27.7988 42.7411C26.8962 43.2337 26.3055 44.1637 26.2911 45.1158C24.8966 43.934 22.9159 43.339 21.0162 43.5317C20.4367 43.5909 19.8549 43.7233 19.362 44.0042C18.8446 44.3002 18.4527 44.7406 18.0741 45.176C17.0149 46.3919 15.9501 47.6701 15.536 49.1719C15.3373 49.8943 15.6626 50.2354 15.8058 50.8825C16.1844 52.589 16.9982 54.2764 18.4571 55.4121C20.1891 56.7605 22.595 57.1628 24.8822 57.1899C26.5686 57.2099 28.2496 57.0524 29.935 57.0454C31.5437 57.0384 32.9937 57.4577 34.6191 57.1247Z" fill="white"/>
<path d="M27.4729 55.8321C29.8288 56.9939 32.5689 57.5115 35.2425 57.2998C35.6421 57.2677 36.0685 57.2106 36.3683 56.9688C36.6081 56.7762 36.7335 56.4922 36.8057 56.2093C37.0511 55.2412 36.7258 54.1707 35.9664 53.4524C35.2069 52.7341 34.0389 52.391 32.9575 52.5685C33.4905 51.0627 32.9498 49.4284 31.4909 48.5696C30.0165 47.7018 27.8226 47.6918 26.5092 48.8294C26.2638 47.9085 25.2335 47.4219 24.2465 47.2493C23.4415 47.1089 22.5755 47.1219 21.8416 47.452C20.9246 47.8633 20.3306 48.7191 20.063 49.613C19.7954 50.5059 19.811 51.4459 19.8298 52.3709" fill="#F2F5FF"/>
<path d="M43.2408 41.0122C42.6801 43.0658 44.0679 45.1405 46.3406 45.6472C48.6133 46.1538 50.9093 44.8997 51.47 42.8471C52.0307 40.7934 50.6429 38.7187 48.3702 38.2121C46.0975 37.7054 43.8014 38.9595 43.2408 41.0122Z" fill="white"/>
<path d="M49.7024 44.8978C49.3571 46.1609 50.2109 47.438 51.6099 47.7501C53.0088 48.0621 54.421 47.2906 54.7663 46.0265C55.1116 44.7624 54.2578 43.4863 52.8589 43.1742C51.4611 42.8622 50.0477 43.6337 49.7024 44.8978Z" fill="white"/>
<path d="M31.2431 42.8756C32.4421 43.4224 32.9806 44.4146 33.085 45.2342C34.4573 44.0404 36.3714 43.4143 38.2 43.5257C41.6551 43.7374 44.4352 46.4341 44.0821 49.6305" stroke="#FFA5E6" stroke-width="0.75" stroke-miterlimit="10" stroke-linejoin="round"/>
<path d="M45.8675 44.1782C46.4016 42.9212 45.4889 41.4374 43.8924 41.0822C42.3635 40.7421 40.9513 41.5477 40.6515 42.9523" stroke="#FFA5E6" stroke-width="0.75" stroke-miterlimit="10" stroke-linejoin="round"/>
<path d="M24.1851 56.8634L32.8274 85.4861C36.0693 96.2228 46.8622 103.671 59.1783 103.671H144.704C157.02 103.671 167.813 96.2228 171.055 85.4861L179.697 56.8634" fill="#BA0087"/>
<mask id="mask1_1_644" style="mask-type:luminance" maskUnits="userSpaceOnUse" x="24" y="56" width="156" height="48">
<path d="M24.1846 56.8644L32.8269 85.487C36.0688 96.2238 46.8617 103.672 59.1778 103.672H144.703C157.019 103.672 167.812 96.2238 171.054 85.487L179.696 56.8644" fill="white"/>
</mask>
<g mask="url(#mask1_1_644)">
<path d="M25.7746 67.924C25.7746 70.1402 27.762 71.936 30.2145 71.936C32.6671 71.936 34.6545 70.1392 34.6545 67.924C34.6545 65.7079 32.6671 63.912 30.2145 63.912C27.762 63.911 25.7746 65.7079 25.7746 67.924Z" fill="#FC8FDF"/>
<path d="M91.4339 61.4516C91.4339 63.6677 93.4223 65.4635 95.8738 65.4635C98.3263 65.4635 100.314 63.6667 100.314 61.4516C100.314 59.2354 98.3263 57.4396 95.8738 57.4396C93.4212 57.4396 91.4339 59.2354 91.4339 61.4516Z" fill="#FC8FDF"/>
<path d="M113.213 97.1915C113.213 98.9231 114.768 100.328 116.684 100.328C118.601 100.328 120.155 98.9241 120.155 97.1915C120.155 95.4589 118.6 94.0553 116.684 94.0553C114.768 94.0553 113.213 95.4599 113.213 97.1915Z" fill="#FC8FDF"/>
<path d="M90.9059 81.1362C90.9059 83.3523 92.8932 85.1481 95.3458 85.1481C97.7983 85.1481 99.7857 83.3523 99.7857 81.1362C99.7857 78.92 97.7983 77.1242 95.3458 77.1242C92.8932 77.1242 90.9059 78.92 90.9059 81.1362Z" fill="#FC8FDF"/>
<path d="M51.7415 89.2286C56.6881 89.2286 60.698 85.6051 60.698 81.1354C60.698 76.6656 56.6881 73.0422 51.7415 73.0422C46.795 73.0422 42.7851 76.6656 42.7851 81.1354C42.7851 85.6051 46.795 89.2286 51.7415 89.2286Z" fill="#FC8FDF"/>
<path d="M84.4274 96.4058C84.4274 99.3543 87.0732 101.744 90.3362 101.744C93.5993 101.744 96.2439 99.3533 96.2439 96.4058C96.2439 93.4573 93.5993 91.0665 90.3362 91.0665C87.0732 91.0665 84.4274 93.4573 84.4274 96.4058Z" fill="#FC8FDF"/>
<path d="M131.069 82.9864C134.332 82.9864 136.977 80.5964 136.977 77.6481C136.977 74.6999 134.332 72.3098 131.069 72.3098C127.806 72.3098 125.161 74.6999 125.161 77.6481C125.161 80.5964 127.806 82.9864 131.069 82.9864Z" fill="#FC8FDF"/>
<path d="M63.3441 67.0145C63.3441 69.963 65.9888 72.3528 69.2518 72.3528C72.5149 72.3528 75.1606 69.963 75.1606 67.0145C75.1606 64.0659 72.5149 61.6762 69.2518 61.6762C65.9899 61.6762 63.3441 64.0659 63.3441 67.0145Z" fill="#FC8FDF"/>
</g>
<path d="M33.3119 53.5802L34.9029 54.1721C37.5287 55.1493 40.341 55.6519 43.1799 55.6519H160.703C163.542 55.6519 166.354 55.1493 168.98 54.1721L170.571 53.5802C173.197 52.6031 176.009 52.1004 178.848 52.1004H190.267C192.128 52.1004 193.636 53.4628 193.636 55.1443C193.636 56.8257 192.128 58.1881 190.267 58.1881H178.848C176.009 58.1881 173.197 58.6908 170.571 59.6679L168.98 60.2598C166.354 61.237 163.542 61.7396 160.703 61.7396H43.1799C40.3398 61.7396 37.5287 61.237 34.9029 60.2598L33.3119 59.6679C30.6861 58.6908 27.8738 58.1881 25.0349 58.1881H13.6159C11.7551 58.1881 10.2474 56.8257 10.2474 55.1443C10.2474 53.4628 11.7551 52.1004 13.6159 52.1004H25.0349C27.8738 52.1004 30.6861 52.6031 33.3119 53.5802Z" fill="#BA0087"/>
<path d="M151.082 61.74H43.1804C40.3404 61.74 37.5292 61.2373 34.9034 60.2602L33.3124 59.6683C30.6867 58.6911 27.4258 58.1885 24.5869 58.1885" stroke="#472439" stroke-width="0.75" stroke-miterlimit="10" stroke-linecap="round" stroke-linejoin="round"/>
<path d="M98.5582 28.0718C99.1499 28.1069 99.413 21.2617 99.4464 20.5855C99.7062 15.3506 98.8535 9.4826 95.3551 5.15259C94.1304 3.63768 92.223 2.01544 89.8981 2.18699C89.0899 2.24618 88.2883 2.50201 87.7065 3.02972C87.0503 3.62565 86.8049 4.4764 86.8582 5.29906C86.9748 7.08083 88.034 8.76227 88.9877 10.2812C89.4418 11.0035 89.8815 11.7279 90.2923 12.4653C90.461 12.8756 90.6265 13.2849 90.7863 13.6982C92.3596 17.7092 93.5542 21.8105 92.9902 26.0191C94.4391 27.2692 96.4453 27.9353 98.5582 28.0718Z" fill="#FFE4AB"/>
<path d="M92.9892 26.0202C92.6017 28.9116 91.3837 31.8541 88.8879 34.8528C89.5696 33.1152 86.4508 28.6969 87.7687 27.7067C87.7543 27.6475 87.7376 27.5933 87.7199 27.5341C89.1554 26.0513 89.9659 24.1743 90.4655 22.2731C91.1994 19.466 92.877 11.4431 87.3968 11.7009C86.3731 11.7491 85.3928 12.0791 84.4479 12.4393C81.9887 13.3763 79.6361 14.5421 77.44 15.9125C75.2439 17.282 74.369 18.1056 71.6133 17.5107C71.4623 17.4776 71.308 17.4465 71.1537 17.4174C70.9705 17.3913 70.7851 17.3582 70.5974 17.3171C69.747 17.1806 68.8843 17.1054 68.0216 17.0964C68.8266 22.8871 67.1257 28.8785 61.9685 32.6758C57.6873 36.0286 50.5528 37.5756 45.701 33.9649C45.1359 33.4543 44.5963 32.9226 44.1033 32.3598C42.6822 37.9769 44.1344 44.5552 51.1579 45.8815C50.0055 47.9422 49.608 50.3018 50.0243 52.5782C41.22 54.8295 48.2635 65.188 54.7185 60.2109C55.8454 61.1549 57.8039 60.9021 58.7365 59.8527C58.9131 61.2502 61.3168 59.6802 61.5299 58.9037C65.1005 58.9247 68.67 58.9478 72.244 58.9709C73.936 60.5771 77.1502 60.8299 79.2108 59.5437C80.1757 60.9984 82.3384 61.5703 84.0338 60.8871C84.4446 60.7215 85.3761 61.0867 85.9657 60.871C86.593 60.6413 87.0948 60.1908 87.4645 59.6882C88.2939 58.5625 88.8179 57.0938 88.3938 55.7605C88.0429 54.6579 86.7928 54.08 86.6196 52.9985C86.5186 52.3685 86.5985 51.6692 86.724 51.0472C86.9926 49.7119 87.6444 48.4609 88.3627 47.279C90.0148 44.5602 92.0554 42.0491 93.7452 39.3494C94.7845 37.69 95.7226 35.9785 96.5076 34.2087C96.7418 33.68 98.6504 28.0769 98.5582 28.0709C96.4454 27.9354 94.4392 27.2693 92.9892 26.0202Z" fill="#FAD177"/>
<path d="M61.968 32.676C67.1252 28.8787 68.8272 22.8864 68.0211 17.0966C67.8557 17.0946 67.6914 17.0916 67.526 17.0956C66.0116 17.1257 64.6526 17.534 63.4125 16.6502C62.149 15.7503 61.011 14.6979 59.7442 13.7929C57.2672 12.0222 54.6281 10.4351 51.8613 9.0556C51.3051 8.7777 50.6911 8.4998 50.0627 8.5911C49.0346 8.74058 48.5006 9.7639 48.1975 10.6638C47.4236 12.9612 47.0228 15.361 46.9995 17.7618C46.9884 18.9627 47.0706 20.1646 47.2482 21.3544C47.2826 21.5892 48.072 24.0351 48.0809 24.019C47.1905 25.4326 46.4599 26.9485 45.786 28.2076C45.0543 29.4466 44.477 30.8702 44.0995 32.361C44.5925 32.9238 45.1331 33.4566 45.6972 33.9662C50.5523 37.5759 57.6869 36.0289 61.968 32.676Z" fill="#FFE4AB"/>
<path d="M85.496 23.6461C86.2765 24.1999 86.7828 24.8972 87.1403 25.6657C87.299 25.4179 87.4545 25.1721 87.6088 24.9403C89.6217 21.9276 91.0339 17.6808 89.1754 14.331C88.9911 13.9999 88.779 13.4833 88.3793 13.4211C88.0496 13.3699 87.3079 13.8023 87.0137 13.9347C86.1277 14.333 85.3028 14.8396 84.5611 15.4316C82.475 17.0959 81.0694 19.3924 81.0083 21.9396C81.0072 21.9948 81.0072 22.053 81.0416 22.0981C81.0871 22.1573 81.1737 22.1734 81.2514 22.1844C82.7847 22.4122 84.2491 22.7633 85.496 23.6461Z" fill="#FF6C94"/>
<path d="M55.1524 16.7769C54.8337 15.3684 54.1998 14.018 53.3094 12.8271C52.5921 11.868 51.7072 11.0113 50.6869 10.311C50.1329 9.93076 49.7854 9.697 49.3724 10.326C49.0981 10.7424 49.0415 11.2791 48.8761 11.7346C48.4597 12.8853 48.1555 14.0681 47.9679 15.267C47.5416 17.9878 47.9457 20.4498 48.4342 23.1104C49.6011 21.7891 51.0933 20.812 52.8419 20.1719C53.3904 19.9712 55.0236 19.8137 55.3589 19.4325C55.6975 19.0473 55.3023 17.5233 55.2146 17.0689C55.1957 16.9715 55.1746 16.8742 55.1524 16.7769Z" fill="#FF6C94"/>
<path d="M69.0576 36.9083C68.558 37.4501 68.0528 37.9968 67.4 38.3811C66.7494 38.7623 65.9189 38.961 65.1795 38.7372C64.7509 38.6058 64.3856 38.3429 64.0381 38.0771C63.453 37.6286 62.8768 37.1461 62.4971 36.5401C62.1174 35.9342 61.9575 35.1837 62.2373 34.5366L62.8224 34.0521C64.6521 33.7039 66.584 33.8123 68.3504 34.3671C68.9521 34.5557 69.6094 34.8697 69.7404 35.4325C69.8648 35.9723 69.4484 36.4829 69.0576 36.9083Z" fill="#FF6C94"/>
<path d="M60.6458 30.3734C60.6358 33.3952 56.2126 33.337 56.3014 30.3162C56.3114 27.2945 60.7347 27.3527 60.6458 30.3734Z" fill="#472439"/>
<path d="M76.7814 32.1752C76.7714 35.197 72.3481 35.1388 72.437 32.1171C72.4469 29.0953 76.8702 29.1545 76.7814 32.1752Z" fill="#472439"/>
<path d="M73.4807 27.0389C74.9029 26.766 76.4528 27.0951 77.5931 27.9107" stroke="#472439" stroke-width="0.75" stroke-miterlimit="10" stroke-linecap="round" stroke-linejoin="round"/>
<path d="M55.5025 26.2328C56.7183 25.1021 58.5757 24.5674 60.2911 24.8523" stroke="#472439" stroke-width="0.75" stroke-miterlimit="10" stroke-linecap="round" stroke-linejoin="round"/>
<path d="M51.0019 16.5034C52.6096 17.2458 53.8919 18.545 54.5248 20.0719" stroke="#472439" stroke-width="0.75" stroke-miterlimit="10" stroke-linecap="round" stroke-linejoin="round"/>
<path d="M50.3409 19.1882C51.0315 19.2584 51.722 19.3287 52.4126 19.3989" stroke="#472439" stroke-width="0.75" stroke-miterlimit="10" stroke-linecap="round" stroke-linejoin="round"/>
<path d="M81.6638 22.1772C83.2392 20.7656 85.3554 19.8557 87.5615 19.64" stroke="#472439" stroke-width="0.75" stroke-miterlimit="10" stroke-linecap="round" stroke-linejoin="round"/>
<path d="M49.9466 20.7185C50.7227 20.6824 51.4988 20.6472 52.2748 20.6121" stroke="#472439" stroke-width="0.75" stroke-miterlimit="10" stroke-linecap="round" stroke-linejoin="round"/>
<path d="M82.9265 22.2005C83.9613 22.2075 85.6333 21.9477 86.6681 21.9547" stroke="#472439" stroke-width="0.75" stroke-miterlimit="10" stroke-linecap="round" stroke-linejoin="round"/>
<path d="M84.4804 23.1992C85.4719 23.4329 86.4633 23.6667 87.4548 23.9005" stroke="#472439" stroke-width="0.75" stroke-miterlimit="10" stroke-linecap="round" stroke-linejoin="round"/>
<path d="M79.396 48.3391C81.3723 48.1184 83.2708 47.3639 84.7863 46.1962C85.0573 48.4685 85.6324 50.6235 86.4628 52.7825" stroke="#472439" stroke-width="0.75" stroke-miterlimit="10" stroke-linecap="round" stroke-linejoin="round"/>
<path d="M45.5516 56.8391C46.1256 54.9701 47.9042 53.5184 49.936 52.8954C51.9678 52.2724 54.2138 52.4028 56.2734 52.9485C58.0398 53.4161 59.7662 54.2257 60.8632 55.561C61.9601 56.8963 62.2865 58.8316 61.3029 60.2371" stroke="#472439" stroke-width="0.75" stroke-miterlimit="10" stroke-linecap="round" stroke-linejoin="round"/>
<path d="M72.4844 58.8725C71.8859 56.4426 73.3981 53.8211 75.7574 52.5349C78.1167 51.2488 81.1333 51.1876 83.7402 51.9942C85.3267 52.4848 86.8445 53.3195 87.7549 54.5916C88.6653 55.8637 88.8496 57.6244 87.9125 58.8815" stroke="#472439" stroke-width="0.75" stroke-miterlimit="10" stroke-linecap="round" stroke-linejoin="round"/>
<path d="M60.7183 17.5056C61.7619 17.1514 62.8899 17.0019 64.0024 17.0702" stroke="#472439" stroke-width="0.75" stroke-miterlimit="10" stroke-linecap="round" stroke-linejoin="round"/>
<path d="M76.6023 18.673C73.8444 17.7199 70.92 17.1631 67.9711 17.0296" stroke="#472439" stroke-width="0.75" stroke-miterlimit="10" stroke-linecap="round" stroke-linejoin="round"/>
<path d="M49.2069 22.56C47.0352 25.2056 45.2932 27.9173 44.8313 30.3181" stroke="#472439" stroke-width="0.75" stroke-miterlimit="10" stroke-linecap="round" stroke-linejoin="round"/>
<path d="M84.1106 46.8209C86.7286 45.1044 88.6271 42.513 89.3521 39.6648C90.0783 36.8165 89.6242 33.7356 88.1009 31.1582" stroke="#472439" stroke-width="0.75" stroke-miterlimit="10" stroke-linecap="round" stroke-linejoin="round"/>
<path d="M49.2264 45.1013C46.6084 43.3847 44.7098 40.7933 43.9848 37.9451C43.2587 35.0969 43.7128 32.0159 45.2361 29.4386" stroke="#472439" stroke-width="0.75" stroke-miterlimit="10" stroke-linecap="round" stroke-linejoin="round"/>
<path d="M86.7842 24.7384C86.8053 26.0235 87.0551 27.3067 87.5225 28.5206" stroke="#472439" stroke-width="0.75" stroke-miterlimit="10" stroke-linecap="round" stroke-linejoin="round"/>
<path d="M48.9014 58.9195C48.827 59.8013 49.431 60.6962 50.3325 61.0394" stroke="#472439" stroke-width="0.75" stroke-miterlimit="10" stroke-linecap="round" stroke-linejoin="round"/>
<path d="M54.5198 58.2791C54.8107 59.1199 54.6242 60.084 54.0324 60.7843" stroke="#472439" stroke-width="0.75" stroke-miterlimit="10" stroke-linecap="round" stroke-linejoin="round"/>
<path d="M59.2367 58.4678C59.4365 59.476 58.7804 60.5716 57.7367 60.9709" stroke="#472439" stroke-width="0.75" stroke-miterlimit="10" stroke-linecap="round" stroke-linejoin="round"/>
<path d="M74.5695 58.023C74.1687 58.7494 74.4918 59.7335 75.2656 60.1449" stroke="#472439" stroke-width="0.75" stroke-miterlimit="10" stroke-linecap="round" stroke-linejoin="round"/>
<path d="M79.6264 57.9613C79.3277 58.3817 79.2611 58.9294 79.452 59.398C79.643 59.8665 80.0871 60.2447 80.6156 60.3892" stroke="#472439" stroke-width="0.75" stroke-miterlimit="10" stroke-linecap="round" stroke-linejoin="round"/>
<path d="M85.0907 59.0487C85.0729 59.9868 84.2669 60.8656 83.2499 61.0552" stroke="#472439" stroke-width="0.75" stroke-miterlimit="10" stroke-linecap="round" stroke-linejoin="round"/>
<path d="M49.9621 45.5058C51.9827 46.21 54.281 46.2442 56.3261 45.6001" stroke="#472439" stroke-width="0.75" stroke-miterlimit="10" stroke-linecap="round" stroke-linejoin="round"/>
<path d="M69.147 19.0285C59.5743 18.4967 49.8529 22.901 44.598 30.1504C43.5877 27.3093 45.2942 23.9343 47.5502 21.7553C49.8063 19.5762 52.9072 18.273 56.0348 17.3169C58.6906 16.5053 61.4251 15.9064 64.1974 15.5281C65.562 15.3425 67.0386 15.2262 68.2466 15.8281C69.4545 16.43 70.0585 18.0924 69.147 19.0285Z" fill="#BA0087"/>
<path d="M68.1924 18.6423C72.5235 19.5542 76.9357 20.4952 80.7405 22.575C84.5454 24.6547 87.7119 28.0999 88.0749 32.1048C89.6259 28.1962 88.3669 24.2925 85.035 21.4333C81.7031 18.574 77.1722 17.1374 72.6678 16.3187C71.6664 16.1361 70.6361 15.9806 69.6268 16.1271C68.6176 16.2736 67.6206 16.7732 67.1709 17.6029C67.7405 17.8206 67.5895 18.5158 68.1924 18.6423Z" fill="#BA0087"/>
<path d="M68.5847 12.0177C69.2619 14.1687 69.4596 16.432 69.7205 18.6482C69.7571 18.9572 69.7926 19.2742 69.7027 19.5742C69.6128 19.8741 69.3674 20.1571 69.0299 20.2172C68.3948 20.3306 66.7183 19.3294 66.1465 19.0134C65.0862 18.4254 64.1769 17.5767 63.5175 16.6276C62.1962 14.7295 61.8887 12.406 62.2051 10.2159C62.3483 9.22467 62.2373 8.398 62.7325 6.8851C64.8009 7.48103 65.9711 7.88534 67.2846 9.44739C67.9196 10.2008 68.2927 11.1078 68.5847 12.0177Z" fill="#BA0087"/>
<path d="M69.5768 18.7717C68.3733 16.2575 69.7467 13.6671 71.794 11.6466C73.8413 9.62607 76.5215 8.22152 78.742 6.35749C79.0462 6.10166 80.222 9.82471 80.0788 11.3667C79.8478 13.8477 77.9848 15.8061 76.6414 16.3579C74.3609 17.2949 72.1804 19.0335 69.6024 19.1579" fill="#BA0087"/>
<path d="M69.9604 18.7237C73.2246 18.2973 76.3288 16.9278 78.7081 14.8642L69.9604 18.7237Z" fill="#BA0087"/>
<path d="M69.9604 18.7237C73.2246 18.2973 76.3288 16.9278 78.7081 14.8642" stroke="white" stroke-width="0.75" stroke-miterlimit="10" stroke-linecap="round" stroke-linejoin="round"/>
<path d="M69.2093 17.6397C70.6915 15.6211 73.3172 14.1574 75.762 13.1642L69.2093 17.6397Z" fill="#BA0087"/>
<path d="M69.2093 17.6397C70.6915 15.6211 73.3172 14.1574 75.762 13.1642" stroke="white" stroke-width="0.75" stroke-miterlimit="10" stroke-linecap="round" stroke-linejoin="round"/>
<path d="M66.8452 16.4288C66.0236 15.1547 64.3327 13.2556 65.2986 10.4956L66.8452 16.4288Z" fill="#BA0087"/>
<path d="M66.8452 16.4288C66.0236 15.1547 64.3327 13.2556 65.2986 10.4956" stroke="white" stroke-width="0.75" stroke-miterlimit="10" stroke-linecap="round" stroke-linejoin="round"/>
<path d="M66.591 16.8648C66.1558 17.6855 66.9541 18.6958 67.5425 19.2666C67.8823 19.5957 68.323 19.9809 68.7993 20.1495C70.1539 20.626 69.3045 17.7206 69.2501 17.228C69.1979 16.7565 69.2734 16.0261 69.0691 15.5837C68.4119 14.1661 66.9441 16.1997 66.591 16.8648Z" fill="#BA0087" stroke="white" stroke-width="0.75" stroke-miterlimit="10" stroke-linecap="round" stroke-linejoin="round"/>
<path d="M63.0453 17.9971C56.5115 18.582 49.9454 20.7179 45.3544 27.6092L63.0453 17.9971Z" fill="#BA0087"/>
<path d="M63.0453 17.9971C56.5115 18.582 49.9454 20.7179 45.3544 27.6092" stroke="white" stroke-width="0.75" stroke-miterlimit="10" stroke-linecap="round" stroke-linejoin="round"/>
<path d="M73.536 19.2913C78.3268 19.1097 83.1364 21.4352 85.6279 25.1372L73.536 19.2913Z" fill="#BA0087"/>
<path d="M73.536 19.2913C78.3268 19.1097 83.1364 21.4352 85.6279 25.1372" stroke="white" stroke-width="0.75" stroke-miterlimit="10" stroke-linecap="round" stroke-linejoin="round"/>
<path d="M63.714 16.9399C64.6876 18.6996 66.665 19.9748 68.8245 20.2336L63.714 16.9399Z" fill="#BA0087"/>
<path d="M63.714 16.9399C64.6876 18.6996 66.665 19.9748 68.8245 20.2336" stroke="white" stroke-width="0.75" stroke-miterlimit="10" stroke-linecap="round" stroke-linejoin="round"/>
</g>
</svg>
