<svg width="82" height="85" viewBox="0 0 82 85" fill="none" xmlns="http://www.w3.org/2000/svg">
<path d="M56.7087 48.1571C57.048 48.2686 57.4214 48.0965 57.5523 47.7596C57.608 47.6141 58.9292 44.184 57.7317 41.6387C57.2153 40.5405 56.3232 39.7745 55.0797 39.3648C54.7233 39.2485 54.3403 39.44 54.2215 39.7963C54.1052 40.1527 54.2967 40.5357 54.653 40.6545C55.5402 40.9478 56.1438 41.4568 56.5002 42.2132C57.448 44.2252 56.299 47.2335 56.2869 47.265C56.1511 47.6141 56.3232 48.0068 56.6723 48.145C56.6844 48.1499 56.6965 48.1547 56.7062 48.1571H56.7087Z" fill="#05C18F" stroke="#402108" stroke-width="0.451322" stroke-linecap="round" stroke-linejoin="round"/>
<path d="M23.3913 45.8388C22.8677 45.8388 22.3513 45.6085 21.9974 45.1698L8.35685 28.0797C7.74355 27.3112 7.8696 26.1913 8.63805 25.5756C9.4065 24.9623 10.5264 25.0883 11.1422 25.8568L24.7827 42.9468C25.396 43.7153 25.27 44.8352 24.5015 45.451C24.1743 45.7128 23.7815 45.8388 23.3913 45.8388Z" fill="#FF847C" stroke="#402108" stroke-width="0.451322" stroke-linecap="round" stroke-linejoin="round"/>
<path d="M24.2365 80.5143C23.9747 80.5143 23.708 80.4562 23.4583 80.335C22.5735 79.9035 22.2075 78.8368 22.6365 77.9545L29.9938 62.857C30.4252 61.9722 31.4894 61.6062 32.3742 62.0352C33.259 62.4667 33.6251 63.5334 33.196 64.4157L25.8388 79.5132C25.5309 80.1459 24.8958 80.5143 24.2365 80.5143Z" fill="#FF847C" stroke="#402108" stroke-width="0.451322" stroke-linecap="round" stroke-linejoin="round"/>
<path d="M50.7689 80.5132C50.1095 80.5132 49.4744 80.1447 49.1666 79.512L41.8093 64.4146C41.3779 63.5298 41.7463 62.4631 42.6311 62.0341C43.5159 61.6026 44.5825 61.971 45.0116 62.8558L52.3688 77.9533C52.8003 78.8381 52.4319 79.9047 51.547 80.3338C51.2949 80.4574 51.0307 80.5132 50.7689 80.5132Z" fill="#FF847C" stroke="#402108" stroke-width="0.451322" stroke-linecap="round" stroke-linejoin="round"/>
<path d="M37.7075 9.28125C29.1407 9.28125 22.198 16.2264 22.198 24.7908V54.3627C22.198 62.9295 29.1431 69.8722 37.7075 69.8722C46.272 69.8722 53.2171 62.9271 53.2171 54.3627V24.7908C53.2171 16.2239 46.272 9.28125 37.7075 9.28125Z" fill="white"/>
<mask id="mask0_2_2590" style="mask-type:luminance" maskUnits="userSpaceOnUse" x="22" y="9" width="32" height="61">
<path d="M37.7092 9.28229C29.1423 9.28229 22.1996 16.2274 22.1996 24.7918V54.3637C22.1996 62.9306 29.1448 69.8732 37.7092 69.8732C46.2736 69.8732 53.2187 62.9281 53.2187 54.3637V24.7918C53.2187 16.225 46.2736 9.28229 37.7092 9.28229Z" fill="white"/>
</mask>
<g mask="url(#mask0_2_2590)">
<path d="M40.7413 63.4149C43.6284 62.1422 46.1107 60.072 48.2076 57.7109C50.9566 54.6177 53.1092 50.9646 54.2655 46.9914C55.6036 42.3904 55.5794 37.518 55.5454 32.7255C57.8823 36.5701 58.9319 41.1057 59.0628 45.6024C59.1937 50.0992 58.4423 54.5838 57.3829 58.9569C56.2484 63.633 54.5515 68.5298 50.7166 71.4339C48.833 72.8592 46.5495 73.6956 44.2224 74.1077C39.4177 74.9537 34.315 73.9889 30.1479 71.446C27.7698 69.9939 25.7093 68.0352 24.1118 65.7566C23.0307 64.2124 21.5786 60.5762 24.7106 61.9822C30.017 64.3651 35.0495 65.9238 40.7437 63.4149H40.7413Z" fill="#FFE8C6"/>
</g>
<path d="M37.7075 9.28125C29.1407 9.28125 22.198 16.2264 22.198 24.7908V54.3627C22.198 62.9295 29.1431 69.8722 37.7075 69.8722C46.272 69.8722 53.2171 62.9271 53.2171 54.3627V24.7908C53.2171 16.2239 46.272 9.28125 37.7075 9.28125Z" stroke="#402108" stroke-width="0.451322" stroke-linecap="round" stroke-linejoin="round"/>
<path d="M36.8815 44.2515C42.9588 44.2515 48.59 43.4297 53.2177 42.0286V24.7906C53.2177 16.2238 46.2726 9.2811 37.7082 9.2811C29.1437 9.2811 22.1986 16.2262 22.1986 24.7906V42.4916C26.4893 43.6091 31.5121 44.2515 36.8839 44.2515H36.8815Z" fill="#DB3535" stroke="#402108" stroke-width="0.451322" stroke-linecap="round" stroke-linejoin="round"/>
<path d="M36.8815 40.4691C42.9588 40.4691 48.59 39.6473 53.2177 38.2462V24.7923C53.2177 16.2255 46.2726 9.28278 37.7082 9.28278C29.1437 9.28278 22.1986 16.2279 22.1986 24.7923V38.7092C26.4893 39.8267 31.5121 40.4691 36.8839 40.4691H36.8815Z" fill="#FF847C" stroke="#402108" stroke-width="0.451322" stroke-linecap="round" stroke-linejoin="round"/>
<path d="M50.204 15.6043L49.7483 15.1656C49.7483 15.1656 49.7483 15.1631 49.7458 15.1631C49.741 15.1583 49.7313 15.1486 49.7167 15.134C49.7119 15.1292 49.7022 15.1195 49.6925 15.1098C49.6828 15.0977 49.6707 15.088 49.6586 15.0759L49.1204 14.5183C49.1083 14.5038 49.0937 14.4917 49.0792 14.4771C48.0029 13.4275 45.7072 11.4179 42.7838 10.1282C44.3691 10.6761 45.8381 11.4736 47.1423 12.4772C47.7774 12.9645 48.3762 13.5002 48.9289 14.0796L48.9386 14.0893C49.181 14.3438 49.4162 14.6056 49.644 14.8795C49.8379 15.1147 50.027 15.3571 50.2088 15.6043H50.204Z" fill="#E0504D" stroke="#402108" stroke-width="0.451322" stroke-linecap="round" stroke-linejoin="round"/>
<path d="M52.1077 9.25625C52.1537 11.4307 50.4738 15.8693 50.4738 15.8693L50.2023 15.605L49.7466 15.1663C49.7466 15.1663 49.7466 15.1638 49.7441 15.1638C49.7393 15.159 49.7296 15.1493 49.7151 15.1347C49.7151 15.1347 49.7175 15.1347 49.7151 15.1323L49.6908 15.1105C49.6908 15.1105 49.669 15.0887 49.6569 15.0766L49.1187 14.519C49.1066 14.5045 49.0921 14.4924 49.0775 14.4778L47.1382 12.4779L46.84 12.1676C46.84 12.1676 46.8376 12.1652 46.8352 12.1628L46.7261 11.8961L46.3819 11.0622L42.2536 1.06271H42.256C42.2851 1.06756 42.5518 1.11604 42.9857 1.22998C43.0002 1.22998 43.0123 1.23483 43.0269 1.2421C44.4329 1.61056 47.5091 2.63355 50.1926 4.96798C50.1926 4.96798 52.0664 7.08181 52.1101 9.25867L52.1077 9.25625Z" fill="#9A9AF5" stroke="#402108" stroke-width="0.451322" stroke-linecap="round" stroke-linejoin="round"/>
<path d="M35.0541 7.47676C35.0541 7.47676 35.8153 3.66604 36.5692 2.86123C37.3231 2.05642 41.1483 1.06253 42.2489 1.05769C43.3494 1.05284 48.2292 3.6321 49.7734 5.70715C49.7734 5.70715 49.3055 9.66332 47.8171 12.8777C47.8171 12.8777 43.8246 9.81847 40.7265 8.75185C37.6285 7.68524 35.0541 7.47676 35.0541 7.47676Z" fill="#FFD148" stroke="#402108" stroke-width="0.451322" stroke-linecap="round" stroke-linejoin="round"/>
<path d="M49.7125 15.1321C49.7125 15.1321 49.7149 15.1321 49.7125 15.1297C49.6398 15.0472 49.4337 14.8266 49.1162 14.5188C49.1041 14.5042 49.0895 14.4921 49.075 14.4776C47.9987 13.4279 45.703 11.4183 42.7795 10.1287C41.4947 9.56387 40.0912 9.13723 38.6124 8.99421C37.0949 8.84633 36.1641 9.08148 35.6065 9.42085C34.7484 9.53479 33.9121 9.72387 33.1024 9.97355C32.0503 9.31661 30.8262 8.39302 30.6613 7.54943C30.608 7.2949 30.6565 7.04521 30.8359 6.81492C31.231 6.3107 33.0467 6.29373 35.2405 6.60887C37.9458 6.98946 41.2378 7.86941 43.1601 8.94088C44.3697 9.61478 45.4485 10.3299 46.3745 11.0596C46.9781 11.5371 47.5187 12.0244 47.9793 12.5092C48.7501 13.3164 49.3125 14.114 49.6325 14.88C49.6713 14.9769 49.7077 15.0715 49.7392 15.1636C49.7343 15.1588 49.7246 15.1491 49.7101 15.1345L49.7125 15.1321Z" fill="#04A577" stroke="#402108" stroke-width="0.451322" stroke-linecap="round" stroke-linejoin="round"/>
<path d="M49.7428 15.164C49.7428 15.164 49.7283 15.1495 49.7137 15.1349C49.7089 15.1301 49.6992 15.1204 49.6895 15.1107C49.6798 15.0986 49.6677 15.0889 49.6555 15.0768L49.1174 14.5192C49.1053 14.5047 49.0907 14.4926 49.0762 14.478C47.9999 13.4284 45.7042 11.4188 42.7807 10.1291C41.1929 9.57885 39.4839 9.27826 37.707 9.27826C36.9968 9.27826 36.2938 9.32675 35.6077 9.42129C34.7496 9.53522 33.9133 9.7243 33.1036 9.97399C33.0261 9.9958 32.9485 10.0225 32.8709 10.0491C31.7752 9.25645 30.6141 8.24801 30.6625 7.54744C30.665 7.46017 30.6916 7.37775 30.7377 7.3026C31.0722 6.7499 32.9121 6.73051 35.1423 7.05777C37.8307 7.45048 41.0911 8.34498 42.9916 9.40432C44.5091 10.2503 45.7212 11.0697 46.7199 11.8939C47.1151 12.2211 47.4787 12.546 47.8156 12.8757C48.2205 13.2708 48.5865 13.6708 48.9235 14.078L48.9332 14.0877C49.2192 14.4392 49.4907 14.798 49.7428 15.1616V15.164Z" fill="#05C18F" stroke="#402108" stroke-width="0.451322" stroke-linecap="round" stroke-linejoin="round"/>
<path d="M8.20363 81.1512C8.16 81.2676 7.27034 82.9135 10.3514 83.8177C13.43 84.7244 18.5183 84.7074 20.1812 84.3607C21.8442 84.0141 23.8029 84.4432 23.8029 84.4432L24.1495 81.0082L8.20363 81.1488V81.1512Z" fill="#FF847C" stroke="#402108" stroke-width="0.451322" stroke-linecap="round" stroke-linejoin="round"/>
<path d="M21.9153 74.8671C21.4305 75.2743 20.919 75.6501 20.3687 75.9628C18.6088 76.9591 15.089 78.8838 13.5085 79.2523C11.3534 79.7541 8.46871 79.6499 8.2166 81.0292C7.96449 82.4085 11.6879 82.8061 13.1933 82.7431C14.6987 82.68 21.685 81.7807 23.1056 81.8655C24.5285 81.9504 29.0447 82.011 29.4834 81.8873C29.9222 81.7613 29.818 79.1675 29.6289 78.479C29.4398 77.7881 29.1925 76.3361 28.458 75.8658C28.3199 75.7785 27.4811 75.4634 27.1369 76.0719C26.9745 76.3603 27.5369 77.8124 26.4921 77.936C25.4473 78.0621 23.794 77.5797 23.731 75.8876C23.731 75.8876 24.2691 74.5422 23.9104 74.2586C23.6122 74.0235 22.7565 74.1617 21.9105 74.8695L21.9153 74.8671Z" fill="#9A9AF5" stroke="#402108" stroke-width="0.451322" stroke-linecap="round" stroke-linejoin="round"/>
<path d="M15.9958 80.1461C15.6177 79.9958 14.9559 80.3158 13.9717 80.1461C13.4941 80.0637 13.3996 79.6589 13.4311 79.2662C11.2858 79.7486 8.46167 79.6637 8.21441 81.0285C7.9623 82.4078 11.6857 82.8054 13.1911 82.7424C13.9765 82.7084 16.2552 82.449 18.4563 82.2187C17.5885 81.4333 16.2479 80.2455 15.9958 80.1437V80.1461Z" fill="#E0504D" stroke="#402108" stroke-width="0.451322" stroke-linecap="round" stroke-linejoin="round"/>
<path d="M16.1726 79.8743C16.1339 79.8743 16.0927 79.867 16.0539 79.8525L14.2358 79.1204C14.0734 79.0549 13.9958 78.8707 14.0612 78.7107C14.1267 78.5483 14.3109 78.4707 14.4709 78.5362L16.289 79.2683C16.4514 79.3337 16.529 79.518 16.4635 79.6779C16.4151 79.8016 16.2963 79.8767 16.1702 79.8767L16.1726 79.8743Z" fill="white" stroke="#402108" stroke-width="0.451322" stroke-linecap="round" stroke-linejoin="round"/>
<path d="M18.0062 79.0221C17.9674 79.0221 17.9262 79.0148 17.8874 79.0003L16.0693 78.2682C15.9069 78.2028 15.8293 78.0185 15.8948 77.8585C15.9602 77.6961 16.1445 77.6185 16.3045 77.684L18.1226 78.4161C18.285 78.4815 18.3626 78.6658 18.2971 78.8258C18.2486 78.9494 18.1298 79.0245 18.0038 79.0245L18.0062 79.0221Z" fill="white" stroke="#402108" stroke-width="0.451322" stroke-linecap="round" stroke-linejoin="round"/>
<path d="M19.8398 78.1761C19.801 78.1761 19.7598 78.1688 19.721 78.1543L17.903 77.4222C17.7405 77.3568 17.663 77.1725 17.7284 77.0125C17.7939 76.8501 17.9781 76.7725 18.1381 76.838L19.9562 77.5701C20.1186 77.6355 20.1962 77.8198 20.1307 77.9797C20.0822 78.1034 19.9635 78.1785 19.8374 78.1785L19.8398 78.1761Z" fill="white" stroke="#402108" stroke-width="0.451322" stroke-linecap="round" stroke-linejoin="round"/>
<path d="M21.5318 77.2346C21.4931 77.2346 21.4518 77.2273 21.4131 77.2128L19.595 76.4807C19.4325 76.4152 19.355 76.231 19.4204 76.071C19.4859 75.9086 19.6701 75.831 19.8301 75.8965L21.6482 76.6286C21.8106 76.694 21.8882 76.8783 21.8227 77.0382C21.7743 77.1619 21.6555 77.237 21.5294 77.237L21.5318 77.2346Z" fill="white" stroke="#402108" stroke-width="0.451322" stroke-linecap="round" stroke-linejoin="round"/>
<path d="M23.1072 81.8648C24.5302 81.9497 29.0463 82.0103 29.4851 81.8867C29.9238 81.7606 29.8196 79.1668 29.6305 78.4783C29.4414 77.7875 29.1942 76.3354 28.4597 75.8651C28.3215 75.7779 27.4827 75.4627 27.1385 76.0712C26.9761 76.3597 27.5385 77.8117 26.4937 77.9353C25.4974 78.0541 23.9508 77.6226 23.7544 76.1172C23.1048 76.4324 21.803 77.0869 21.8491 77.2469C21.9097 77.4602 22.906 79.0941 22.6902 79.1959C22.4769 79.2977 18.7098 80.8103 18.6783 81.0115C18.6614 81.1231 19.1801 81.6564 19.6431 82.1024C21.1994 81.9473 22.5618 81.8357 23.1072 81.8673V81.8648Z" fill="#FFD148" stroke="#402108" stroke-width="0.451322" stroke-linecap="round" stroke-linejoin="round"/>
<path d="M29.6273 78.4783C29.4383 77.7875 29.191 76.3354 28.4565 75.8651C28.3183 75.7779 27.4796 75.4627 27.1353 76.0712C26.9729 76.3597 27.5353 77.8117 26.4905 77.9353C26.4614 77.9378 26.4323 77.9426 26.4033 77.945C26.5293 78.3329 26.7426 78.6214 27.0893 78.7111C27.8577 78.9098 29.0213 78.922 29.2831 81.1012L29.7534 81.1303C29.8431 80.2746 29.7534 78.9462 29.6273 78.4808V78.4783Z" fill="#9A9AF5" stroke="#402108" stroke-width="0.451322" stroke-linecap="round" stroke-linejoin="round"/>
<path d="M29.7923 80.6801C29.7923 80.6801 28.5802 81.1334 27.2179 81.1577C26.4906 81.1698 25.6664 81.1262 25.0531 81.0825C24.4592 81.0413 23.8702 81.2183 23.3975 81.5843L19.9431 84.2484C19.9431 84.2484 19.8195 84.4327 20.2631 84.4205C20.7043 84.4084 22.8011 84.4181 23.8799 84.5781C24.9586 84.7381 29.4359 84.9829 30.3062 83.8194C31.1765 82.6534 29.7899 80.6801 29.7899 80.6801H29.7923Z" fill="#E0504D" stroke="#402108" stroke-width="0.451322" stroke-linecap="round" stroke-linejoin="round"/>
<path d="M66.8041 81.1512C66.8477 81.2676 67.7374 82.9135 64.6563 83.8177C61.5777 84.7244 56.4895 84.7074 54.8265 84.3607C53.1636 84.0141 51.2049 84.4432 51.2049 84.4432L50.8582 81.0082L66.8041 81.1488V81.1512Z" fill="#FF847C" stroke="#402108" stroke-width="0.451322" stroke-linecap="round" stroke-linejoin="round"/>
<path d="M53.0947 74.8671C53.5795 75.2743 54.091 75.6501 54.6413 75.9628C56.4012 76.9591 59.921 78.8838 61.5015 79.2523C63.6566 79.7541 66.5413 79.6499 66.7934 81.0292C67.0455 82.4085 63.3221 82.8061 61.8167 82.7431C60.3113 82.68 53.325 81.7807 51.9044 81.8655C50.4815 81.9504 45.9653 82.011 45.5266 81.8873C45.0878 81.7613 45.192 79.1675 45.3811 78.479C45.5702 77.7881 45.8175 76.3361 46.552 75.8658C46.6901 75.7785 47.5289 75.4634 47.8731 76.0719C48.0355 76.3603 47.4731 77.8124 48.5179 77.936C49.5627 78.0621 51.216 77.5797 51.279 75.8876C51.279 75.8876 50.7409 74.5422 51.0996 74.2586C51.3978 74.0235 52.2535 74.1617 53.0995 74.8695L53.0947 74.8671Z" fill="#9A9AF5" stroke="#402108" stroke-width="0.451322" stroke-linecap="round" stroke-linejoin="round"/>
<path d="M59.0082 80.1461C59.3864 79.9958 60.0482 80.3158 61.0324 80.1461C61.5099 80.0637 61.6045 79.6589 61.5729 79.2662C63.7183 79.7486 66.5424 79.6637 66.7896 81.0285C67.0418 82.4078 63.3183 82.8054 61.8129 82.7424C61.0275 82.7084 58.7488 82.449 56.5477 82.2187C57.4156 81.4333 58.7561 80.2455 59.0082 80.1437V80.1461Z" fill="#E0504D" stroke="#402108" stroke-width="0.451322" stroke-linecap="round" stroke-linejoin="round"/>
<path d="M58.8372 79.8749C58.876 79.8749 58.9172 79.8677 58.956 79.8531L60.7741 79.121C60.9365 79.0556 61.014 78.8714 60.9486 78.7114C60.8831 78.5489 60.6989 78.4714 60.5389 78.5368L58.7208 79.2689C58.5584 79.3344 58.4808 79.5186 58.5463 79.6786C58.5948 79.8022 58.7136 79.8774 58.8396 79.8774L58.8372 79.8749Z" fill="white" stroke="#402108" stroke-width="0.451322" stroke-linecap="round" stroke-linejoin="round"/>
<path d="M57.0036 79.0228C57.0424 79.0228 57.0836 79.0155 57.1223 79.0009L58.9404 78.2689C59.1029 78.2034 59.1804 78.0192 59.115 77.8592C59.0495 77.6968 58.8653 77.6192 58.7053 77.6846L56.8872 78.4167C56.7248 78.4822 56.6472 78.6664 56.7127 78.8264C56.7612 78.95 56.8799 79.0252 57.006 79.0252L57.0036 79.0228Z" fill="white" stroke="#402108" stroke-width="0.451322" stroke-linecap="round" stroke-linejoin="round"/>
<path d="M55.1655 78.1762C55.2043 78.1762 55.2455 78.1689 55.2843 78.1544L57.1024 77.4223C57.2648 77.3568 57.3424 77.1726 57.2769 77.0126C57.2114 76.8502 57.0272 76.7726 56.8672 76.8381L55.0491 77.5701C54.8867 77.6356 54.8091 77.8198 54.8746 77.9798C54.9231 78.1035 55.0419 78.1786 55.1679 78.1786L55.1655 78.1762Z" fill="white" stroke="#402108" stroke-width="0.451322" stroke-linecap="round" stroke-linejoin="round"/>
<path d="M53.4733 77.235C53.5121 77.235 53.5533 77.2278 53.5921 77.2132L55.4102 76.4811C55.5726 76.4157 55.6502 76.2314 55.5847 76.0714C55.5192 75.909 55.335 75.8315 55.175 75.8969L53.3569 76.629C53.1945 76.6944 53.1169 76.8787 53.1824 77.0387C53.2309 77.1623 53.3497 77.2374 53.4757 77.2374L53.4733 77.235Z" fill="white" stroke="#402108" stroke-width="0.451322" stroke-linecap="round" stroke-linejoin="round"/>
<path d="M51.9022 81.8648C50.4792 81.9497 45.9631 82.0103 45.5243 81.8867C45.0855 81.7606 45.1898 79.1668 45.3789 78.4783C45.5679 77.7875 45.8152 76.3354 46.5497 75.8651C46.6879 75.7779 47.5266 75.4627 47.8709 76.0712C48.0333 76.3597 47.4709 77.8117 48.5157 77.9353C49.512 78.0541 51.0586 77.6226 51.2549 76.1172C51.9046 76.4324 53.2064 77.0869 53.1603 77.2469C53.0997 77.4602 52.1034 79.0941 52.3191 79.1959C52.5324 79.2977 56.2995 80.8103 56.331 81.0115C56.348 81.1231 55.8292 81.6564 55.3662 82.1024C53.81 81.9473 52.4476 81.8357 51.9022 81.8673V81.8648Z" fill="#FFD148" stroke="#402108" stroke-width="0.451322" stroke-linecap="round" stroke-linejoin="round"/>
<path d="M45.3782 78.4783C45.5673 77.7875 45.8146 76.3354 46.5491 75.8651C46.6873 75.7779 47.526 75.4627 47.8702 76.0712C48.0326 76.3597 47.4702 77.8117 48.515 77.9353C48.5441 77.9378 48.5732 77.9426 48.6023 77.945C48.4763 78.3329 48.2629 78.6214 47.9163 78.7111C47.1478 78.9098 45.9843 78.922 45.7225 81.1012L45.2522 81.1303C45.1625 80.2746 45.2522 78.9462 45.3782 78.4808V78.4783Z" fill="#9A9AF5" stroke="#402108" stroke-width="0.451322" stroke-linecap="round" stroke-linejoin="round"/>
<path d="M45.2146 80.6801C45.2146 80.6801 46.4266 81.1334 47.789 81.1577C48.5162 81.1698 49.3404 81.1262 49.9537 81.0825C50.5477 81.0413 51.1367 81.2183 51.6094 81.5843L55.0638 84.2484C55.0638 84.2484 55.1874 84.4327 54.7438 84.4205C54.3026 84.4084 52.2058 84.4181 51.127 84.5781C50.0483 84.7381 45.5709 84.9829 44.7007 83.8194C43.8304 82.6534 45.217 80.6801 45.217 80.6801H45.2146Z" fill="#E0504D" stroke="#402108" stroke-width="0.451322" stroke-linecap="round" stroke-linejoin="round"/>
<path d="M7.01534 14.7212C7.01534 14.7212 7.16079 11.8171 6.30508 7.58462C5.44936 3.34967 5.47845 3.53633 5.47845 3.53633C5.47845 3.53633 9.37644 1.37159 10.9012 6.22711C12.426 11.0851 11.2818 16.2024 11.2818 16.2024L7.01292 14.7212H7.01534Z" fill="#FFD148" stroke="#402108" stroke-width="0.451322" stroke-linecap="round" stroke-linejoin="round"/>
<path d="M14.8217 25.8724C14.8217 25.8724 16.4435 28.6238 12.2546 30.8346C8.06811 33.0454 6.38577 30.2067 6.33002 29.6468L14.8217 25.8724Z" fill="#FFD148" stroke="#402108" stroke-width="0.451322" stroke-linecap="round" stroke-linejoin="round"/>
<path d="M16.6118 23.7207C16.6118 23.7207 17.3633 26.8285 13.1332 27.1194C13.1332 27.1194 12.3987 30.3119 7.83406 30.3919C3.26944 30.4719 1.93374 25.0928 1.22105 22.4675C0.508358 19.8421 1.47073 17.1392 4.8136 16.6859C4.8136 16.6859 4.26575 13.92 7.70558 14.0921C11.1478 14.2642 12.7308 16.2278 12.7308 16.2278C12.7308 16.2278 14.1077 14.96 15.8628 15.6217C17.6178 16.2835 19.688 21.8105 16.6118 23.7207Z" fill="#FFD148" stroke="#402108" stroke-width="0.451322" stroke-linecap="round" stroke-linejoin="round"/>
<path d="M12.7309 16.2281C12.7309 16.2281 10.3601 18.628 9.40014 19.4425C8.44018 20.2594 9.60619 23.8617 12.7745 22.7708C15.0653 21.983 15.7707 20.32 15.8847 19.028" fill="#FFD148"/>
<path d="M12.7309 16.2281C12.7309 16.2281 10.3601 18.628 9.40014 19.4425C8.44018 20.2594 9.60619 23.8617 12.7745 22.7708C15.0653 21.983 15.7707 20.32 15.8847 19.028" stroke="#402108" stroke-width="0.451322" stroke-linecap="round" stroke-linejoin="round"/>
<path d="M16.8939 20.3542C16.8939 20.3542 16.2466 21.3117 15.2867 20.8754" stroke="#402108" stroke-width="0.451322" stroke-linecap="round" stroke-linejoin="round"/>
<path d="M12.6242 22.8586C12.5805 22.8901 11.9309 23.707 12.6605 25.4063" stroke="#402108" stroke-width="0.451322" stroke-linecap="round" stroke-linejoin="round"/>
<path d="M4.80872 16.6867C4.80872 16.6867 8.27764 16.3328 10.1612 18.7472" stroke="#402108" stroke-width="0.451322" stroke-linecap="round" stroke-linejoin="round"/>
<path d="M12.3323 22.9055C12.3323 22.9055 12.8463 24.726 10.5288 25.1575C8.20891 25.5866 5.49632 24.0618 5.21997 20.525" fill="#FFD148"/>
<path d="M12.3323 22.9055C12.3323 22.9055 12.8463 24.726 10.5288 25.1575C8.20891 25.5866 5.49632 24.0618 5.21997 20.525" stroke="#402108" stroke-width="0.451322" stroke-linecap="round" stroke-linejoin="round"/>
<path d="M4.05371 21.7917C4.05371 21.7917 4.13128 23.0377 6.02937 23.1299" stroke="#402108" stroke-width="0.451322" stroke-linecap="round" stroke-linejoin="round"/>
<path d="M57.0479 64.2124L40.7214 58.826L48.8156 44.0121L59.3605 47.4908L57.0479 64.2124Z" fill="#84D1C2" stroke="#402108" stroke-width="0.451322" stroke-linecap="round" stroke-linejoin="round"/>
<path d="M54.3762 63.3321L38.0497 57.9433L46.1438 43.1319L56.6888 46.6105L54.3762 63.3321Z" fill="#A2D9CE" stroke="#402108" stroke-width="0.451322" stroke-linecap="round" stroke-linejoin="round"/>
<path d="M54.1764 53.2577L51.5753 52.3995L52.4334 49.7985C52.574 49.3742 52.3437 48.9161 51.9195 48.7755L51.1753 48.5306C50.7511 48.3901 50.2929 48.6203 50.1523 49.0446L49.2942 51.6456L46.6931 50.7875C46.2689 50.6469 45.8107 50.8772 45.6701 51.3014L45.4253 52.0456C45.2847 52.4699 45.515 52.928 45.9392 53.0686L48.5403 53.9268L47.6822 56.5278C47.5416 56.9521 47.7719 57.4102 48.1961 57.5508L48.9403 57.7956C49.3645 57.9362 49.8227 57.706 49.9633 57.2817L50.8214 54.6806L53.4225 55.5388C53.8467 55.6794 54.3049 55.4491 54.4455 55.0249L54.6903 54.2807C54.8309 53.8564 54.6006 53.3983 54.1764 53.2577Z" fill="white" stroke="#402108" stroke-width="0.451322" stroke-linecap="round" stroke-linejoin="round"/>
<path d="M64.1839 54.152C63.8082 54.4502 63.3113 54.5957 62.7998 54.5157C61.8277 54.3629 61.1659 53.4515 61.3186 52.4794C61.818 49.3062 62.3198 45.784 62.5234 43.9077C60.5114 43.8229 56.4752 43.9077 53.0112 44.0725C52.0294 44.1186 51.1955 43.3598 51.147 42.3781C51.101 41.3963 51.8597 40.56 52.8415 40.5139C52.8706 40.5139 55.7068 40.3782 58.5333 40.3297C64.5282 40.2255 65.5827 40.4412 66.0602 41.869C66.2129 42.3272 66.4238 42.955 64.836 53.0345C64.7633 53.4927 64.5209 53.8854 64.1839 54.152Z" fill="#FF847C"/>
<path d="M63.6603 44.0168H63.6628M64.1839 54.152C63.8082 54.4502 63.3113 54.5957 62.7998 54.5157C61.8277 54.3629 61.1659 53.4515 61.3186 52.4794C61.818 49.3062 62.3198 45.784 62.5234 43.9077C60.5114 43.8229 56.4752 43.9077 53.0112 44.0725C52.0294 44.1186 51.1955 43.3598 51.147 42.3781C51.101 41.3963 51.8597 40.56 52.8415 40.5139C52.8706 40.5139 55.7068 40.3782 58.5333 40.3297C64.5282 40.2255 65.5827 40.4412 66.0602 41.869C66.2129 42.3272 66.4238 42.955 64.836 53.0345C64.7633 53.4927 64.5209 53.8854 64.1839 54.152Z" stroke="#402108" stroke-width="0.451322" stroke-linecap="round" stroke-linejoin="round"/>
<path d="M54.6026 40.6388C53.7153 40.3455 52.9275 40.3964 52.1906 40.7916C50.2295 41.8436 49.3641 44.9465 49.3568 44.978C49.2574 45.3392 48.8865 45.5525 48.5229 45.4556C48.5108 45.4532 48.4986 45.4483 48.4865 45.4459C48.1471 45.3344 47.9508 44.9756 48.0453 44.6241C48.0865 44.4738 49.0659 40.9322 51.5433 39.5989C52.6124 39.0244 53.7832 38.9395 55.0268 39.3492" fill="#05C18F"/>
<path d="M54.6026 40.6388C53.7153 40.3455 52.9275 40.3964 52.1906 40.7916C50.2295 41.8436 49.3641 44.9465 49.3568 44.978C49.2574 45.3392 48.8865 45.5525 48.5229 45.4556C48.5108 45.4532 48.4986 45.4483 48.4865 45.4459C48.1471 45.3344 47.9508 44.9756 48.0453 44.6241C48.0865 44.4738 49.0659 40.9322 51.5433 39.5989C52.6124 39.0244 53.7832 38.9395 55.0268 39.3492" stroke="#402108" stroke-width="0.451322" stroke-linecap="round" stroke-linejoin="round"/>
<path d="M58.3938 54.0859C58.3938 54.0859 58.0301 51.2448 61.9887 50.1249C65.9498 49.0049 67.8139 51.8799 67.0624 53.1259L58.3913 54.0859H58.3938Z" fill="#FFD148" stroke="#402108" stroke-width="0.451322" stroke-linecap="round" stroke-linejoin="round"/>
<path d="M62.8062 51.7953C62.8062 51.7953 59.9506 51.8365 57.3689 54.6146C54.7872 57.3926 54.7678 61.0433 56.6392 63.2251C58.5106 65.4068 61.2741 66.6455 63.0462 65.448C63.0462 65.448 65.3782 67.3436 67.4338 64.4759C67.4338 64.4759 70.9197 64.7353 71.3827 61.2955C71.8457 57.8532 69.1622 56.8957 69.1622 56.8957C69.1622 56.8957 69.3562 51.4535 62.8062 51.7929V51.7953Z" fill="#FFD148" stroke="#402108" stroke-width="0.451322" stroke-linecap="round" stroke-linejoin="round"/>
<path d="M60.7983 63.1224C60.7983 63.1224 61.5498 64.6472 63.0504 65.4495" stroke="#402108" stroke-width="0.451322" stroke-linecap="round" stroke-linejoin="round"/>
<path d="M64.7059 62.7185C64.7059 62.7185 65.8719 64.3911 67.4331 64.4784" stroke="#402108" stroke-width="0.451322" stroke-linecap="round" stroke-linejoin="round"/>
<path d="M69.163 56.8981C69.163 56.8981 69.3254 59.8507 67.2092 61.1112" stroke="#402108" stroke-width="0.451322" stroke-linecap="round" stroke-linejoin="round"/>
<path d="M68.7113 61.6616C68.7113 61.6616 69.487 60.3695 68.6967 59.3659" stroke="#402108" stroke-width="0.451322" stroke-linecap="round" stroke-linejoin="round"/>
<path d="M33.7412 31.7764C33.4503 34.2854 31.1789 36.0817 28.6699 35.7884C26.161 35.4975 24.3647 33.2261 24.658 30.7171C24.9513 28.2081 27.2203 26.4119 29.7293 26.7052C32.2383 26.9961 34.0345 29.2675 33.7412 31.7764Z" fill="white"/>
<path d="M28.7215 35.3501C27.4561 35.2022 26.3434 34.698 25.5435 33.9902C26.2707 34.9574 27.3737 35.6386 28.6706 35.7889C29.9675 35.9392 31.1989 35.5319 32.1274 34.7562C31.1844 35.2604 29.9869 35.498 28.7215 35.3501Z" fill="#402108"/>
<path d="M29.6774 27.144C28.412 26.9961 27.2145 27.2312 26.2715 27.7379C27.1999 26.9622 28.4314 26.5549 29.7283 26.7052C31.0252 26.8555 32.1306 27.5367 32.8554 28.5039C32.053 27.7961 30.9428 27.2918 29.6774 27.144Z" fill="#402108"/>
<path d="M29.8677 35.0967C31.8438 35.0967 33.4457 33.4948 33.4457 31.5187C33.4457 29.5427 31.8438 27.9407 29.8677 27.9407C27.8916 27.9407 26.2897 29.5427 26.2897 31.5187C26.2897 33.4948 27.8916 35.0967 29.8677 35.0967Z" fill="#402108"/>
<path d="M27.7756 29.8875C27.7756 30.3408 27.4096 30.7069 26.9563 30.7069C26.5029 30.7069 26.1369 30.3408 26.1369 29.8875C26.1369 29.4342 26.5029 29.0682 26.9563 29.0682C27.4096 29.0682 27.7756 29.4342 27.7756 29.8875Z" fill="white"/>
<path d="M40.973 31.7762C41.2639 34.2852 43.5353 36.0814 46.0442 35.7881C48.5532 35.4972 50.3495 33.2258 50.0562 30.7169C49.7628 28.2079 47.4939 26.4116 44.9849 26.7049C42.4759 26.9982 40.6796 29.2672 40.973 31.7762Z" fill="white"/>
<path d="M45.9921 35.3496C47.2575 35.2017 48.3702 34.6975 49.1702 33.9897C48.4429 34.9569 47.34 35.6381 46.043 35.7884C44.7461 35.9387 43.5147 35.5314 42.5862 34.7557C43.5292 35.2599 44.7267 35.4975 45.9921 35.3496Z" fill="#402108"/>
<path d="M45.0362 27.1435C46.3016 26.9956 47.4991 27.2308 48.4421 27.7374C47.5136 26.9617 46.2822 26.5545 44.9853 26.7048C43.6884 26.8551 42.583 27.5362 41.8582 28.5035C42.6605 27.7956 43.7708 27.2914 45.0362 27.1435Z" fill="#402108"/>
<path d="M45.1463 35.0978C47.1224 35.0978 48.7243 33.4959 48.7243 31.5198C48.7243 29.5437 47.1224 27.9418 45.1463 27.9418C43.1702 27.9418 41.5683 29.5437 41.5683 31.5198C41.5683 33.4959 43.1702 35.0978 45.1463 35.0978Z" fill="#402108"/>
<path d="M47.2374 29.8888C47.2374 30.3421 47.6034 30.7081 48.0567 30.7081C48.51 30.7081 48.8761 30.3421 48.8761 29.8888C48.8761 29.4354 48.51 29.0694 48.0567 29.0694C47.6034 29.0694 47.2374 29.4354 47.2374 29.8888Z" fill="white"/>
<path d="M53.0895 26.7656C51.5987 26.3971 49.2522 26.3074 49.2522 26.3074C49.1867 26.2977 49.1213 26.2904 49.0558 26.2832C46.9492 26.1013 43.9045 26.0407 41.3568 26.7898C41.2404 26.8237 41.1265 26.8649 41.0174 26.9086C40.009 27.3231 38.9448 27.5776 37.8563 27.5776H36.8625C35.774 27.5776 34.7098 27.3231 33.7014 26.9086C33.5899 26.8625 33.4784 26.8237 33.362 26.7898C30.8143 26.0407 27.7696 26.0989 25.663 26.2832C25.5976 26.288 25.5321 26.2977 25.4667 26.3074C25.4667 26.3074 23.1201 26.3971 21.6293 26.7656C21.239 26.8625 20.9651 27.2116 20.9578 27.6188C20.9529 27.854 20.9675 28.1497 21.0232 28.5061C21.0644 28.78 21.2584 29.0006 21.5202 29.0806C21.6923 29.1315 21.8789 29.2236 21.9808 29.3836C22.0123 29.4321 22.0462 29.4951 22.0874 29.5727C22.4268 30.2272 22.6304 30.9447 22.7007 31.6817C22.7225 31.9168 22.7468 32.1544 22.771 32.3968C23.0256 34.7821 24.8849 36.6754 27.1926 36.8984C27.6799 36.9444 28.1695 36.9784 28.6471 36.9978C28.7319 37.0002 28.8168 37.0026 28.8992 37.0026C31.8736 37.0026 34.5474 34.9712 35.4589 31.9871C35.5389 31.7229 35.6165 31.4659 35.6868 31.2235C35.7183 31.1144 35.7449 31.0053 35.7668 30.8938C35.917 30.1278 36.5934 29.5872 37.3618 29.5872C38.1303 29.5872 38.8066 30.1278 38.9569 30.8938C38.9787 31.0053 39.0054 31.1144 39.0369 31.2235C39.1072 31.4684 39.1848 31.7229 39.2648 31.9871C40.1762 34.9712 42.85 37.0026 45.8244 37.0026C45.9093 37.0026 45.9917 37.0026 46.0765 36.9978C46.5541 36.9784 47.0438 36.9469 47.531 36.8984C49.8388 36.6754 51.6957 34.7821 51.9526 32.3968C51.9793 32.1544 52.0011 31.9168 52.0229 31.6817C52.0908 30.9447 52.2944 30.2272 52.6362 29.5727C52.675 29.4975 52.7114 29.4321 52.7429 29.3836C52.8447 29.2236 53.0289 29.1339 53.2035 29.0806C53.4653 29.003 53.6592 28.78 53.7004 28.5061C53.7537 28.1522 53.7683 27.854 53.7659 27.6188C53.7586 27.2116 53.4847 26.8625 53.0944 26.7656H53.0895ZM34.8674 30.8963C34.7923 31.1581 34.7098 31.4344 34.6226 31.7205C33.8032 34.4064 31.3621 36.2099 28.681 36.1057C28.2205 36.0887 27.7478 36.0548 27.2775 36.0112C25.3818 35.8269 23.8546 34.2658 23.6437 32.2998C23.5516 31.4344 23.4837 30.6151 23.4425 29.866C23.3674 28.4746 24.3758 27.2916 25.7406 27.1728C27.772 26.9958 30.7028 26.9352 33.1196 27.6479C33.779 27.8419 34.3244 28.2879 34.6541 28.9012C34.9862 29.5169 35.0613 30.2248 34.865 30.8963H34.8674ZM51.2811 29.8636C51.2399 30.6126 51.1721 31.432 51.0799 32.2974C50.869 34.2658 49.3418 35.8269 47.4462 36.0087C46.9759 36.0548 46.5032 36.0863 46.0426 36.1033C43.3615 36.2075 40.9204 34.404 40.1011 31.718C40.0138 31.432 39.9314 31.1556 39.8562 30.8938C39.6623 30.2224 39.7375 29.5121 40.0671 28.8988C40.3968 28.2855 40.9423 27.8394 41.6016 27.6455C44.0185 26.9328 46.9492 26.9934 48.9806 27.1704C50.3454 27.2892 51.3539 28.4721 51.2787 29.8636H51.2811Z" fill="#9A9AF5" stroke="#402108" stroke-width="0.451322" stroke-linecap="round" stroke-linejoin="round"/>
<path d="M22.6746 27.9307C22.6746 28.1731 22.4807 28.3719 22.2407 28.3719C22.0007 28.3719 21.8068 28.1755 21.8068 27.9307C21.8068 27.6859 22.0007 27.4895 22.2407 27.4895C22.4807 27.4895 22.6746 27.6859 22.6746 27.9307Z" fill="#FF847C" stroke="#402108" stroke-width="0.451322" stroke-linecap="round" stroke-linejoin="round"/>
<path d="M52.0452 27.9307C52.0452 28.1731 52.2392 28.3719 52.4791 28.3719C52.7191 28.3719 52.9131 28.1755 52.9131 27.9307C52.9131 27.6859 52.7191 27.4895 52.4791 27.4895C52.2392 27.4895 52.0452 27.6859 52.0452 27.9307Z" fill="#FF847C" stroke="#402108" stroke-width="0.451322" stroke-linecap="round" stroke-linejoin="round"/>
<path d="M35.4899 33.9387C35.6377 34.2538 35.9335 34.4865 36.2656 34.5932C36.5977 34.6998 36.9613 34.6829 37.2958 34.5859C38.0182 34.375 38.6315 33.7132 38.6364 32.9593" stroke="#402108" stroke-width="0.451322" stroke-linecap="round" stroke-linejoin="round"/>
<path d="M52.0437 37.001C52.0437 37.7428 51.2001 38.3464 50.1578 38.3464C49.1154 38.3464 48.2718 37.7452 48.2718 37.001C48.2718 36.2568 49.1154 35.6556 50.1578 35.6556C51.2001 35.6556 52.0437 36.2568 52.0437 37.001Z" fill="#F98585" stroke="#402108" stroke-width="0.451322" stroke-linecap="round" stroke-linejoin="round"/>
<path d="M26.5038 37.001C26.5038 37.7428 25.6602 38.3464 24.6178 38.3464C23.5755 38.3464 22.7319 37.7452 22.7319 37.001C22.7319 36.2568 23.5755 35.6556 24.6178 35.6556C25.6602 35.6556 26.5038 36.2568 26.5038 37.001Z" fill="#F98585" stroke="#402108" stroke-width="0.451322" stroke-linecap="round" stroke-linejoin="round"/>
<path d="M31.7523 14.8947C31.4929 14.9238 31.2214 14.9335 30.9766 14.8414C30.3851 14.6232 30.1257 13.879 30.2663 13.2657C30.5403 12.0682 32.2202 11.0767 33.3692 10.924C33.9752 10.844 34.8091 11.1252 34.9885 11.7749C35.4782 13.559 33.1559 14.7323 31.7547 14.8947H31.7523Z" fill="#FFAAAA"/>
<path d="M23.7555 21.53C23.8186 20.2865 24.6258 18.815 25.2439 17.7945C25.8597 16.7788 26.7687 15.6031 27.8184 15.0043C28.6644 14.5219 29.8304 14.6892 30.0825 15.763C30.1843 16.1994 30.1261 16.6575 30.0316 17.0963C29.7068 18.6259 28.9795 20.0586 27.9953 21.2707C27.4596 21.93 26.839 22.5336 26.0972 22.953C25.0161 23.5639 23.7458 22.9918 23.7507 21.6658C23.7507 21.6197 23.7507 21.5737 23.7555 21.5276V21.53Z" fill="#FFAAAA"/>
<path d="M19.4102 65.1996L15.4435 68.364C14.3824 69.2104 12.8349 69.0378 11.9885 67.9745C11.14 66.9113 11.3148 65.3659 12.3759 64.5174L16.3426 61.3529C17.4037 60.5065 18.9512 60.6792 19.7976 61.7424C20.2208 62.273 20.3892 62.9257 20.3177 63.551C20.2482 64.1763 19.9387 64.7743 19.4081 65.1974L19.4102 65.1996Z" fill="#E0504D" stroke="#402108" stroke-width="0.451322" stroke-linecap="round" stroke-linejoin="round"/>
<path d="M19.4088 65.1994L17.455 66.7575C16.8149 66.3006 16.2022 65.7258 15.659 65.0436C15.1158 64.3615 14.6905 63.6372 14.3873 62.9108L16.3412 61.3528C17.4023 60.5064 18.9498 60.679 19.7962 61.7423C20.2194 62.2729 20.3879 62.9256 20.3163 63.5509C20.2468 64.1762 19.9373 64.7741 19.4067 65.1973L19.4088 65.1994Z" fill="white" stroke="#402108" stroke-width="0.451322" stroke-linecap="round" stroke-linejoin="round"/>
<path d="M64.8593 33.6323L67.1395 30.6131C67.7501 29.8046 68.8996 29.6446 69.7081 30.2552C70.5166 30.8658 70.6766 32.0153 70.066 32.8238L67.7858 35.8431C67.1753 36.6515 66.0257 36.8116 65.2172 36.201C64.8129 35.8957 64.5708 35.4557 64.5077 34.9903C64.4424 34.525 64.5561 34.0366 64.8593 33.6323Z" fill="#E0504D" stroke="#402108" stroke-width="0.451322" stroke-linecap="round" stroke-linejoin="round"/>
<path d="M64.8593 33.6318L65.9815 32.1453C66.5289 32.358 67.0763 32.6591 67.5942 33.0507C68.1122 33.4423 68.5543 33.8865 68.908 34.356L67.7858 35.8425C67.1753 36.651 66.0257 36.811 65.2172 36.2004C64.8129 35.8951 64.5708 35.4551 64.5077 34.9898C64.4424 34.5245 64.5561 34.036 64.8593 33.6318Z" fill="white" stroke="#402108" stroke-width="0.451322" stroke-linecap="round" stroke-linejoin="round"/>
<path d="M77.2588 43.0229L73.9427 41.2017C73.0542 40.7132 72.7299 39.5994 73.2184 38.713C73.7069 37.8245 74.8207 37.5003 75.7092 37.9888L79.0252 39.81C79.9137 40.2984 80.238 41.4122 79.7495 42.3007C79.5053 42.745 79.1052 43.0482 78.6547 43.1787C78.2041 43.3113 77.703 43.2692 77.2609 43.025L77.2588 43.0229Z" fill="#E0504D" stroke="#402108" stroke-width="0.451322" stroke-linecap="round" stroke-linejoin="round"/>
<path d="M77.2606 43.0222L75.6268 42.1253C75.7573 41.5526 75.9784 40.9673 76.29 40.3988C76.6037 39.8283 76.9785 39.3293 77.3932 38.9124L79.0271 39.8093C79.9156 40.2978 80.2398 41.4116 79.7513 42.3001C79.5071 42.7443 79.1071 43.0475 78.6565 43.178C78.2059 43.3107 77.7049 43.2686 77.2627 43.0243L77.2606 43.0222Z" fill="white" stroke="#402108" stroke-width="0.451322" stroke-linecap="round" stroke-linejoin="round"/>
<path d="M77.1942 20.5888C76.7899 20.5888 76.4004 20.6688 76.0319 20.8182C75.9498 20.7172 75.8677 20.6203 75.7814 20.5277C74.9961 19.6855 74.0149 19.1823 72.9496 19.1823C71.4252 19.1823 69.6861 20.0561 69.2229 21.7931C69.1619 21.791 69.1029 21.7889 69.0419 21.7889C67.5007 21.7889 66.0942 22.5826 65.0162 23.8964H80.9713C80.9713 21.7552 78.8575 20.5888 77.1984 20.5888H77.1942Z" fill="white" stroke="#402108" stroke-width="0.451322" stroke-linecap="round" stroke-linejoin="round"/>
</svg>
