<svg width="99" height="95" viewBox="0 0 99 95" fill="none" xmlns="http://www.w3.org/2000/svg">
<g clip-path="url(#clip0_2_2228)">
<path d="M65.3598 84.455C65.286 84.3777 65.288 84.2561 65.3657 84.1827C65.3967 84.1537 68.5274 81.2066 73.3029 79.7215C77.7173 78.3504 84.4796 77.9757 91.6284 83.9838C91.71 84.0533 91.7197 84.1749 91.6517 84.2561C91.5818 84.3372 91.4594 84.3468 91.3779 84.2792C84.365 78.3832 77.7406 78.7463 73.4195 80.0904C68.7293 81.5485 65.6647 84.4318 65.6356 84.4608C65.5579 84.5342 65.4356 84.5322 65.3618 84.455H65.3598Z" fill="#CCD2FF"/>
<path d="M18.4876 81.0678C18.4138 80.9905 18.4157 80.8689 18.4934 80.7955C18.5575 80.7356 24.945 74.7218 34.6981 71.6898C40.4292 69.9092 46.1874 69.4882 51.8078 70.4422C58.8304 71.6338 65.6587 74.9825 72.1006 80.3977C72.1822 80.4672 72.1919 80.5889 72.1239 80.67C72.054 80.7511 71.9316 80.7607 71.8501 80.6931C57.3913 68.538 43.7288 69.2892 34.8146 72.0606C25.1489 75.0655 18.8255 81.0157 18.7634 81.0755C18.6857 81.1489 18.5633 81.147 18.4895 81.0697L18.4876 81.0678Z" fill="#CCD2FF"/>
<path d="M56.5677 81.5793L54.4197 84.7021L52.3767 87.6723L47.0457 84.1092L50.1743 79.8316L51.157 78.4874L56.5677 81.5793Z" fill="#FCBBA4"/>
<path d="M56.5688 81.5793L54.4209 84.7021C54.4209 84.7021 54.4209 84.6983 54.417 84.6963C54.1412 84.2579 54.2247 83.6863 54.0519 83.1996C53.8441 82.6164 53.2945 82.2224 52.7371 81.9463C52.1778 81.672 51.5738 81.4692 51.0863 81.0869C50.7484 80.8204 50.3483 80.3356 50.1755 79.8296L51.1582 78.4874L56.5688 81.5793Z" fill="#E2805D"/>
<path d="M49.3533 79.374C49.1552 79.2813 48.9183 79.3334 48.7746 79.4995C48.2657 80.0924 46.9315 81.4616 45.7721 81.0928C44.3039 80.6274 43.0513 80.0519 42.1365 79.9746C40.9558 79.8761 38.6194 81.031 39.3691 83.08C39.874 84.4589 45.2866 87.7961 48.2483 89.5033C49.6485 90.3105 51.4333 89.9262 52.3732 88.6168L53.8958 86.4964C54.1677 86.1159 54.0454 85.5867 53.6356 85.3627L49.899 83.2615C49.899 83.2615 51.3303 80.2933 49.3572 79.3721L49.3533 79.374Z" fill="#FC6054"/>
<path d="M50.0474 88.8152C50.0105 88.8152 49.9717 88.8037 49.9386 88.7824L41.2867 82.8902C41.1974 82.8304 41.176 82.7106 41.2362 82.6218C41.2964 82.533 41.4187 82.5117 41.5061 82.5716L50.1581 88.4638C50.2474 88.5236 50.2688 88.6434 50.2086 88.7322C50.1717 88.7863 50.1095 88.8172 50.0474 88.8172V88.8152Z" fill="#112544"/>
<path d="M47.2763 80.4282C47.2297 80.7604 47.3404 81.0964 47.6686 81.4363L47.2763 80.4282Z" fill="white"/>
<path d="M47.6681 81.6292C47.6176 81.6292 47.5652 81.6099 47.5283 81.5694C47.1748 81.2024 47.0272 80.8104 47.0855 80.399C47.101 80.2928 47.1981 80.2214 47.3049 80.2349C47.4118 80.2503 47.4856 80.3469 47.47 80.4531C47.4292 80.7447 47.5399 81.0209 47.8099 81.3009C47.8837 81.3782 47.8817 81.4998 47.8041 81.5732C47.7672 81.6099 47.7186 81.6273 47.6701 81.6273L47.6681 81.6292Z" fill="#112544"/>
<path d="M46.4116 80.5533C46.365 80.8854 46.4757 81.2215 46.8039 81.5614L46.4116 80.5533Z" fill="white"/>
<path d="M46.8033 81.7566C46.7528 81.7566 46.7003 81.7373 46.6634 81.6968C46.3119 81.3298 46.1624 80.9378 46.2206 80.5264C46.2362 80.4202 46.3352 80.3468 46.4401 80.3623C46.5469 80.3777 46.6207 80.4743 46.6052 80.5805C46.5644 80.8721 46.6751 81.1483 46.945 81.4283C47.0188 81.5056 47.0169 81.6272 46.9392 81.7006C46.9023 81.7373 46.8538 81.7547 46.8052 81.7547L46.8033 81.7566Z" fill="#112544"/>
<path d="M45.5469 80.6809C45.5002 81.0131 45.6109 81.3491 45.9392 81.689L45.5469 80.6809Z" fill="white"/>
<path d="M45.9386 81.8843C45.8881 81.8843 45.8357 81.8649 45.7988 81.8244C45.4453 81.4575 45.2977 81.0654 45.356 80.6541C45.3715 80.5478 45.4706 80.4745 45.5755 80.4899C45.6823 80.5054 45.7561 80.6019 45.7405 80.7081C45.6997 80.9997 45.8104 81.2759 46.0804 81.5559C46.1542 81.6332 46.1522 81.7549 46.0746 81.8282C46.0377 81.8649 45.9891 81.8823 45.9406 81.8823L45.9386 81.8843Z" fill="#112544"/>
<path d="M85.4458 54.8087C76.9453 66.0542 67.6641 67.6591 67.6641 67.6591L57.4041 82.6628C56.0136 84.4183 48.7852 78.7598 50.1757 77.0043C50.1757 77.0043 50.2301 76.8942 50.3388 76.6914C51.372 74.6829 57.1419 63.6035 60.092 60.6526C61.9583 58.7832 66.0464 55.9597 69.4353 53.7446C72.3639 51.8269 74.7682 50.3688 74.7682 50.3688L85.4458 54.8087Z" fill="#66D3D8"/>
<path d="M85.4458 54.8087C76.9453 66.0542 67.6641 67.6591 67.6641 67.6591L57.4041 82.6628C56.0136 84.4183 48.7852 78.7598 50.1757 77.0043C50.1757 77.0043 50.2301 76.8942 50.3388 76.6914C51.9119 77.4697 52.8946 79.4067 54.6366 79.8065C56.5865 80.2526 58.3946 78.5126 59.1559 76.6721C59.9172 74.8336 60.0881 72.7614 61.0785 71.0349C62.2418 69.0051 64.3839 67.7267 66.5552 66.8344C68.7245 65.9403 71.0258 65.3339 73.0709 64.1887C74.238 63.5359 75.4421 62.3366 75.0265 61.0717C74.609 59.7971 72.9504 59.5537 71.7444 58.9512C70.4471 58.3023 69.5033 56.9948 69.3032 55.5638C69.2197 54.9555 69.2663 54.3355 69.4353 53.7446C72.3639 51.8269 74.7682 50.3688 74.7682 50.3688L85.4458 54.8087Z" fill="#47B6C3"/>
<path d="M86.2386 87.1453L86.7008 90.8996L87.1417 94.4724L80.7736 95.3009L80.2783 90.0325L80.123 88.3794L86.2386 87.1453Z" fill="#FCBBA4"/>
<path d="M86.2366 87.1453L86.7008 90.9016C86.7008 90.9016 86.6969 90.9016 86.695 90.9016C85.7667 90.6273 85.6773 89.3972 83.6071 89.9418C82.7448 90.1716 81.5465 90.7587 80.2783 90.0364L80.123 88.3833L86.2386 87.1473L86.2366 87.1453Z" fill="#E2805D"/>
<path d="M79.3578 90.2296C79.1461 90.2914 79.0043 90.4845 79.0062 90.7027C79.0179 91.481 78.9266 93.3852 77.8119 93.8719C76.4 94.4879 75.0794 94.878 74.3414 95.4226C73.3897 96.1237 72.4032 98.5261 74.3278 99.5728C75.6231 100.278 81.9019 99.2233 85.2597 98.5589C86.8464 98.2442 87.932 96.7841 87.767 95.1832L87.5009 92.5934C87.4523 92.1299 87.0095 91.8112 86.5512 91.9136L82.3505 92.7942C82.3505 92.7942 81.4513 89.627 79.3578 90.2315V90.2296Z" fill="#FC6054"/>
<path d="M78.4996 92.3845C78.686 92.6645 78.9929 92.8441 79.4648 92.8846L78.4996 92.3845Z" fill="white"/>
<path d="M79.4467 93.078C78.9398 93.0355 78.565 92.8385 78.3358 92.4909C78.2776 92.4021 78.3009 92.2823 78.3921 92.2225C78.4815 92.1645 78.6019 92.1877 78.6621 92.2785C78.8252 92.5237 79.0913 92.6589 79.4816 92.6918C79.5885 92.7014 79.6681 92.7941 79.6584 92.9003C79.6487 93.0065 79.5554 93.0857 79.4486 93.0761L79.4467 93.078Z" fill="#112544"/>
<path d="M77.9344 93.0493C78.1208 93.3293 78.4277 93.5089 78.8996 93.5495L77.9344 93.0493Z" fill="white"/>
<path d="M78.8815 93.7409C78.3746 93.6984 77.9998 93.5014 77.7706 93.1538C77.7124 93.065 77.7357 92.9452 77.827 92.8854C77.9163 92.8274 78.0367 92.8506 78.0969 92.9414C78.26 93.1866 78.528 93.3218 78.9165 93.3546C79.0233 93.3643 79.1029 93.457 79.0932 93.5632C79.0835 93.6694 78.9903 93.7486 78.8834 93.7389L78.8815 93.7409Z" fill="#112544"/>
<path d="M77.3718 93.7109C77.5582 93.9909 77.8651 94.1705 78.337 94.2111L77.3718 93.7109Z" fill="white"/>
<path d="M78.3187 94.4047C77.8099 94.3623 77.437 94.1653 77.2078 93.8176C77.1496 93.7288 77.1729 93.6091 77.2641 93.5511C77.3535 93.4932 77.4739 93.5164 77.5322 93.6071C77.6953 93.8524 77.9614 93.9876 78.3517 94.0204C78.4585 94.0301 78.5382 94.1228 78.5284 94.229C78.5187 94.3352 78.4255 94.4144 78.3187 94.4047Z" fill="#112544"/>
<path d="M80.2512 51.4466C80.2512 51.4466 75.0173 62.0722 75.0503 69.1444C75.0717 73.7272 77.8508 88.2558 77.8508 88.2558C77.8916 89.8819 87.198 89.3894 87.1572 87.7614L85.3764 69.7025C85.3764 69.7025 90.8161 63.5032 90.251 53.907L80.2512 51.4466Z" fill="#66D3D8"/>
<path d="M75.4889 65.2288C75.4773 65.2288 75.4637 65.2288 75.452 65.2249C75.3471 65.2056 75.2772 65.1033 75.2986 64.999C76.5435 58.5834 80.0431 51.4321 80.078 51.3606C80.1246 51.2641 80.2412 51.2255 80.3383 51.2718C80.4354 51.3182 80.4742 51.434 80.4276 51.5306C80.3927 51.602 76.9144 58.709 75.6812 65.0724C75.6637 65.1651 75.5821 65.2288 75.4908 65.2288H75.4889Z" fill="#112544"/>
<path d="M65.8586 31.1529C65.8586 31.1529 65.0351 29.8763 64.4448 29.1174C63.9379 28.4685 61.8676 27.5299 61.6249 27.9972C61.4035 28.426 63.13 29.3839 63.13 29.3839C63.13 29.3839 61.0422 28.3043 60.8364 28.8238C60.6305 29.3433 62.2055 29.9053 62.2055 29.9053C62.2055 29.9053 60.5237 29.3433 60.3431 29.9362C60.1916 30.4325 61.8676 30.6623 61.8676 30.6623C61.8676 30.6623 60.1605 30.3784 60.0712 31.0042C59.9819 31.6299 61.8734 31.431 61.8734 31.431C61.8734 31.431 60.4402 31.5372 60.0615 32.0818C59.7255 32.5646 62.0871 33.1189 63.7883 34.7507C65.1808 34.3548 65.9751 33.0339 65.8605 31.1548L65.8586 31.1529Z" fill="#FCBBA4"/>
<path d="M65.8772 31.2762C65.8772 31.2762 65.4926 29.1229 64.3177 28.5088C62.9407 27.7884 61.6687 28.25 61.8124 28.9742C61.9076 29.4531 63.5001 29.8259 63.5001 29.8259C63.5001 29.8259 62.8262 30.9672 64.8246 31.7011" fill="#FCBBA4"/>
<path d="M64.8266 31.896C64.8033 31.896 64.7819 31.8921 64.7586 31.8844C63.9487 31.587 63.4477 31.1834 63.2671 30.6832C63.1622 30.3935 63.1933 30.1366 63.2399 29.9609C62.7097 29.8199 61.7154 29.4935 61.6202 29.0127C61.5619 28.7172 61.6804 28.4352 61.9465 28.2383C62.399 27.9022 63.3622 27.7921 64.4071 28.3387C64.7819 28.5357 65.1159 28.8871 65.3995 29.3835C65.4519 29.4762 65.4189 29.594 65.3257 29.6461C65.2325 29.6983 65.114 29.6674 65.0616 29.5727C64.8149 29.1401 64.5333 28.8389 64.2265 28.6786C63.37 28.2305 62.5466 28.2711 62.1776 28.5453C62.03 28.6535 61.9717 28.7848 62.0008 28.9354C62.0436 29.1459 62.8476 29.4742 63.5428 29.6365C63.6031 29.65 63.6535 29.6925 63.6769 29.7485C63.7021 29.8045 63.6963 29.8701 63.6652 29.9223C63.6594 29.9319 63.5059 30.21 63.6322 30.5577C63.772 30.9362 64.207 31.2683 64.8887 31.5194C64.9897 31.5561 65.0402 31.6681 65.0033 31.7666C64.9742 31.8439 64.9004 31.8921 64.8207 31.8921L64.8266 31.896Z" fill="#112544"/>
<path d="M63.7819 34.7758C63.7819 34.7758 68.8643 41.2261 76.4676 41.3362C78.8971 41.3709 81.5811 40.7607 84.4417 39.0863L87.483 30.0192C87.483 30.0192 80.1187 28.1401 75.4752 35.1196C75.4752 35.1196 72.9233 32.8021 66.3649 31.2011C66.192 31.1586 66.0153 31.1181 65.8366 31.0756C65.9571 32.5607 64.9744 33.7561 63.7819 34.7777V34.7758Z" fill="#8D95FF"/>
<path d="M63.7819 34.7762C63.7819 34.7762 68.8643 41.2264 76.4676 41.3365C76.4734 41.2458 76.4501 41.1589 76.3899 41.0913C74.5333 40.5409 72.6728 39.9885 70.8996 39.2122C69.1285 38.4358 67.4369 37.4239 66.0736 36.0566C65.823 35.8055 65.5803 35.5371 65.4424 35.2126C65.3065 34.8862 65.289 34.4903 65.4832 34.1968C65.6735 33.9032 66.0231 33.7565 66.2853 33.5247C66.7805 33.0825 66.8795 32.3988 66.629 31.8098C66.5397 31.5974 66.4562 31.3946 66.3649 31.2034C66.192 31.1609 66.0153 31.1203 65.8366 31.0779C65.9571 32.563 64.9744 33.7584 63.7819 34.78V34.7762Z" fill="#757BFF"/>
<path d="M94.7121 47.2611C94.5121 47.4928 94.1683 48.4526 93.7022 49.6751C92.7836 52.0853 91.397 55.517 89.7151 56.3958C81.403 60.7372 79.4668 50.4669 72.3297 51.8844C72.4132 51.4904 72.5064 51.0849 72.6074 50.6755C74.7941 41.73 80.7253 29.5285 86.3612 29.909C96.5998 30.5965 103.991 36.5176 94.7102 47.2611H94.7121Z" fill="#8D95FF"/>
<path d="M93.7022 49.6751C92.7836 52.0853 91.397 55.5171 89.7151 56.3958C81.403 60.7372 79.4668 50.4669 72.3297 51.8845C72.4132 51.4905 72.5064 51.0849 72.6074 50.6755C72.9239 50.5287 73.2968 50.523 73.6425 50.5442C75.4389 50.6562 77.1149 51.3572 78.6977 52.1471C80.2805 52.9389 81.8186 53.8311 83.5141 54.3738C85.2076 54.9165 87.1108 55.0864 88.8198 54.4163C90.3036 53.835 91.4766 52.6936 92.4515 51.4577C92.8982 50.8899 93.3391 50.3009 93.7022 49.6771V49.6751Z" fill="#757BFF"/>
<path d="M85.8429 57.6645C83.3454 57.6645 81.4907 56.2045 79.6749 54.7773C77.5056 53.0721 75.4586 51.4614 72.3649 52.0755C72.3008 52.0891 72.2348 52.0678 72.1882 52.0215C72.1415 51.9751 72.1221 51.9095 72.1357 51.8457C73.7302 44.3661 78.0921 34.5535 82.6307 31.0792C82.7162 31.0136 82.8385 31.029 82.9026 31.114C82.9686 31.199 82.9512 31.3206 82.8676 31.3844C78.4552 34.7602 74.204 44.2695 72.5766 51.6449C75.6878 51.1505 77.8357 52.8403 79.9137 54.4741C82.5938 56.5811 85.1243 58.5722 89.6202 56.2238C89.7989 56.1311 89.9815 56.0017 90.1621 55.8395C90.2417 55.768 90.3641 55.7758 90.4359 55.855C90.5078 55.9341 90.5 56.0558 90.4204 56.1273C90.2145 56.3088 90.0067 56.4575 89.8009 56.5637C88.3035 57.3459 87.0023 57.6626 85.841 57.6626L85.8429 57.6645Z" fill="#112544"/>
<path d="M88.0412 25.3939C86.9265 28.3062 89.5599 28.93 89.7192 28.9512C89.7192 28.9512 89.288 29.9864 89.2434 30.3533C88.9967 32.3347 90.7426 33.0879 93.2518 31.4097L95.8056 25.6759C96.7359 23.5534 91.2204 19.1831 90.1192 22.2228C89.4958 22.9393 89.02 23.5824 88.6646 24.1579C88.3869 24.6098 88.181 25.0212 88.0393 25.3939H88.0412Z" fill="#FCBBA4"/>
<path d="M89.0501 30.33C89.0637 30.2238 89.1608 30.1504 89.2676 30.162C89.3744 30.1755 89.4502 30.272 89.4366 30.3783C89.1744 32.4814 91.1339 32.5953 93.144 31.2512C93.2333 31.1913 93.3537 31.2145 93.4139 31.3033C93.4741 31.3922 93.4508 31.5119 93.3615 31.5718C90.5979 33.4199 88.7976 32.379 89.052 30.3319L89.0501 30.33Z" fill="#112544"/>
<path d="M89.4095 20.8688C89.2891 21.5428 89.2677 22.3037 89.394 23.1071L90.1203 22.2207C90.1203 22.2207 90.8117 23.7232 93.783 23.9047C96.7564 24.0862 95.3387 25.0441 94.9794 25.3454C94.7366 25.5501 94.2802 26.0407 95.3056 26.5679C95.0901 26.6683 94.7444 27.1955 94.7541 27.5683C94.7541 27.5683 95.7387 26.1256 96.4689 27.2689C96.5408 27.3829 96.6127 27.5258 96.6787 27.6957C96.6787 27.6957 99.5743 25.4903 97.9818 24.1442C97.9818 24.1442 99.5316 23.1766 98.7179 22.0044C98.7179 22.0044 97.7022 20.7201 96.1271 21.7147C96.1271 21.7147 97.0632 20.3899 95.6261 19.4822C94.1889 18.5745 93.0412 20.4768 93.0412 20.4768C93.0412 20.4768 92.6469 18.8217 91.7147 18.2868C90.8602 17.7943 89.7474 18.9897 89.4095 20.865V20.8688Z" fill="#112544"/>
<path d="M91.9216 25.2858C91.875 25.4016 91.9196 25.531 92.0226 25.5716C92.1255 25.6121 92.2479 25.5523 92.2945 25.4345C92.3411 25.3186 92.2964 25.1892 92.1935 25.1486C92.0905 25.1081 91.9682 25.168 91.9216 25.2858Z" fill="#112544"/>
<path d="M93.1659 24.8912C93.1095 25.0013 92.8823 24.9975 92.5677 24.8333C92.2531 24.6692 91.9657 24.4065 92.0239 24.2984C92.0822 24.1883 92.4609 24.2713 92.7775 24.4355C93.0921 24.5996 93.2261 24.7812 93.1678 24.8912H93.1659Z" fill="#112544"/>
<path d="M89.6798 24.2002C89.6331 24.3161 89.6778 24.4455 89.7807 24.486C89.8837 24.5266 90.006 24.4667 90.0526 24.3489C90.0992 24.2331 90.0546 24.1037 89.9517 24.0631C89.8487 24.0225 89.7264 24.0824 89.6798 24.2002Z" fill="#112544"/>
<path d="M89.7367 23.2303C89.6785 23.3384 89.8067 23.5238 90.1193 23.6919C90.432 23.8599 90.8107 23.9487 90.8709 23.8406C90.9311 23.7305 90.6476 23.4659 90.3349 23.2979C90.0222 23.1299 89.797 23.1221 89.7367 23.2322V23.2303Z" fill="#112544"/>
<path d="M96.3111 28.6136C95.7926 29.162 94.9789 29.2373 94.4933 28.7835C94.0078 28.3297 94.0331 27.5147 94.5535 26.9662C95.0721 26.4177 95.8897 26.3405 96.3752 26.7963C96.8607 27.2501 96.8316 28.0651 96.3131 28.6136H96.3111Z" fill="#FCBBA4"/>
<path d="M90.4479 25.9848C90.3217 25.9674 89.9352 25.9153 89.8828 25.6159C89.809 25.1891 90.6324 24.6947 91.1296 24.4379C91.2247 24.3877 91.3413 24.4263 91.3917 24.5209C91.4403 24.6155 91.4034 24.7314 91.3082 24.7816C90.8033 25.0423 90.3255 25.3938 90.2712 25.5406C90.2945 25.556 90.3586 25.5831 90.5003 25.6024C90.6071 25.6159 90.6809 25.7144 90.6673 25.8206C90.6538 25.9268 90.5547 26.0002 90.4479 25.9867V25.9848Z" fill="#E2805D"/>
<path d="M88.7373 26.3709C88.7237 26.2647 88.7994 26.1682 88.9062 26.1566C89.0131 26.145 89.1082 26.2184 89.1218 26.3246C89.1879 26.8228 89.5996 27.1666 90.3298 26.9909C90.4347 26.9658 90.5395 27.0295 90.5648 27.1338C90.59 27.2381 90.5259 27.3423 90.4211 27.3674C89.4228 27.6089 88.8189 27.0565 88.7354 26.3748L88.7373 26.3709Z" fill="#E2805D"/>
<path d="M89.716 28.9516C89.716 28.9516 90.4462 29.2915 92.1086 28.8454C92.299 28.7952 92.4466 29.0096 92.3281 29.166C91.9455 29.672 91.0677 30.317 89.3917 29.8033L89.716 28.9516Z" fill="#E2805D"/>
<path d="M95.2002 27.7787C95.1555 27.6821 95.2002 27.5663 95.2973 27.5238L95.6216 27.3789C95.7207 27.3365 95.8352 27.3789 95.878 27.4755C95.9226 27.5721 95.878 27.6879 95.7809 27.7304L95.4565 27.8753C95.3575 27.9197 95.2429 27.8753 95.2002 27.7787Z" fill="#E2805D"/>
<path d="M83.7656 63.109C82.6159 62.6513 81.8818 62.0024 81.5808 61.1758C81.1807 60.0789 81.7051 59.0882 81.7284 59.0476C81.7789 58.953 81.8973 58.9182 81.9905 58.9684C82.0857 59.0187 82.1207 59.1365 82.0702 59.2292C82.0702 59.2292 81.6041 60.1137 81.9478 61.0484C82.21 61.7629 82.8703 62.3365 83.9113 62.7498C84.0103 62.7903 84.0588 62.9024 84.02 63.0008C83.9812 63.0974 83.8685 63.1476 83.7675 63.109H83.7656Z" fill="#112544"/>
<path d="M33.2011 30.2338C33.2011 30.2338 40.1576 33.1132 41.7773 41.6744C41.7773 41.6744 49.4058 41.039 54.8514 43.2058C54.426 44.7083 54.3853 46.2263 54.8319 47.7654C54.8319 47.7654 46.6441 52.3927 37.3047 49.069C29.3169 46.2263 30.22 34.579 30.22 34.579L33.2011 30.2376V30.2338Z" fill="#FC6054"/>
<path d="M77.7308 26.2783L77.7269 28.0512L77.7191 31.6858C77.7191 32.4602 77.0841 33.0898 76.3034 33.0878L38.8717 33.0145C38.093 33.0145 37.4599 32.383 37.4618 31.6066V31.0968L37.4715 26.1992C37.4715 25.4228 38.1066 24.7952 38.8873 24.7971L76.3208 24.8705C77.0996 24.8705 77.7308 25.502 77.7308 26.2783Z" fill="white"/>
<path d="M77.7269 28.0517L77.7191 31.6863C77.7191 32.4607 77.0841 33.0903 76.3034 33.0883L38.8717 33.0149C38.093 33.0149 37.4599 32.3834 37.4618 31.6071V31.0972C44.3193 30.8481 51.1573 31.8234 58.0148 31.9817C61.662 32.0667 65.3326 31.9045 68.9215 31.2266C70.6966 30.8887 72.4503 30.4271 74.1457 29.8014C75.1886 29.4171 76.3616 29.1795 77.2433 28.463C77.4123 28.3259 77.5715 28.1869 77.7269 28.0517Z" fill="#E1E5FF"/>
<path d="M74.997 33.0862L74.9892 37.4894L74.962 51.6105C74.9581 53.0164 73.8123 54.152 72.4004 54.15L42.6924 54.0902C41.2786 54.0863 40.1367 52.9469 40.1386 51.5429L40.1444 48.1401L40.1755 33.0166L74.997 33.0862Z" fill="white"/>
<path d="M74.9892 37.4893L74.962 51.6105C74.9581 53.0164 73.8123 54.152 72.4004 54.15L42.6924 54.0902C41.2786 54.0863 40.1367 52.9469 40.1386 51.5429L40.1444 48.1401C40.4396 48.0049 40.7484 47.8909 41.0592 47.7982C42.8129 47.2807 44.6889 47.3734 46.5067 47.5781C50.2685 47.9991 53.974 48.8701 57.7494 49.1462C61.5248 49.4205 65.4788 49.0458 68.7512 47.1551C70.0641 46.3923 71.2293 45.3881 72.1907 44.2177C73.0432 43.1807 73.7385 42.0123 74.2415 40.7686C74.659 39.7334 74.6688 38.5245 74.9931 37.4932L74.9892 37.4893Z" fill="#E1E5FF"/>
<path d="M76.3058 33.2807H76.3019L38.8684 33.2054C37.9828 33.2054 37.2642 32.4851 37.2662 31.6044L37.2759 26.197C37.2759 25.3183 37.9983 24.6037 38.882 24.6037H38.8859L76.3194 24.679C77.207 24.679 77.9236 25.3955 77.9216 26.28L77.9119 31.6875C77.9119 32.57 77.1914 33.2807 76.3058 33.2807ZM38.882 24.99C38.212 24.99 37.6662 25.5307 37.6643 26.1989L37.6546 31.6064C37.6546 32.2746 38.1984 32.8192 38.8703 32.8192L76.3039 32.8945H76.3058C76.9759 32.8945 77.5216 32.3557 77.5235 31.6855L77.5332 26.2781C77.5332 25.6099 76.9914 25.0653 76.3175 25.0653L38.8839 24.99H38.882Z" fill="#112544"/>
<path d="M72.4048 54.3433H72.399L42.6891 54.2834C41.1723 54.2815 39.9411 53.0513 39.943 51.543L39.978 33.0167C39.978 32.9105 40.0653 32.8236 40.1722 32.8236L74.9956 32.8931C75.1024 32.8931 75.1898 32.98 75.1898 33.0863L75.1548 51.6125C75.1509 53.1227 73.9216 54.3433 72.4048 54.3433ZM40.3683 33.2099L40.3334 51.543C40.3314 52.8388 41.3879 53.8952 42.691 53.8972L72.401 53.957H72.4048C73.7099 53.957 74.7645 52.9084 74.7664 51.6125L74.8014 33.2794L40.3664 33.2099H40.3683Z" fill="#112544"/>
<path d="M61.8842 33.0591L61.8803 35.2742L61.8435 54.1269L53.2498 54.1114L53.2536 52.2478L53.2886 33.0417L61.8842 33.0591Z" fill="#FFC25E"/>
<path d="M61.8803 35.2739L61.8435 54.1265L53.2498 54.1111L53.2536 52.2474C56.1046 50.716 58.2312 48.0045 59.544 45.0401C60.0762 43.835 60.4918 42.5778 60.82 41.3032C61.1113 40.1715 61.3366 39.0243 61.5191 37.8695C61.6104 37.292 61.6939 36.7127 61.7677 36.1333C61.8027 35.8648 61.8065 35.5539 61.8803 35.2739Z" fill="#EFA130"/>
<path d="M61.842 54.3194L53.2483 54.304C53.1415 54.304 53.0541 54.2171 53.0541 54.1109L53.0949 33.0412C53.0949 32.935 53.1823 32.8481 53.2891 32.8481L61.8828 32.8635C61.9896 32.8635 62.077 32.9504 62.077 33.0566L62.0362 54.1263C62.0362 54.2325 61.9489 54.3194 61.842 54.3194ZM53.4426 53.9177L61.6478 53.9332L61.6867 33.2497L53.4814 33.2343L53.4426 53.9177Z" fill="#112544"/>
<path d="M63.1331 24.8453L63.1273 28.4394L63.1176 33.0608L52.0555 33.0395L52.0574 30.9364L52.071 24.8241L63.1331 24.8453Z" fill="#FFC25E"/>
<path d="M63.1266 28.4397L63.1169 33.0611L52.0529 33.0399L52.0568 30.9368C52.5035 30.8248 52.9696 30.7726 53.4279 30.7436C55.0826 30.6374 56.7469 30.8132 58.3977 30.6664C60.0504 30.5196 61.7575 29.9943 62.8606 28.7661C62.9538 28.6618 63.0431 28.5536 63.1266 28.4397Z" fill="#EFA130"/>
<path d="M63.1162 33.254L52.0541 33.2328C51.9473 33.2328 51.8599 33.1459 51.8599 33.0396L51.8754 24.8242C51.8754 24.7721 51.8968 24.7238 51.9317 24.6871C51.9686 24.6504 52.0172 24.6311 52.0696 24.6311L63.1317 24.6523C63.2385 24.6523 63.3259 24.7392 63.3259 24.8454L63.3104 33.0609C63.3104 33.1671 63.223 33.254 63.1162 33.254ZM52.2483 32.8465L62.9219 32.8658L62.9375 25.0366L52.2638 25.0173L52.2483 32.8465Z" fill="#112544"/>
<path d="M60.4941 25.0308C60.3873 25.0231 60.3077 24.9304 60.3155 24.8242C60.4359 23.2425 60.8418 21.6338 62.2711 20.9482C63.3509 20.4307 64.5647 20.7281 65.6406 21.01C65.9242 21.0853 66.2194 21.1626 66.5088 21.2225C68.5615 21.6473 69.5831 20.7841 69.7074 19.888C69.7229 19.7818 69.82 19.7084 69.9268 19.7238C70.0336 19.7393 70.1074 19.8358 70.0919 19.9421C69.9346 21.0699 68.7188 22.0761 66.4291 21.601C66.1281 21.5392 65.829 21.46 65.5397 21.3847C64.5608 21.1278 63.415 20.8285 62.4382 21.2978C61.1428 21.9177 60.8088 23.4434 60.7 24.8551C60.6922 24.9613 60.599 25.0405 60.4922 25.0328L60.4941 25.0308Z" fill="#112544"/>
<path d="M54.4075 24.8415C54.3045 23.4259 53.9744 21.9022 52.6829 21.2784C51.708 20.8072 50.5447 21.1046 49.5795 21.3537C49.2901 21.429 48.991 21.5063 48.69 21.5661C46.3789 22.0335 45.1826 20.9906 45.033 19.8937C45.0195 19.7875 45.0933 19.6909 45.2001 19.6774C45.3069 19.6639 45.404 19.7373 45.4176 19.8435C45.538 20.7357 46.5479 21.6086 48.6123 21.1895C48.9017 21.1297 49.1969 21.0543 49.4823 20.981C50.5544 20.7029 51.7682 20.4055 52.8538 20.9308C54.2871 21.6241 54.6813 23.2424 54.7959 24.8144C54.8036 24.9207 54.7221 25.0134 54.6153 25.0211C54.5026 25.0288 54.4152 24.9438 54.4075 24.8415Z" fill="#112544"/>
<path d="M57.107 24.7304C57.1633 24.7342 57.3225 24.769 57.4449 24.7748C57.2895 24.7845 57.0487 24.7381 56.9069 24.7149C56.973 24.7188 57.0409 24.7265 57.107 24.7304Z" fill="#FC6054"/>
<path d="M56.8738 24.9046C56.7709 24.8872 56.701 24.7945 56.7126 24.6922C56.7243 24.5898 56.8156 24.5164 56.9185 24.5222C57.1943 24.5435 57.101 24.5358 57.1205 24.5377C57.1982 24.5435 57.3399 24.5763 57.4506 24.5802C57.5536 24.584 57.6371 24.669 57.6371 24.7714C57.6371 24.8737 57.5574 24.9606 57.4545 24.9664C57.2797 24.9761 57.0506 24.9336 56.8738 24.9046Z" fill="#112544"/>
<path d="M57.603 24.685C57.5894 24.5826 57.4787 24.4088 57.4515 24.3509C57.1602 23.7078 56.8689 23.0666 56.5776 22.4235C56.4106 22.0566 56.2435 21.6897 56.0785 21.3227C55.6473 20.3745 55.1424 19.322 54.0839 19.0149C53.2217 18.7677 52.3574 19.1907 52.2176 20.2161C52.1729 20.5387 52.204 20.865 52.2584 21.1856C52.4837 22.5394 53.1479 23.8411 54.4199 24.3528C54.7909 24.5015 55.187 24.5672 55.5852 24.6077C55.4395 24.5962 55.2939 24.5846 55.1463 24.573C52.204 24.3451 49.8755 23.3582 49.1627 19.1057C48.9879 18.0705 48.9879 16.9504 49.7259 16.1992C50.3085 15.6063 51.2466 15.4499 52.0467 15.6816C52.8449 15.9114 53.513 16.4792 54.0101 17.1436C54.5054 17.8079 54.853 18.5688 55.1948 19.3239C55.457 19.9033 55.7192 20.4826 55.9814 21.062C56.4416 22.0759 56.9019 23.0898 57.3602 24.1037C57.4088 24.2061 57.6185 24.5363 57.5991 24.6869L57.603 24.685Z" fill="#8D95FF"/>
<path d="M53.9968 17.1297C53.6667 16.8729 53.2996 16.672 52.8976 16.5542C52.0994 16.3244 51.1594 16.4789 50.5788 17.0737C50.2195 17.4387 50.0214 17.9408 49.9515 18.4507C49.8816 18.9586 49.9301 19.4742 50.0156 19.9802C50.1903 21.0192 50.5147 22.0428 51.0759 22.9369C51.1769 23.0972 51.2837 23.2536 51.4003 23.4043C50.0991 22.344 49.4407 20.7566 49.1649 19.1054C48.9901 18.0644 48.9921 16.952 49.7281 16.1969C50.3108 15.604 51.2488 15.4476 52.047 15.6794C52.8393 15.9072 53.5035 16.4692 53.9988 17.1278L53.9968 17.1297Z" fill="#757BFF"/>
<path d="M57.4087 24.712C57.4009 24.656 57.296 24.4841 57.2727 24.43C56.995 23.8198 56.7173 23.2076 56.4415 22.5954L55.8997 21.4019C55.4938 20.5058 55.0083 19.4842 54.0294 19.2003C53.3012 18.9917 52.536 19.3181 52.4098 20.2412C52.3729 20.498 52.3865 20.78 52.4505 21.1508C52.6642 22.4351 53.2856 23.6865 54.4917 24.1712C54.8704 24.3238 55.284 24.3817 55.6045 24.4146C55.7093 24.4262 55.787 24.5189 55.7773 24.6231C55.7676 24.7274 55.6763 24.8047 55.5695 24.7989L55.1306 24.7641C51.9048 24.5131 49.6753 23.3408 48.9703 19.1365C48.7839 18.0396 48.7975 16.8673 49.586 16.062C50.188 15.4479 51.1746 15.2258 52.099 15.4942C53.0662 15.7723 53.7556 16.4811 54.1635 17.0276C54.6723 17.7094 55.0277 18.4896 55.3695 19.2428L57.5368 24.0225C57.5466 24.0419 57.564 24.0728 57.5835 24.1114C57.7097 24.3412 57.8126 24.544 57.7913 24.7081C57.7641 24.9302 57.4378 24.9341 57.4067 24.7081L57.4087 24.712ZM49.8656 16.3343C49.1762 17.0392 49.1917 18.1091 49.3549 19.0747C49.7899 21.6703 51.126 23.7966 53.7906 24.235C52.7807 23.5533 52.266 22.4158 52.066 21.2165C51.9942 20.8032 51.9825 20.4865 52.0233 20.1891C52.1787 19.0535 53.1613 18.5494 54.1363 18.8295C54.4587 18.9222 54.7325 19.0863 54.9578 19.2737C54.6412 18.5784 54.3091 17.8696 53.8527 17.2594C53.4798 16.7611 52.8545 16.1161 51.9922 15.867C51.2465 15.6507 50.3803 15.809 49.8656 16.3343Z" fill="#112544"/>
<path d="M56.8908 24.7141C56.3955 24.6754 55.9255 24.6426 55.5837 24.6078C56.8014 24.7005 56.8306 24.7044 56.8908 24.7141Z" fill="#FC6054"/>
<path d="M56.8749 24.9071C56.3467 24.8666 55.8961 24.8357 55.5621 24.8009C55.4572 24.7893 55.3795 24.6966 55.3892 24.5924C55.399 24.4861 55.4941 24.4089 55.5971 24.4166C56.7506 24.5054 56.8497 24.5132 56.9196 24.5228C57.0225 24.5383 57.0944 24.6329 57.0827 24.7353C57.0711 24.8357 56.9818 24.9129 56.8749 24.9052V24.9071Z" fill="#112544"/>
<path d="M57.6038 24.6882C57.6175 24.7735 57.5415 24.7812 57.446 24.7735C57.522 24.7696 57.5941 24.758 57.6038 24.6882Z" fill="#FC6054"/>
<path d="M57.431 24.9664C57.3281 24.9587 57.2504 24.8737 57.2504 24.7714C57.2504 24.669 57.332 24.586 57.4349 24.5802C57.4369 24.5802 57.4388 24.5802 57.4407 24.5802C57.4757 24.528 57.5359 24.4952 57.6019 24.4952C57.8777 24.5049 57.9049 24.9993 57.431 24.9664ZM57.4563 24.6092C57.4174 24.6478 57.4058 24.6922 57.4116 24.7192L57.4505 24.7134L57.4582 24.6092H57.4563Z" fill="#112544"/>
<path d="M58.0979 24.7892C58.1659 24.7854 58.2338 24.7796 58.3018 24.7738C58.1581 24.795 57.9173 24.8394 57.7619 24.8317C57.8843 24.8278 58.0416 24.7931 58.0979 24.7892Z" fill="#FC6054"/>
<path d="M57.751 25.0245C57.6481 25.0187 57.5665 24.9337 57.5665 24.8294C57.5665 24.7251 57.65 24.6421 57.753 24.6382C57.9239 24.6324 57.8714 24.6092 58.287 24.5803C58.3919 24.5725 58.4813 24.6498 58.4929 24.7522C58.5046 24.8545 58.4308 24.9491 58.3278 24.9646L58.2521 24.9762C58.1025 24.9994 57.9006 25.0322 57.7491 25.0245H57.751Z" fill="#112544"/>
<path d="M64.993 22.1469C63.6802 24.2153 62.0974 24.4895 60.0582 24.6402C59.9125 24.6498 59.7688 24.6614 59.6251 24.673C60.0213 24.6324 60.4194 24.5687 60.7884 24.4219C61.4099 24.1747 61.9245 23.6958 62.2819 23.1338C62.6392 22.5699 62.847 21.921 62.9597 21.2624C63.014 20.9438 63.047 20.6155 63.0043 20.293C62.9597 19.9704 62.8354 19.6518 62.6101 19.42C62.243 19.0435 61.6488 18.943 61.1419 19.0859C60.635 19.2308 60.2116 19.5881 59.8951 20.0071C59.5785 20.4262 59.3571 20.9071 59.1396 21.3841C58.9726 21.751 58.8056 22.116 58.6366 22.483C58.3414 23.1241 58.0481 23.7653 57.7549 24.4065C57.7277 24.4625 57.6151 24.6402 57.6015 24.7425C57.5801 24.5957 57.7957 24.2636 57.8442 24.1593C58.3084 23.1473 58.7706 22.1334 59.2347 21.1234L60.031 19.3872C60.7166 17.8866 61.5225 16.2335 63.1927 15.7546C64.5289 15.3741 65.9136 16.0192 66.135 17.6607C66.2728 18.7055 65.8864 20.7313 64.993 22.145V22.1469Z" fill="#8D95FF"/>
<path d="M64.9888 22.147C64.3984 23.0778 63.5711 23.8291 62.5107 24.2288C63.037 23.8349 63.4837 23.3347 63.8372 22.7785C64.4004 21.8882 64.7286 20.8646 64.9073 19.8276C64.9947 19.3216 65.0452 18.8059 64.9791 18.2961C64.9112 17.7882 64.7131 17.2861 64.3557 16.9172C63.777 16.3224 62.839 16.1621 62.0388 16.39C62.0233 16.3938 62.0077 16.3996 61.9961 16.4035C62.3515 16.1138 62.7535 15.884 63.1924 15.7585C64.5208 15.3819 65.9055 16.0095 66.1347 17.6646C66.2706 18.7152 65.8803 20.7468 64.9908 22.147H64.9888Z" fill="#757BFF"/>
<path d="M57.6023 24.9357C57.5052 24.9357 57.4237 24.8662 57.4101 24.7715C57.3771 24.5437 57.6121 24.1999 57.6684 24.0802L59.8552 19.3081C60.564 17.7554 61.3972 16.0694 63.1392 15.5712C64.5822 15.1618 66.0873 15.8628 66.3262 17.6376C66.4699 18.7307 66.0737 20.8009 65.157 22.2494C63.8034 24.3834 62.1526 24.6788 60.0727 24.8314C59.927 24.8411 59.7852 24.8527 59.6396 24.8642C59.5328 24.8739 59.4396 24.7947 59.4298 24.6904C59.4201 24.5842 59.4978 24.4915 59.6027 24.4799C59.9426 24.4452 60.3426 24.3892 60.7136 24.2424C61.2593 24.0261 61.7565 23.5935 62.1157 23.0296C62.4245 22.541 62.644 21.9346 62.7663 21.2297C62.8304 20.855 62.844 20.575 62.811 20.3181C62.7819 20.0999 62.6964 19.789 62.4692 19.5553C62.1759 19.254 61.6632 19.1401 61.1932 19.2714C60.6631 19.422 60.2785 19.8179 60.0494 20.1231C59.7445 20.5286 59.525 21.0037 59.3153 21.4653L58.8123 22.5641C57.8529 24.6499 57.9539 24.4529 57.8898 24.5668C57.8645 24.6112 57.7985 24.7291 57.7927 24.7715C57.7674 24.9376 57.581 24.9454 57.6004 24.9376L57.6023 24.9357ZM61.5953 18.8292C62.04 18.8292 62.4614 18.9894 62.7489 19.2849C63.0499 19.5939 63.1586 19.9898 63.1975 20.266C63.248 20.6464 63.1975 21.0153 63.1509 21.2934C63.0188 22.0504 62.7819 22.7032 62.4459 23.2343C62.1682 23.6727 61.8128 24.0377 61.4146 24.3042C62.7994 24.0821 63.9452 23.4313 64.8269 22.0427C65.7008 20.6619 66.0679 18.6592 65.9397 17.6878C65.7338 16.1525 64.4385 15.6021 63.2441 15.942C61.6924 16.3862 60.8961 17.9601 60.2649 19.3371C60.4922 19.1536 60.7641 18.9914 61.0864 18.8987C61.2554 18.8504 61.4263 18.8272 61.5953 18.8272V18.8292Z" fill="#112544"/>
<path d="M57.7641 24.8316C57.6979 24.8355 57.6414 24.8316 57.618 24.8084C57.6044 24.7948 57.6005 24.7716 57.6044 24.7445C57.6161 24.8161 57.6843 24.8278 57.7641 24.8316Z" fill="#FC6054"/>
<path d="M57.4095 24.721C57.4308 24.5395 57.6678 24.4873 57.7649 24.638C58.0174 24.6495 58.0154 25.0088 57.7746 25.0242C57.5027 25.0435 57.3901 24.9025 57.4095 24.7229V24.721ZM57.7571 24.7596L57.796 24.7635C57.796 24.7519 57.7921 24.7075 57.7532 24.6689C57.7532 24.6689 57.7513 24.6669 57.7493 24.665L57.7552 24.7577L57.7571 24.7596Z" fill="#112544"/>
<path d="M59.6249 24.6725C59.2812 24.7054 58.8403 24.7343 58.314 24.773C58.3839 24.7614 58.481 24.7556 59.6249 24.6725Z" fill="#FC6054"/>
<path d="M58.1196 24.7946C58.108 24.6923 58.1798 24.5976 58.2828 24.5822C58.3605 24.5706 58.3119 24.5745 59.6112 24.4798C59.7199 24.474 59.8093 24.5513 59.819 24.6556C59.8287 24.7618 59.7491 24.8545 59.6442 24.8641C59.3024 24.897 58.879 24.924 58.3294 24.9646C58.2265 24.9723 58.1332 24.8989 58.1216 24.7946H58.1196Z" fill="#112544"/>
<path d="M54.6937 24.8279C54.6975 23.2327 56.0026 21.9408 57.6068 21.9446C59.2129 21.9485 60.5121 23.2443 60.5082 24.8395L54.6937 24.8279Z" fill="#8D95FF"/>
<path d="M60.5101 24.8395H59.9644C59.6692 23.5591 58.5176 22.607 57.1387 22.6032C56.3017 22.6032 55.5481 22.9527 55.0179 23.5147C55.4996 22.5819 56.4803 21.9427 57.6087 21.9446C59.2148 21.9485 60.5121 23.2443 60.5101 24.8395Z" fill="#757BFF"/>
<path d="M60.5094 25.0327C56.9768 25.0269 58.3964 25.0289 54.6948 25.0212C54.588 25.0212 54.5006 24.9342 54.5006 24.828C54.5006 24.0053 54.8269 23.2309 55.4134 22.6496C55.9999 22.0702 56.7767 21.7516 57.6021 21.7516H57.6079C58.4372 21.7516 59.214 22.076 59.8005 22.6593C60.3851 23.2425 60.7056 24.0169 60.7056 24.8415C60.7056 24.9478 60.6182 25.0347 60.5113 25.0347L60.5094 25.0327ZM54.8949 24.6368L60.3074 24.6465C60.2628 23.9995 59.9889 23.3951 59.5228 22.9316C59.0121 22.4217 58.3304 22.1398 57.606 22.1378H57.6002C56.8777 22.1378 56.198 22.4179 55.6853 22.9238C55.2172 23.3873 54.9415 23.9879 54.8929 24.6349L54.8949 24.6368Z" fill="#112544"/>
<path d="M46.1245 49.3452C46.6236 49.5751 47.8413 49.4727 48.3637 49.4379C49.6824 49.353 50.0708 48.9725 49.7678 48.6056C49.6707 48.4878 49.5562 48.4241 49.395 48.3912C50.2864 48.3178 50.7719 47.8505 50.5272 47.5531C50.4165 47.4198 50.2378 47.3464 49.997 47.3117C50.8457 47.2286 51.2302 46.7516 50.9855 46.4542C50.8671 46.3113 50.5796 46.2418 50.2398 46.2147C50.9389 46.1124 51.4885 46.0158 51.3487 45.5349C51.1273 44.7644 48.4705 45.1931 48.4705 45.1931C48.4705 45.1931 49.8688 43.567 49.426 43.1634C48.8939 42.6787 46.7557 43.8065 46.1789 44.3202C45.1845 45.2066 43.1046 47.9586 46.1245 49.3452Z" fill="#FCBBA4"/>
<path d="M23.1348 90.8456L23.4882 95.1367L16.959 95.2797L16.8619 89.9688L23.1348 90.8456Z" fill="#FCBBA4"/>
<path d="M27.5593 95.7971C26.8096 95.378 25.8638 95.6793 24.485 95.1463C23.8344 94.8952 23.6013 94.0899 23.5372 93.3058C23.5256 93.159 23.3819 93.0625 23.2401 93.1049C20.8785 93.7925 18.8044 93.8543 17.0779 93.1552C16.9283 93.0953 16.7652 93.2015 16.7613 93.3618L16.6487 97.4367C16.6157 98.6012 17.5401 99.5726 18.7112 99.6035L27.8797 99.8044C28.2992 99.816 28.6546 99.5031 28.6973 99.086C28.7964 98.1203 28.7673 96.4672 27.5612 95.7951L27.5593 95.7971Z" fill="white"/>
<path d="M27.8991 99.9996C27.8991 99.9996 27.8816 99.9996 27.8719 99.9996L18.7033 99.7988C17.439 99.764 16.4156 98.7211 16.4505 97.433L16.5632 93.3581C16.5709 93.0646 16.8719 92.8657 17.1477 92.9777C18.7694 93.6343 20.8008 93.615 23.1837 92.9217C23.4439 92.8444 23.7081 93.026 23.7294 93.2925C23.7819 93.9317 23.9683 94.7409 24.5548 94.9688C25.9123 95.4941 26.8484 95.1812 27.6544 95.6312C28.9633 96.3631 28.9905 98.1244 28.8895 99.1112C28.8371 99.6153 28.406 100.003 27.901 100.003L27.8991 99.9996ZM16.9516 93.3678L16.8389 97.4427C16.8098 98.501 17.6488 99.3836 18.713 99.4125L27.8816 99.6134C28.2059 99.625 28.4681 99.3874 28.5011 99.0688C28.5924 98.1765 28.5788 96.5891 27.4621 95.9653C26.7804 95.5848 25.7919 95.8591 24.4111 95.326C23.7916 95.0866 23.4303 94.4126 23.341 93.3214C23.3391 93.2983 23.3177 93.2828 23.2925 93.2905C20.8241 94.0109 18.7072 94.0244 17.0021 93.3349C16.9768 93.3253 16.9535 93.3446 16.9516 93.3678Z" fill="#112544"/>
<path d="M11.208 86.4649L8.17256 89.5355L3.79706 84.7133L7.77832 81.1695L11.208 86.4649Z" fill="#FCBBA4"/>
<path d="M10.3287 93.034C10.1578 92.1958 9.31102 91.6802 8.81579 90.2935C8.58857 89.6582 9.01777 88.9784 9.5499 88.4261C9.6703 88.3005 9.64117 88.0939 9.48969 88.007C7.50294 86.8753 6.27749 85.2955 5.52397 83.4377C5.456 83.2697 5.24237 83.2175 5.10059 83.3315L1.9486 85.8904C1.03971 86.6281 0.905706 87.9568 1.64758 88.8606L7.48547 95.8941C7.75153 96.2185 8.22151 96.2804 8.56526 96.0409C9.3654 95.4847 10.6044 94.382 10.3287 93.034Z" fill="white"/>
<path d="M8.10433 96.3769C7.81496 96.3769 7.52753 96.2533 7.33332 96.0158L1.49544 88.9822C0.679763 87.9876 0.840956 86.5392 1.82365 85.7397L4.97564 83.1808C5.21452 82.9858 5.58351 83.0707 5.70198 83.3643C6.50406 85.3438 7.77417 86.8077 9.58419 87.8389C9.84637 87.9876 9.89687 88.343 9.68906 88.5593C9.25986 89.0035 8.79182 89.6543 8.99768 90.2279C9.48515 91.5913 10.3338 92.0934 10.5183 92.9953C10.8174 94.4592 9.49291 95.6295 8.6753 96.1973C8.50245 96.317 8.30242 96.375 8.10433 96.375V96.3769ZM5.22228 83.4821L2.07029 86.041C1.24491 86.7111 1.12256 87.9181 1.79646 88.7389L7.6324 95.7724C7.83632 96.0196 8.18784 96.0679 8.45196 95.8844C9.18995 95.3707 10.3902 94.3221 10.1357 93.0745C9.97843 92.302 9.13169 91.7632 8.63063 90.3611C8.41312 89.7509 8.67336 89.0556 9.40746 88.2947C9.44048 88.26 9.43271 88.202 9.38998 88.1769C7.50228 87.1012 6.17779 85.5755 5.34075 83.513C5.32133 83.4666 5.26113 83.4512 5.22034 83.484L5.22228 83.4821Z" fill="#112544"/>
<path d="M31.277 47.0605C31.277 47.0605 43.1043 65.5463 33.324 73.1939C22.0444 82.0158 14.715 88.1435 14.715 88.1435C13.138 89.5417 5.76004 81.3031 7.33701 79.9068L22.8833 65.4709L19.4711 47.0605H31.2751H31.277Z" fill="white"/>
<path d="M9.69825 85.2001C7.93678 83.2341 6.22775 80.6289 7.2085 79.7618L22.6752 65.4012L19.2824 47.0951C19.261 46.9773 19.3523 46.8672 19.4727 46.8672H31.2767C31.3427 46.8672 31.4049 46.9 31.4398 46.9561C31.4689 47.0024 34.4306 51.6644 36.1532 57.2012C38.4488 64.5824 37.5107 70.1636 33.444 73.3443C22.2946 82.0619 14.9127 88.2283 14.8389 88.2901C13.6834 89.3117 10.7295 86.355 9.69631 85.2001H9.69825ZM19.7058 47.2535L23.0753 65.436C23.0869 65.5016 23.0656 65.5673 23.017 65.6117L7.47068 80.0476C7.18326 80.3025 7.2959 80.9727 7.77559 81.89C8.24752 82.7919 9.03211 83.8773 9.98762 84.9433C10.9431 86.0113 11.9375 86.9131 12.7842 87.4809C13.6465 88.0603 14.3029 88.2476 14.5865 87.9985C14.6641 87.9328 22.0518 81.7645 33.2052 73.0411C38.1691 69.1594 37.3476 62.3499 35.7862 57.3209C34.2112 52.2515 31.5874 47.9217 31.1699 47.2515H19.7058V47.2535Z" fill="#112544"/>
<path d="M14.0185 47.0609C14.0185 47.0609 8.94968 56.6958 16.1762 66.8791L14.7798 90.5598C14.8186 92.0565 23.6648 92.0565 24.6766 90.5598C24.6766 90.5598 32.9596 61.7517 24.3271 47.0609H14.0185Z" fill="white"/>
<path d="M15.761 91.4882C14.992 91.2661 14.5958 90.9552 14.5861 90.5632L15.9786 66.9346C12.2478 61.645 11.8614 56.5118 12.1954 53.1321C12.5586 49.4551 13.7957 47.07 13.8481 46.9715C13.8811 46.9078 13.9471 46.8672 14.0209 46.8672H24.3295C24.3994 46.8672 24.4616 46.9039 24.4965 46.9638C28.9827 54.5979 28.8409 66.0636 27.934 74.3408C26.9513 83.2921 24.8849 90.5419 24.8655 90.6134C24.8597 90.6327 24.8519 90.652 24.8403 90.6674C23.943 91.9961 18.0449 92.1506 15.763 91.4901L15.761 91.4882ZM14.1394 47.2535C13.9005 47.7517 12.8907 49.9997 12.578 53.1862C12.2517 56.5079 12.6401 61.5619 16.334 66.7666C16.3592 66.8033 16.3709 66.8458 16.3689 66.8902L14.9726 90.5709C14.9784 90.7466 15.3124 90.959 15.8679 91.1193C18.212 91.7972 23.7139 91.523 24.4985 90.4762C24.648 89.949 26.6017 82.9136 27.5456 74.2926C28.4428 66.1119 28.5885 54.7968 24.2149 47.2554H14.1375L14.1394 47.2535Z" fill="#112544"/>
<path d="M22.4984 91.6159C22.3955 91.587 22.3353 91.4808 22.3644 91.3765C22.3858 91.305 24.423 84.1151 25.4698 75.2005C26.435 66.9889 26.7321 55.5928 22.6751 47.9393C22.6246 47.8447 22.6615 47.7288 22.7567 47.6786C22.8519 47.6284 22.9684 47.6651 23.0189 47.7597C27.1244 55.5039 26.8273 66.9851 25.8563 75.2527C24.8056 84.1962 22.7586 91.4112 22.7392 91.4827C22.7101 91.585 22.6013 91.6449 22.4984 91.6159Z" fill="#112544"/>
<path d="M37.0873 37.5878C36.6135 41.4406 33.545 51.2106 33.545 51.2106C33.545 51.2106 31.4145 49.0264 27.4896 48.2288C26.0991 47.9469 24.4833 47.8368 22.6577 48.0608C13.3998 49.1944 12.9998 49.264 13.0308 46.8538C13.0619 44.3586 13.7785 40.2007 15.3225 36.4194C17.2529 31.684 20.4768 27.5357 25.2756 27.9683C33.9062 28.7466 37.6758 32.8061 37.0854 37.5878H37.0873Z" fill="#FC6054"/>
<path d="M27.4922 48.2288C26.1017 47.9468 24.4859 47.8368 22.6603 48.0608C13.4025 49.1944 13.0024 49.2639 13.0335 46.8538C13.0645 44.3586 13.7812 40.2007 15.3251 36.4193C15.3523 36.5217 15.3756 36.6183 15.4008 36.7013C15.8475 38.198 15.999 39.7816 15.8495 41.3362C15.7621 42.2246 15.5795 43.1033 15.296 43.9511C14.993 44.8588 14.5929 45.9055 15.1115 46.7128C15.5504 47.4003 16.467 47.5799 17.2827 47.661C20.1201 47.9488 23.0021 47.8001 25.7968 47.2265C26.3561 47.1106 27.0494 47.0256 27.3893 47.4814C27.5544 47.7035 27.568 47.97 27.4922 48.2307V48.2288Z" fill="#E64B38"/>
<path d="M35.2545 44.3707C35.1535 44.3379 35.0972 44.2278 35.1302 44.1274C36.142 41.0606 36.7363 38.8513 36.8936 37.5651C37.148 35.4948 36.5518 33.5964 35.171 32.0727C35.0991 31.9935 35.1049 31.8718 35.1846 31.8004C35.2642 31.7289 35.3865 31.7347 35.4584 31.8139C36.9188 33.4226 37.5481 35.4272 37.2801 37.6114C37.1189 38.9227 36.5188 41.1572 35.4992 44.2471C35.4662 44.3495 35.3555 44.4035 35.2545 44.3707Z" fill="#112544"/>
<path d="M32.5927 28.5262L32.0975 30.5733C31.5479 32.8464 25.5236 29.7062 26.7587 27.6321L29.2116 23.59L29.6019 22.5954C30.3652 22.6785 29.9379 20.8187 30.235 20.1042C30.7827 19.9458 32.4063 20.9597 32.585 20.3765C32.6296 20.2316 32.6529 20.0848 32.6587 19.94C32.8044 20.0211 32.9617 20.0906 33.1307 20.1409C33.6181 20.2876 34.0998 20.2683 34.4727 20.1215C34.527 20.473 34.7756 20.7801 35.1407 20.8902C35.3272 20.9462 35.5175 20.9442 35.6923 20.8902C35.6923 20.9095 35.9797 24.4166 35.9389 25.6236C35.801 29.3837 32.5947 28.5262 32.5947 28.5262H32.5927Z" fill="#FCBBA4"/>
<path d="M29.9386 26.9568C30.2357 28.0499 31.5622 29.5601 32.2905 29.7726L32.5934 28.525C31.7836 28.2237 30.9737 27.6154 30.1639 26.8294C30.0668 26.7347 29.9056 26.8274 29.9405 26.9568H29.9386Z" fill="#E2805D"/>
<path d="M33.2861 17.7367C33.7192 17.391 34.6184 17.2732 35.1913 17.447C37.8442 18.2485 36.1759 20.564 36.1507 20.591C36.4459 20.7146 36.4517 21.0912 36.4304 21.3442C36.3896 21.8598 36.0808 22.2963 35.7778 22.0742L35.6904 20.8884C34.3873 23.6945 31.5052 18.4358 29.2136 23.5883L28.6659 24.4882C28.4892 24.3743 28.3377 24.2314 28.2173 24.0692C27.8969 23.6424 27.7803 23.0785 27.9474 22.53C28.0289 22.2654 28.1668 22.0337 28.3494 21.8425C28.0639 21.4253 27.1841 18.9379 30.0759 18.7892C29.6661 17.4219 31.2547 16.9024 32.1461 17.1728C32.484 17.2751 33.0744 17.4837 33.2842 17.7367H33.2861Z" fill="#112544"/>
<path d="M26.42 28.0282C26.4355 27.922 26.5326 27.8486 26.6394 27.864C26.7462 27.8795 26.82 27.976 26.8045 28.0823C26.5404 29.9768 31.481 32.329 31.9122 30.531L32.0908 29.7933C32.1161 29.689 32.2209 29.6253 32.3258 29.6504C32.4307 29.6755 32.4948 29.7798 32.4695 29.8841L32.2909 30.6218C31.7277 32.9721 26.0956 30.3727 26.4219 28.0301L26.42 28.0282Z" fill="#112544"/>
<path d="M33.0725 23.2409C33.0356 23.3876 32.8841 23.4784 32.7365 23.4417C32.5889 23.405 32.4976 23.2544 32.5345 23.1076C32.5714 22.9608 32.7229 22.8701 32.8705 22.9068C33.0181 22.9435 33.1094 23.0941 33.0725 23.2409Z" fill="#112544"/>
<path d="M33.4758 22.3312C33.5419 22.3506 33.6215 22.393 33.6137 22.4606C33.6079 22.5282 33.5224 22.5553 33.4545 22.563C33.0486 22.6074 32.5902 22.59 32.2018 22.4548C32.029 22.395 32.0251 22.2385 32.2018 22.1903C32.4931 22.1111 33.1554 22.2327 33.4758 22.3312Z" fill="#112544"/>
<path d="M35.2589 23.532C35.2142 23.6769 35.0589 23.7599 34.9132 23.7155C34.7676 23.6711 34.6841 23.5166 34.7287 23.3717C34.7734 23.2269 34.9288 23.1438 35.0744 23.1883C35.2201 23.2327 35.3036 23.3872 35.2589 23.532Z" fill="#112544"/>
<path d="M34.4608 22.4816C34.3928 22.4874 34.3054 22.5106 34.2977 22.5801C34.2899 22.6477 34.3676 22.6902 34.4317 22.7134C34.8201 22.8408 35.2706 22.92 35.6785 22.8698C35.861 22.8466 35.896 22.696 35.7348 22.611C35.4668 22.472 34.7929 22.4546 34.4589 22.4836L34.4608 22.4816Z" fill="#112544"/>
<path d="M31.4757 22.0355C31.2718 22.7037 30.561 23.0803 29.889 22.8775C29.219 22.6747 28.8384 21.9679 29.0423 21.2997C29.2462 20.6334 29.957 20.2549 30.629 20.4577C31.3009 20.6605 31.6796 21.3673 31.4757 22.0355Z" fill="#112544"/>
<path d="M30.2683 23.4957C30.1032 24.0345 29.5322 24.3377 28.9904 24.1735C28.4505 24.0094 28.1436 23.4416 28.3087 22.9028C28.4738 22.3659 29.0467 22.0608 29.5866 22.2249C30.1284 22.3891 30.4333 22.9588 30.2683 23.4957Z" fill="#FCBBA4"/>
<path d="M34.0635 25.0793C33.8673 25.0793 33.6634 24.9788 33.6071 24.9479C33.5119 24.8977 33.477 24.7799 33.5275 24.6872C33.578 24.5926 33.6964 24.5578 33.7897 24.608C33.8868 24.6583 34.0169 24.6988 34.0693 24.693C34.1703 24.5153 34.0557 23.9089 33.877 23.4319C33.8401 23.3315 33.8906 23.2214 33.9916 23.1828C34.0926 23.1461 34.2033 23.1963 34.2422 23.2967C34.3179 23.4995 34.6791 24.5308 34.3703 24.9383C34.2926 25.0426 34.18 25.0754 34.0654 25.0754L34.0635 25.0793Z" fill="#E2805D"/>
<path d="M46.1072 49.3608C34.4702 51.7265 25.4104 49.1329 21.1476 42.5532C19.8192 40.5061 18.9589 38.0747 18.6248 35.286L22.1613 31.943C22.1613 31.943 28.0361 29.8805 31.7805 41.5161C31.7805 41.5161 36.2006 40.6393 41.5336 42.2712C43.0115 42.7231 44.5632 43.3682 46.1072 44.2797C45.3187 45.9 45.4274 47.0877 46.1072 49.3627V49.3608Z" fill="#FC6054"/>
<path d="M46.1068 49.3604C34.4699 51.7261 25.4101 49.1325 21.1472 42.5528C21.1919 42.5779 21.2366 42.605 21.2793 42.632C24.0545 44.3566 27.5561 46.6837 30.5818 47.9236C33.794 49.2406 37.4141 48.9394 40.871 48.6149C41.6128 48.5454 42.3702 48.472 43.048 48.1669C43.7278 47.8598 44.322 47.2747 44.4347 46.5408C44.5784 45.5906 43.8967 44.7196 43.1879 44.065C42.7509 43.6613 42.2848 43.279 41.9177 42.8097C41.8168 42.6803 41.6284 42.4659 41.5332 42.2689C43.0111 42.7208 44.5629 43.3659 46.1068 44.2774C45.3183 45.8977 45.4271 47.0854 46.1068 49.3604Z" fill="#E64B38"/>
<path d="M38.12 50.3901C32.7851 50.3901 28.2134 49.1445 24.84 46.7131C21.2258 44.1079 19.0119 40.1643 18.4331 35.3092C18.4215 35.203 18.4972 35.1064 18.604 35.0948C18.7108 35.0832 18.8079 35.1586 18.8196 35.2648C19.3847 40.0098 21.5463 43.8607 25.0692 46.4022C29.9089 49.8919 37.2849 50.8884 45.8611 49.214C45.2668 47.1746 45.1348 45.9329 45.8572 44.3531C39.058 40.2512 31.8937 41.69 31.8218 41.7054C31.7247 41.7267 31.6276 41.6687 31.5965 41.576C29.6933 35.6645 27.2424 33.4089 25.5217 32.5611C23.6593 31.6418 22.2396 32.1227 22.226 32.1265C22.125 32.1632 22.0143 32.1091 21.9774 32.0087C21.9425 31.9083 21.9949 31.7982 22.0959 31.7615C22.16 31.7384 23.6864 31.2227 25.6946 32.2134C28.2659 33.4823 30.3594 36.5394 31.915 41.296C33.0725 41.1009 39.8271 40.1855 46.2087 44.1137C46.2942 44.1658 46.3253 44.272 46.2806 44.3628C45.4999 45.9676 45.6436 47.1341 46.2922 49.3067C46.3078 49.3589 46.3 49.4149 46.2728 49.4612C46.2437 49.5076 46.199 49.5404 46.1446 49.5501C43.3306 50.112 40.6408 50.3901 38.12 50.3901Z" fill="#112544"/>
<path d="M30.0721 41.7073C29.977 41.7073 29.8935 41.6378 29.8799 41.5413C29.8643 41.435 29.9381 41.3385 30.0449 41.323C30.614 41.24 31.2063 41.24 31.8084 41.323C31.9152 41.3385 31.989 41.435 31.9734 41.5413C31.9579 41.6475 31.8608 41.7209 31.754 41.7054C31.1888 41.6282 30.6315 41.6282 30.0993 41.7054C30.0896 41.7054 30.0799 41.7073 30.0702 41.7073H30.0721Z" fill="#112544"/>
<path d="M17.4192 56.2877C17.3978 56.1834 17.4658 56.0811 17.5726 56.0598C18.6311 55.8513 19.4098 55.353 19.8818 54.5824C20.88 52.9564 20.2294 50.6292 20.2216 50.6061C20.1925 50.5037 20.2527 50.3975 20.3556 50.3666C20.4586 50.3376 20.5654 50.3975 20.5964 50.4998C20.6256 50.6022 21.3014 53.0143 20.2139 54.7852C19.6817 55.6524 18.8175 56.2105 17.6484 56.4403C17.5416 56.4615 17.4406 56.392 17.4192 56.2877Z" fill="#112544"/>
<path d="M20.1375 95.316C18.2207 95.316 16.7661 94.5976 16.6826 94.5571C16.5874 94.5088 16.5486 94.3929 16.5971 94.2983C16.6457 94.2037 16.7622 94.165 16.8574 94.2133C16.8826 94.2268 19.5005 95.513 22.2544 94.5957C22.3554 94.5609 22.4661 94.6169 22.501 94.7174C22.536 94.8178 22.4797 94.9279 22.3787 94.9626C21.5999 95.2214 20.8367 95.318 20.1375 95.318V95.316Z" fill="#112544"/>
<path d="M9.2343 95.7024C9.17604 95.7024 9.11972 95.6772 9.08088 95.629L1.63107 86.1582C1.56504 86.0733 1.58057 85.9535 1.66408 85.8879C1.74953 85.8222 1.86994 85.8376 1.93597 85.9207L9.38579 95.3895C9.45182 95.4745 9.43628 95.5942 9.35277 95.6599C9.31781 95.6869 9.27509 95.7004 9.23236 95.7004L9.2343 95.7024Z" fill="#112544"/>
<path d="M4.23926 84.0325C4.23926 84.0325 5.44723 87.4392 7.8826 88.6269L4.23926 84.0325Z" fill="white"/>
<path d="M7.88035 88.82C7.85122 88.82 7.82209 88.8142 7.7949 88.8006C5.31681 87.5917 4.10495 84.2391 4.05446 84.0981C4.0195 83.9977 4.07194 83.8876 4.17293 83.8509C4.27392 83.8161 4.38461 83.8683 4.42151 83.9687C4.43317 84.0015 5.63337 87.3155 7.96581 88.453C8.06291 88.4994 8.10175 88.6152 8.05514 88.7118C8.02213 88.7794 7.95221 88.82 7.88035 88.82Z" fill="#112544"/>
<path d="M76.2647 42.3132C76.2647 42.3132 75.0897 41.3457 74.2954 40.8011C73.6157 40.3356 71.3551 40.0653 71.2658 40.5867C71.1842 41.0618 73.1244 41.4519 73.1244 41.4519C73.1244 41.4519 70.8055 41.0541 70.7667 41.6122C70.7278 42.1703 72.4 42.2302 72.4 42.2302C72.4 42.2302 70.6268 42.2031 70.6346 42.8211C70.6424 43.3406 72.3087 43.0509 72.3087 43.0509C72.3087 43.0509 70.5958 43.2962 70.7006 43.9181C70.8075 44.5399 72.5476 43.781 72.5476 43.781C72.5476 43.781 70.9492 44.5032 71.0191 44.9474C71.1124 45.5364 73.2661 45.324 75.3849 46.3649C76.591 45.5654 76.9444 44.0687 76.2608 42.3132H76.2647Z" fill="#FCBBA4"/>
<path d="M76.2329 42.2858C76.2329 42.2858 74.7356 39.0858 73.615 39.6806C72.7858 40.1209 74.4016 42.2762 74.4016 42.2762L76.231 42.2858H76.2329Z" fill="#FCBBA4"/>
<path d="M96.3933 44.2583C96.0068 44.745 95.6068 45.1853 95.1931 45.5812C95.1931 45.5812 95.1918 45.5825 95.1892 45.5851C93.3947 47.3038 91.3711 48.2424 89.4834 48.8121C82.2045 51.0021 75.3936 46.3942 75.3936 46.3942C76.219 45.0617 76.788 43.6268 76.2209 42.2479C76.4035 42.2324 76.5861 42.2189 76.7628 42.2073C77.4289 42.161 78.0601 42.1359 78.6582 42.1262C84.0902 42.0219 86.6382 43.1884 86.6382 43.1884C92.0314 35.562 94.5736 35.0135 97.3507 36.2051C99.8191 37.2634 98.8248 41.1954 96.3952 44.2583H96.3933Z" fill="#8D95FF"/>
<path d="M95.8923 44.3836C95.6864 44.8008 95.4533 45.2006 95.1931 45.581C95.1931 45.581 95.1918 45.5823 95.1892 45.5849C93.3947 47.3037 91.3711 48.2422 89.4834 48.8119C82.2045 51.002 75.3936 46.394 75.3936 46.394C76.219 45.0615 76.788 43.6266 76.2209 42.2477C76.4035 42.2323 76.5861 42.2187 76.7628 42.2071C77.4289 42.1608 78.0601 42.1357 78.6582 42.126C78.8602 42.6629 78.8292 43.2288 78.4 43.7116C78.0193 44.1384 77.3959 44.374 77.2075 44.9128C77.0793 45.2759 77.1998 45.6892 77.4367 45.9924C77.6717 46.2956 78.0096 46.5041 78.3553 46.676C79.5166 47.2515 80.8217 47.4659 82.1132 47.5663C86.8888 47.939 91.7712 46.8131 95.8923 44.3856V44.3836Z" fill="#757BFF"/>
<path d="M85.4187 49.5882C79.8508 49.5882 75.3393 46.589 75.283 46.5523C75.1975 46.4943 75.1723 46.3785 75.2267 46.2916C76.2424 44.6481 76.4929 43.4237 76.0385 42.319C75.988 42.1974 76.0715 42.0641 76.2035 42.0525L76.2929 42.0448C76.4463 42.0332 76.5978 42.0216 76.7473 42.012C82.725 41.6064 85.8634 42.6686 86.5684 42.9486C91.4974 36.0116 94.024 35.0286 96.4924 35.6968C96.5954 35.7239 96.6575 35.8301 96.6284 35.9344C96.5992 36.0387 96.4944 36.0985 96.3895 36.0696C94.0668 35.4419 91.6508 36.4307 86.7937 43.2982C86.7393 43.3735 86.6383 43.4005 86.5529 43.3619C86.5218 43.3484 83.3679 41.9502 76.7706 42.3982C76.6774 42.404 76.5822 42.4117 76.4851 42.4194C76.9435 43.8563 76.2715 45.3028 75.6539 46.3321C76.7046 46.9868 82.9173 50.5847 89.4233 48.6264C92.3014 47.7593 94.5309 46.2916 96.2361 44.1402C96.3021 44.0571 96.4245 44.0417 96.508 44.1073C96.5915 44.173 96.607 44.2947 96.541 44.3777C94.7834 46.5948 92.4918 48.105 89.5359 48.9953C88.1337 49.4182 86.7432 49.5882 85.4148 49.5882H85.4187Z" fill="#112544"/>
<path d="M34.0009 27.0687C33.2726 27.0687 32.6628 26.5627 32.3812 26.1958C32.3171 26.1108 32.3327 25.9911 32.4181 25.9254C32.5036 25.8597 32.624 25.8771 32.69 25.9602C32.7288 26.0084 33.628 27.1479 34.7 26.4642C34.7894 26.4063 34.9098 26.4333 34.9681 26.5221C35.0263 26.611 34.9991 26.7307 34.9098 26.7887C34.5971 26.9876 34.2903 27.0668 34.0028 27.0668L34.0009 27.0687Z" fill="#E2805D"/>
<path d="M29.2338 23.4495L29.0338 23.1811C28.9697 23.0961 28.9891 22.9744 29.0746 22.9107C29.16 22.847 29.2824 22.8663 29.3465 22.9512L29.5465 23.2197C29.6106 23.3047 29.5912 23.4263 29.5057 23.4901C29.4203 23.5538 29.2979 23.5345 29.2338 23.4495Z" fill="#E2805D"/>
<path d="M57.4456 10.8137C57.3387 10.8137 57.2513 10.7268 57.2513 10.6206V4.18186C57.2513 4.07564 57.3387 3.98874 57.4456 3.98874C57.5524 3.98874 57.6398 4.07564 57.6398 4.18186V10.6206C57.6398 10.7268 57.5524 10.8137 57.4456 10.8137Z" fill="#CCD2FF"/>
<path d="M57.4456 1.95917C57.3387 1.95917 57.2513 1.87226 57.2513 1.76605V0.927894C57.2513 0.821677 57.3387 0.734772 57.4456 0.734772C57.5524 0.734772 57.6398 0.821677 57.6398 0.927894V1.76605C57.6398 1.87226 57.5524 1.95917 57.4456 1.95917Z" fill="#CCD2FF"/>
<path d="M51.4648 12.2681L49.5751 9.11057C49.5207 9.0198 49.5499 8.90007 49.6431 8.84599C49.7344 8.79192 49.8548 8.82089 49.9092 8.91359L51.7988 12.0711C51.8532 12.1619 51.824 12.2816 51.7308 12.3357C51.6376 12.3898 51.5191 12.3589 51.4648 12.2681Z" fill="#CCD2FF"/>
<path d="M48.1773 6.69831L47.6102 5.72111C47.5559 5.62841 47.5889 5.51061 47.6821 5.45653C47.7753 5.40246 47.8938 5.43529 47.9482 5.52799L48.5153 6.50519C48.5696 6.59789 48.5366 6.71569 48.4434 6.76977C48.3502 6.82384 48.2317 6.79101 48.1773 6.69831Z" fill="#CCD2FF"/>
<path d="M46.3381 16.1209L44.7805 15.2268C44.6873 15.1727 44.6563 15.0549 44.7087 14.9622C44.7631 14.8695 44.8815 14.8386 44.9748 14.8907L46.5323 15.7849C46.6255 15.839 46.6566 15.9568 46.6042 16.0495C46.5498 16.1422 46.4313 16.1731 46.3381 16.1209Z" fill="#CCD2FF"/>
<path d="M43.0915 14.2571L39.5492 12.1289C39.4579 12.0728 39.4288 11.955 39.4832 11.8643C39.5395 11.7735 39.6579 11.7445 39.7492 11.7986L43.2916 13.9268C43.3828 13.9828 43.412 14.1006 43.3576 14.1914C43.3013 14.2822 43.1828 14.3111 43.0915 14.2571Z" fill="#CCD2FF"/>
<path d="M69.1971 15.4333C69.1427 15.3406 69.1757 15.2227 69.269 15.1687L72.0015 13.6005C72.0947 13.5464 72.2131 13.5793 72.2675 13.672C72.3219 13.7647 72.2889 13.8825 72.1957 13.9365L69.4632 15.5047C69.3699 15.5588 69.2515 15.5259 69.1971 15.4333Z" fill="#CCD2FF"/>
<path d="M74.9702 12.1194C74.9159 12.0267 74.9489 11.9089 75.0421 11.8548L76.588 10.9665C76.6812 10.9124 76.7997 10.9452 76.854 11.0379C76.9084 11.1306 76.8754 11.2484 76.7822 11.3025L75.2363 12.1909C75.145 12.243 75.0246 12.2141 74.9702 12.1194Z" fill="#CCD2FF"/>
<path d="M63.1604 12.3372C63.0671 12.2831 63.0361 12.1653 63.0885 12.0726L63.7721 10.8965C63.8265 10.8038 63.945 10.7729 64.0382 10.825C64.1314 10.8791 64.1625 10.9969 64.11 11.0896L63.4264 12.2657C63.3721 12.3584 63.2536 12.3893 63.1604 12.3372Z" fill="#CCD2FF"/>
<path d="M65.6261 8.0925C65.5329 8.03842 65.5018 7.92062 65.5543 7.82792L67.3934 4.66071C67.4478 4.56801 67.5663 4.53711 67.6595 4.58925C67.7527 4.64333 67.7838 4.76113 67.7313 4.85383L65.8922 8.02104C65.8378 8.11374 65.7193 8.14464 65.6261 8.0925Z" fill="#CCD2FF"/>
<path d="M12.894 24.4019H11.1791C11.0723 24.4019 10.9849 24.315 10.9849 24.2087C10.9849 24.1025 11.0723 24.0156 11.1791 24.0156H12.6726C12.5755 23.191 12.3405 20.3154 13.5096 18.7685C14.8497 16.9937 18.1881 17.069 20.6099 23.1466C20.872 22.237 21.4702 20.5684 22.484 19.9118C22.8763 19.6588 23.2958 19.5757 23.7288 19.6684C23.8337 19.6916 23.8997 19.794 23.8784 19.8983C23.8551 20.0025 23.7541 20.0701 23.6473 20.047C23.3132 19.9755 23.0006 20.0373 22.6937 20.2362C21.4333 21.0512 20.8371 23.8071 20.8313 23.8341C20.7905 24.0234 20.5205 24.0465 20.4564 23.8553C19.062 19.7186 15.745 16.4471 13.8165 19.0002C12.5697 20.6495 13.0765 24.145 13.0824 24.1817C13.0998 24.2995 13.0086 24.4038 12.8901 24.4038L12.894 24.4019Z" fill="#CCD2FF"/>
</g>
<defs>
<clipPath id="clip0_2_2228">
<rect width="97.9759" height="99.2651" fill="white" transform="translate(0.981201 0.734802)"/>
</clipPath>
</defs>
</svg>
