<svg width="31" height="28" viewBox="0 0 31 28" fill="none" xmlns="http://www.w3.org/2000/svg">
<path opacity="0.58" d="M-3.8147e-06 46L2.06679e-07 0.000813635C1.65687 -0.0281016 3.31944 0.717832 4.3707 2.01309C6.70174 4.89274 5.77618 9.62855 8.37574 12.2596C9.89549 13.7977 12.2151 14.162 14.3633 14.2024C16.5115 14.2371 18.7283 14.0405 20.7622 14.7633C24.5959 16.128 26.7327 21.072 25.1215 24.8479C24.3731 26.6 23.0076 27.9935 21.9735 29.5837C20.9393 31.1796 20.2309 33.2266 20.9908 34.9729C22.5334 38.5175 28.3495 37.8005 30.3949 41.0734C31.3147 42.5421 31.1205 44.4677 30.2521 45.9942L-3.81419e-06 45.9942L-3.8147e-06 46Z" fill="#DA9EFF"/>
</svg>
