<svg width="141" height="124" viewBox="0 0 141 124" fill="none" xmlns="http://www.w3.org/2000/svg">
<path d="M134.873 35.437C134.872 35.4356 134.87 35.4156 134.869 35.3772C134.867 35.333 134.866 35.2775 134.864 35.2079C134.862 35.0528 134.858 34.8365 134.853 34.5593C134.848 33.9902 134.839 33.172 134.829 32.1402L134.873 32.1787C131.64 32.1843 126.5 32.1933 120.718 32.2036C120.749 32.1751 120.645 32.2669 120.789 32.1402V32.141V32.1426V32.1459V32.1524V32.1657V32.1922V32.2453V32.3511V32.5626C120.789 32.7033 120.789 32.8433 120.789 32.983C120.789 33.2624 120.789 33.5399 120.789 33.815C120.788 34.3654 120.788 34.9063 120.787 35.4367L120.717 35.3747C124.748 35.3861 128.275 35.3958 130.805 35.4029C132.065 35.4105 133.076 35.4164 133.783 35.4205C134.126 35.424 134.395 35.4267 134.588 35.4286C134.675 35.4302 134.744 35.4316 134.799 35.4327C134.846 35.4343 134.872 35.4354 134.873 35.437C134.875 35.4383 134.853 35.4397 134.808 35.4411C134.755 35.4421 134.689 35.4435 134.606 35.4451C134.417 35.447 134.153 35.45 133.816 35.4532C133.113 35.4576 132.108 35.4635 130.854 35.4708C128.313 35.4779 124.768 35.4879 120.718 35.499L120.647 35.4993V35.437C120.647 34.9069 120.646 34.3657 120.646 33.8153C120.646 33.5402 120.646 33.2627 120.646 32.9833C120.646 32.8436 120.646 32.7033 120.646 32.5628V32.3514V32.2455V32.1925V32.1659V32.1527V32.1462V32.1429V32.1413V32.1405C120.79 32.0135 120.686 32.1053 120.718 32.0769C126.501 32.0869 131.641 32.0961 134.873 32.1018H134.918L134.917 32.1405C134.907 33.1817 134.899 34.0078 134.893 34.5823C134.889 34.856 134.885 35.0693 134.882 35.2226C134.881 35.2892 134.879 35.3425 134.878 35.385C134.876 35.4205 134.875 35.4381 134.873 35.437Z" fill="#C4C4C4"/>
<path d="M18.1002 100.137C18.1002 100.137 16.2841 88.7642 16.4354 82.147C16.5867 75.5299 16.4265 68.086 16.4265 68.086H17.2632C17.2632 68.086 16.6964 81.22 17.3134 89.1416C17.9296 97.0569 19.5537 100.137 19.5537 100.137H18.1002Z" fill="#005609"/>
<path d="M23.5099 55.2899C23.3416 54.9014 23.1348 54.4966 22.7475 54.273C22.2166 53.9665 21.5205 54.094 20.9278 54.2849C18.3992 55.0993 16.1577 59.3937 15.1355 61.6525L18.4925 71.9555C24.552 66.8352 25.6012 60.118 23.5099 55.2899Z" fill="#D3FFCF"/>
<path d="M22.5533 54.69C22.5578 54.6919 22.5409 54.7379 22.5046 54.8242C22.4615 54.9228 22.4071 55.0471 22.3402 55.1998C22.1931 55.5238 21.9865 55.9955 21.7398 56.5805C21.2452 57.7504 20.6154 59.3862 20.0527 61.2288C19.4921 63.0728 19.1057 64.7704 18.8676 66.0049C18.7478 66.6222 18.6581 67.1234 18.6007 67.4702C18.5716 67.6321 18.5478 67.7642 18.5291 67.869C18.5112 67.9599 18.4993 68.0076 18.4946 68.007C18.4898 68.0065 18.4922 67.958 18.5011 67.8657C18.513 67.7601 18.5285 67.6269 18.5469 67.4634C18.5879 67.1142 18.6631 66.6106 18.7707 65.99C18.9847 64.7492 19.3569 63.0439 19.9189 61.195C20.4834 59.3472 21.1296 57.7114 21.6486 56.5478C21.9074 55.9657 22.128 55.4987 22.2906 55.18C22.367 55.0314 22.4294 54.9101 22.479 54.8137C22.5236 54.7308 22.5492 54.6881 22.5533 54.69Z" fill="#005609"/>
<path d="M17.0011 74.426C13.8546 72.8425 12.0001 69.863 11.8271 66.5922C11.7062 64.3058 12.4775 62.0622 13.3511 59.9161C13.4269 59.7298 13.5169 59.5294 13.7066 59.4314C13.9705 59.2953 14.3007 59.4165 14.5644 59.5533C16.851 60.7391 18.2362 63.0003 18.9733 65.3008C19.4637 66.8315 19.7179 68.446 19.4908 70.0273C19.264 71.6087 18.2715 73.329 17.0011 74.426Z" fill="#005609"/>
<path d="M16.9994 74.4232C16.9947 74.4232 16.9905 74.3755 16.9872 74.2851C16.9852 74.1809 16.9822 74.0498 16.9789 73.8896C16.978 73.5463 16.9626 73.0497 16.9316 72.437C16.871 71.2117 16.6948 69.5225 16.3476 67.6775C15.9983 65.8321 15.5748 64.1795 15.2627 62.9853C15.1087 62.4008 14.9827 61.9218 14.8902 61.5709C14.851 61.4147 14.8189 61.2869 14.7933 61.1854C14.7728 61.0969 14.7639 61.0498 14.7687 61.0487C14.7734 61.0476 14.7909 61.0926 14.8204 61.1789C14.8525 61.2791 14.8929 61.4047 14.9422 61.5588C15.0457 61.8893 15.1887 62.3691 15.3575 62.9639C15.694 64.1535 16.1336 65.8058 16.4837 67.6566C16.8318 69.5071 16.9935 71.2044 17.0291 72.4341C17.0476 73.0489 17.0479 73.5468 17.0324 73.8904C17.0253 74.0506 17.0193 74.1817 17.0149 74.2859C17.0092 74.3761 17.0042 74.4235 16.9994 74.4232Z" fill="#D3FFCF"/>
<path d="M20.5502 91.8272C23.6471 92.4469 26.1971 94.4365 29.1849 95.4039C31.1616 96.0439 33.3971 96.2705 34.9754 97.5295C34.5967 96.6585 33.6988 96.0786 32.8267 95.5823C30.3697 94.1845 27.7386 93.0403 25.0004 92.1791C23.5948 91.737 22.0697 91.3677 20.6373 91.7319" fill="#D3FFCF"/>
<path d="M16.0736 94.3401C12.1953 94.2832 8.11155 91.2756 4.25104 91.0961C8.29109 89.9081 14.0756 90.8784 16.0736 94.3401Z" fill="#D3FFCF"/>
<path d="M17.5884 85.8659C19.5579 85.2194 21.7203 85.1885 23.7887 85.4814C25.8575 85.7744 27.8552 86.3784 29.842 86.98C29.6431 85.7543 28.5531 84.8327 27.5295 84.0167C26.759 83.403 25.9826 82.7851 25.0989 82.3149C24.215 81.8449 23.2064 81.5265 22.1839 81.5657C20.9501 81.6134 19.7757 82.193 18.9667 83.0429C18.1576 83.893 17.7224 84.748 17.5884 85.8659Z" fill="#D3FFCF"/>
<path d="M9.62873 81.9648C7.18722 80.0661 3.4893 80.2518 0.280029 80.3176C5.21357 82.4662 10.5299 85.4118 14.7787 88.5473C14.9091 86.4807 12.7129 84.363 9.62873 81.9648Z" fill="#D3FFCF"/>
<path d="M18.6867 79.3446C19.9143 78.5993 21.1561 77.8886 22.4414 77.3568C23.7263 76.8251 24.9254 75.978 26.1667 75.3658C27.7759 74.572 29.1702 73.4688 30.6472 72.4846C32.1245 71.5005 33.7471 70.6122 35.5546 70.3518C34.0806 70.0748 32.5406 70.2259 31.0886 70.587C29.6366 70.9482 28.2574 71.5135 26.8851 72.0766C24.9804 72.8583 23.043 73.6588 21.4861 74.9275C19.9291 76.1959 18.522 77.4481 18.6867 79.3446Z" fill="#D3FFCF"/>
<path d="M29.1136 94.3394C29.1112 94.3432 29.069 94.3264 28.9908 94.2912C28.8992 94.2482 28.7875 94.1954 28.6522 94.1315C28.3604 93.9899 27.941 93.7801 27.4128 93.5383C27.1515 93.4127 26.8617 93.2814 26.5475 93.1471C26.2363 93.0063 25.8983 92.8674 25.5405 92.7264C24.8244 92.4478 24.0246 92.157 23.1525 91.9683C22.283 91.7739 21.4163 91.7314 20.6646 91.9112C20.2853 91.9948 19.928 92.0771 19.6103 92.1979C19.2914 92.3156 19.0072 92.4532 18.7593 92.5959C18.2623 92.8807 17.9151 93.1828 17.6898 93.4005C17.4651 93.6198 17.3557 93.7538 17.3459 93.747C17.3421 93.7446 17.3661 93.7089 17.4155 93.6431C17.4639 93.5767 17.5424 93.4833 17.6497 93.3677C17.8649 93.1379 18.2067 92.8211 18.7061 92.5211C18.9549 92.3711 19.2423 92.226 19.5666 92.1015C19.89 91.9734 20.2553 91.8852 20.6349 91.7985C21.4032 91.6071 22.3039 91.648 23.184 91.8456C24.0697 92.0376 24.8738 92.3341 25.5913 92.62C25.9498 92.7648 26.2877 92.9077 26.5974 93.0529C26.911 93.1917 27.1988 93.3279 27.4579 93.459C27.9817 93.7116 28.3942 93.9336 28.6784 94.0884C28.8086 94.1605 28.9162 94.22 29.0042 94.2687C29.0785 94.3115 29.1162 94.3356 29.1136 94.3394Z" fill="#005609"/>
<path d="M13.1813 92.5899C13.1846 92.5817 13.2708 92.605 13.4242 92.6546C13.5784 92.7022 13.7954 92.7867 14.0561 92.9047C14.578 93.1395 15.2643 93.5393 15.9091 94.1017C16.552 94.6661 17.018 95.275 17.2966 95.7404C17.4366 95.973 17.5379 96.1671 17.5962 96.3055C17.6565 96.443 17.6856 96.5204 17.6767 96.524C17.6544 96.5329 17.5097 96.2337 17.2115 95.7851C16.9149 95.3365 16.445 94.7474 15.813 94.1924C15.1793 93.6395 14.5144 93.2353 14.0103 92.9835C13.5062 92.7304 13.1721 92.6107 13.1813 92.5899Z" fill="#005609"/>
<path d="M4.59739 81.7866C4.59888 81.7826 4.65565 81.798 4.76266 81.831C4.88274 81.87 5.03701 81.9198 5.22813 81.9818C5.43501 82.0514 5.68023 82.1337 5.96231 82.2285C6.24825 82.3254 6.55886 82.4681 6.91049 82.6091C8.30691 83.1866 10.1649 84.1583 11.9597 85.5393C12.8448 86.2411 13.645 86.9542 14.3144 87.6514C14.9811 88.3499 15.5455 89.0067 15.9854 89.5801C16.4283 90.1514 16.7639 90.6273 16.9943 90.9565C17.1033 91.112 17.1913 91.2376 17.2597 91.3353C17.3197 91.4222 17.3495 91.4693 17.3456 91.4718C17.3417 91.4742 17.3043 91.4322 17.2368 91.3499C17.169 91.2676 17.0706 91.1447 16.9497 90.9836C16.7056 90.6625 16.3579 90.195 15.9064 89.6321C15.4578 89.0673 14.8877 88.4192 14.2193 87.7285C13.5481 87.0392 12.75 86.3329 11.8702 85.6355C10.0865 84.2631 8.24895 83.2857 6.86888 82.6898C6.52171 82.5442 6.21496 82.3963 5.93258 82.2935C5.65467 82.1914 5.41301 82.1026 5.20911 82.0276C5.02215 81.9567 4.87085 81.8993 4.75344 81.8549C4.64971 81.8142 4.59591 81.791 4.59739 81.7866Z" fill="#005609"/>
<path d="M23.4064 83.8796C23.4037 83.888 23.2935 83.8744 23.0973 83.8433C22.9906 83.8254 22.8723 83.8054 22.7409 83.7835C22.6024 83.7591 22.4407 83.7586 22.2644 83.7418C21.5671 83.6957 20.5509 83.748 19.5988 84.2207C19.1185 84.4422 18.7154 84.7408 18.3861 85.0405C18.0514 85.3378 17.7976 85.6475 17.6064 85.9185C17.2173 86.4611 17.097 86.8531 17.0732 86.8453C17.0658 86.8436 17.0875 86.7437 17.152 86.5699C17.2233 86.3991 17.333 86.1508 17.5232 85.8714C17.7072 85.5896 17.9578 85.2677 18.2954 84.9587C18.6277 84.6477 19.0397 84.3374 19.5343 84.1092C20.5161 83.6218 21.5671 83.5826 22.2731 83.6527C22.4514 83.6752 22.6152 83.6822 22.754 83.7136C22.8851 83.7437 23.0028 83.7707 23.1092 83.7951C23.3033 83.8417 23.4091 83.8712 23.4064 83.8796Z" fill="#005609"/>
<path d="M27.306 72.8647C27.3081 72.8685 27.2576 72.8969 27.1592 72.947C27.0474 73.0023 26.9042 73.0732 26.7264 73.1612C26.3501 73.3458 25.8088 73.6182 25.1508 73.9712C24.496 74.3291 23.7246 74.7683 22.9039 75.3027C22.0857 75.8382 21.2067 76.4607 20.3953 77.2171C19.9952 77.5975 19.6263 77.9949 19.3692 78.427C19.1154 78.8716 18.8722 79.301 18.649 79.7133C18.2005 80.5375 17.8352 81.2958 17.5715 81.9477C17.3085 82.5999 17.1447 83.1428 17.0472 83.521C16.9479 83.8989 16.912 84.1123 16.8986 84.1104C16.8938 84.1099 16.8992 84.056 16.914 83.9542C16.928 83.8521 16.9515 83.7021 16.9946 83.5107C17.076 83.1276 17.2267 82.5775 17.4794 81.9177C17.7329 81.2582 18.0908 80.4917 18.5346 79.6624C18.7554 79.2474 18.9965 78.8161 19.2488 78.3705C19.5157 77.9186 19.8903 77.5157 20.2957 77.1297C21.117 76.3643 22.0033 75.7413 22.8299 75.2082C23.6586 74.6765 24.4383 74.2433 25.1011 73.8943C25.7672 73.5502 26.3168 73.289 26.7012 73.1176C26.884 73.0383 27.0314 72.9741 27.1461 72.9243C27.2493 72.8815 27.3039 72.8607 27.306 72.8647Z" fill="#005609"/>
<path d="M16.4299 83.5629C16.4204 83.5642 16.3937 83.4581 16.3529 83.265C16.3078 83.0471 16.2507 82.7739 16.1832 82.4488C16.0355 81.7611 15.8096 80.814 15.4499 79.798C15.0933 78.7805 14.6593 77.8952 14.3421 77.2565C14.1917 76.9555 14.0651 76.7021 13.9641 76.5001C13.8758 76.3209 13.8312 76.2199 13.8398 76.2161C13.8484 76.2123 13.9094 76.3057 14.0125 76.4784C14.1156 76.6512 14.2601 76.903 14.4307 77.2184C14.7711 77.8484 15.2223 78.7337 15.5816 79.7592C15.9439 80.7832 16.1562 81.7394 16.2795 82.4331C16.3405 82.7804 16.3839 83.062 16.4062 83.2577C16.4305 83.4532 16.4394 83.5618 16.4299 83.5629Z" fill="#005609"/>
<path d="M16.1514 75.5247C16.0542 74.1903 15.5768 72.8932 14.8902 71.7108C13.0078 68.469 9.4698 66.0659 5.5216 65.3471C8.41283 69.272 11.3041 73.1972 14.195 77.1221L15.315 79.2238C16.0792 78.0819 16.2486 76.8595 16.1514 75.5247Z" fill="#D3FFCF"/>
<path d="M28.5924 98.7295H8.42393V101.985H28.5924V98.7295Z" fill="#A75000"/>
<path d="M9.929 101.338L11.6464 111.441H25.0358L27.0849 101.338H9.929Z" fill="#A75000"/>
<path d="M28.5808 101.99C28.5808 102.025 24.0315 102.054 18.4209 102.054C12.8085 102.054 8.26015 102.025 8.26015 101.99C8.26015 101.954 12.8085 101.925 18.4209 101.925C24.0315 101.925 28.5808 101.954 28.5808 101.99Z" fill="#005609"/>
<path d="M68.5787 57.2856C67.7616 55.5604 67.9506 53.5226 68.82 51.8185C67.3416 52.9302 65.2419 53.316 63.4059 52.8135C61.5698 52.3107 59.6286 50.7242 59.0683 49.0543C58.5472 52.9424 55.0018 56.5781 51.0236 58.0647C52.9618 60.2309 53.3661 63.4411 52.0163 65.9508C53.9823 65.5593 56.0647 66.3691 57.4914 67.6619C58.9182 68.9547 59.7846 70.6698 60.4588 72.3971C62.1066 70.1248 65.2559 68.8393 68.2146 69.2314C67.8968 67.5089 68.5255 65.7304 69.5515 64.2549C70.5773 62.7791 71.9785 61.5565 73.3648 60.3498C71.302 60.3335 69.3961 59.011 68.5787 57.2856Z" fill="#EBEBEB"/>
<path d="M128.618 8.61678H95.9031V57.9416H128.618V8.61678Z" fill="#C4C4C4"/>
<path d="M127.531 8.61678H94.8157V57.9416H127.531V8.61678Z" fill="#EBEBEB"/>
<path d="M126.139 9.61813H96.2099V56.9424H126.139V9.61813Z" fill="#FAFAFA"/>
<path d="M120.308 15.7703H101.904V50.7957H120.308V15.7703Z" fill="#EBEBEB"/>
<path d="M101.905 38.4021C101.862 35.1302 105.092 31.936 108.649 31.4793C110.345 31.2616 112.147 31.5681 113.732 30.9763C116.561 29.9196 117.461 26.4961 120.308 25.4808L120.438 50.7965H101.905V38.4021Z" fill="#C4C4C4"/>
<path d="M81.1404 32.9552H66.9845V36.252H81.1404V32.9552Z" fill="#EBEBEB"/>
<path d="M75.1501 39.7193C75.1486 39.7179 75.1471 39.6979 75.1456 39.6595C75.1444 39.6153 75.1429 39.5598 75.1408 39.4905C75.1385 39.3354 75.1349 39.1191 75.1301 38.8418C75.1245 38.2727 75.1162 37.4546 75.1058 36.4228L75.1495 36.4612C71.9173 36.4669 66.7769 36.4758 60.9944 36.4861C61.0262 36.458 60.9216 36.5495 61.0658 36.4228V36.4236V36.4252V36.4285V36.435V36.4482V36.4748V36.5278V36.6337V36.8451C61.0658 36.9859 61.0658 37.1259 61.0658 37.2656C61.0658 37.545 61.0655 37.8225 61.0655 38.0976C61.0652 38.648 61.0646 39.1889 61.0643 39.7193L60.9938 39.6573C65.0247 39.6687 68.5517 39.6784 71.0815 39.6855C72.3415 39.693 73.3527 39.699 74.0592 39.7031C74.4028 39.7066 74.6718 39.7093 74.8644 39.7112C74.9512 39.7128 75.0205 39.7142 75.0748 39.7152C75.1233 39.7166 75.1483 39.7179 75.1501 39.7193C75.1515 39.7206 75.1295 39.722 75.0847 39.7234C75.0323 39.7244 74.9658 39.7258 74.8828 39.7274C74.6938 39.7293 74.4298 39.732 74.0928 39.7355C73.3904 39.7399 72.3846 39.7458 71.1314 39.7531C68.5894 39.7602 65.0449 39.7702 60.9944 39.7816L60.924 39.7818V39.7196C60.9237 39.1895 60.9231 38.6483 60.9228 38.0978C60.9228 37.8228 60.9225 37.5453 60.9225 37.2659C60.9225 37.1262 60.9225 36.9859 60.9225 36.8454V36.634V36.5281V36.475V36.4485V36.4352V36.4287V36.4255V36.4239V36.4231C61.067 36.2961 60.9629 36.3879 60.9956 36.3594C66.7781 36.3694 71.9182 36.3787 75.1506 36.3843H75.1949L75.1946 36.4231C75.1842 37.4643 75.1762 38.2903 75.1703 38.8648C75.1658 39.1386 75.1622 39.3519 75.1596 39.5051C75.1578 39.5717 75.1563 39.6251 75.1548 39.6676C75.153 39.7028 75.1515 39.7206 75.1501 39.7193Z" fill="#C4C4C4"/>
<path d="M133.504 64.6339C133.502 64.6325 133.501 64.6125 133.499 64.574C133.498 64.5299 133.496 64.4744 133.494 64.4051C133.492 64.25 133.488 64.0336 133.484 63.7564C133.478 63.1873 133.47 62.3691 133.459 61.3374L133.503 61.3758C130.271 61.3815 125.131 61.3904 119.348 61.4007C119.38 61.3726 119.275 61.4641 119.42 61.3374V61.3382V61.3398V61.343V61.3495V61.3628V61.3893V61.4424V61.5483V61.7597C119.42 61.9005 119.42 62.0405 119.42 62.1802C119.42 62.4596 119.419 62.7371 119.419 63.0122C119.419 63.5626 119.418 64.1035 119.418 64.6336L119.348 64.5716C123.378 64.583 126.906 64.5927 129.435 64.5998C130.695 64.6073 131.706 64.6133 132.413 64.6174C132.757 64.6209 133.026 64.6236 133.218 64.6255C133.305 64.6271 133.374 64.6285 133.429 64.6295C133.477 64.6312 133.502 64.6325 133.504 64.6339C133.505 64.6352 133.483 64.6366 133.438 64.6379C133.386 64.639 133.319 64.6404 133.236 64.642C133.047 64.6439 132.783 64.6469 132.446 64.6501C131.744 64.6544 130.738 64.6604 129.485 64.6677C126.942 64.6748 123.398 64.6848 119.348 64.6959L119.277 64.6961V64.6339C119.277 64.1038 119.276 63.5626 119.276 63.0124C119.276 62.7373 119.276 62.4598 119.276 62.1804C119.276 62.0407 119.276 61.9005 119.276 61.76V61.5485V61.4427V61.3896V61.3631V61.3498V61.3433V61.3401V61.3384V61.3376C119.42 61.2107 119.316 61.3024 119.349 61.274C125.131 61.284 130.271 61.2932 133.504 61.2989H133.548L133.548 61.3376C133.537 62.3789 133.529 63.2049 133.523 63.7794C133.519 64.0531 133.515 64.2665 133.512 64.4197C133.511 64.4863 133.509 64.5397 133.508 64.5819C133.507 64.6174 133.505 64.635 133.504 64.6339Z" fill="#C4C4C4"/>
<path d="M77.7763 10.4655C77.7748 10.4642 77.7734 10.4441 77.7719 10.4057C77.7707 10.3616 77.7692 10.3061 77.7671 10.2365C77.7647 10.0813 77.7612 9.86503 77.7564 9.58779C77.7508 9.0187 77.7424 8.20053 77.7323 7.16874L77.776 7.20719C74.5439 7.21287 69.4035 7.22181 63.621 7.23209C63.6528 7.20394 63.5482 7.29545 63.6923 7.16874V7.16955V7.17118V7.17443V7.18093V7.19419V7.22072V7.27379V7.37965V7.59109C63.6923 7.73188 63.6923 7.87185 63.6923 8.01155C63.6923 8.29095 63.6923 8.56846 63.692 8.84353C63.6917 9.39367 63.6912 9.93488 63.6909 10.465L63.6204 10.403C67.6512 10.4144 71.1783 10.4241 73.7083 10.4311C74.9683 10.4387 75.9795 10.4447 76.6861 10.4487C77.0297 10.4523 77.2987 10.455 77.4913 10.4569C77.5781 10.4585 77.6473 10.4598 77.702 10.4609C77.7496 10.4628 77.7748 10.4642 77.7763 10.4655C77.7778 10.4669 77.7558 10.4682 77.7109 10.4696C77.6586 10.4707 77.592 10.472 77.5091 10.4736C77.3201 10.4755 77.0561 10.4783 76.719 10.4818C76.0167 10.4858 75.0108 10.4921 73.7577 10.4994C71.2154 10.5064 67.6712 10.5164 63.6207 10.5275L63.5503 10.5278V10.4655C63.55 9.93542 63.5494 9.39421 63.5491 8.84407C63.5491 8.569 63.5488 8.29149 63.5488 8.01209C63.5488 7.87239 63.5488 7.73215 63.5488 7.59164V7.38019V7.27433V7.22126V7.19473V7.18147V7.17497V7.17172V7.1701V7.16928C63.6932 7.04231 63.5892 7.13409 63.6216 7.10566C69.404 7.11568 74.5442 7.12488 77.7766 7.13057H77.8209L77.8206 7.16928C77.8102 8.21054 77.8022 9.03657 77.7962 9.61107C77.7918 9.88479 77.7882 10.0981 77.7855 10.2514C77.7838 10.318 77.7823 10.3713 77.7808 10.4138C77.7793 10.4493 77.7778 10.4669 77.7763 10.4655Z" fill="#C4C4C4"/>
<path d="M127.742 8.57123C127.741 8.56987 127.74 8.54984 127.738 8.51166C127.737 8.4678 127.735 8.4123 127.734 8.34299C127.731 8.1884 127.728 7.97289 127.724 7.69647C127.718 7.12927 127.71 6.31408 127.7 5.28608L127.742 5.32453C124.649 5.33021 119.731 5.33915 114.198 5.34917C114.229 5.32101 114.129 5.41225 114.267 5.28608V5.2869V5.28852V5.29177V5.29827V5.31153V5.3378V5.39059V5.49618V5.70681C114.267 5.84705 114.267 5.98676 114.267 6.12592C114.267 6.40423 114.266 6.68066 114.266 6.95492C114.266 7.50316 114.266 8.04247 114.265 8.57068L114.198 8.50896C118.055 8.52033 121.43 8.53007 123.85 8.53711C125.056 8.54469 126.024 8.55065 126.699 8.55471C127.028 8.55823 127.285 8.56094 127.47 8.56283C127.553 8.56446 127.619 8.56581 127.671 8.56689C127.717 8.56852 127.741 8.56987 127.742 8.57123C127.744 8.57258 127.723 8.57393 127.68 8.57529C127.63 8.57637 127.566 8.57745 127.486 8.57935C127.306 8.58124 127.053 8.58395 126.73 8.58747C126.058 8.59153 125.096 8.59749 123.897 8.60507C121.464 8.61211 118.073 8.62185 114.197 8.63322L114.13 8.6335V8.57123C114.13 8.04301 114.129 7.5037 114.129 6.95546C114.129 6.6812 114.128 6.40478 114.128 6.12646C114.128 5.9873 114.128 5.8476 114.128 5.70735V5.49672V5.39113V5.33834V5.31207V5.29881V5.29231V5.28906V5.28744V5.28662C114.266 5.15992 114.167 5.25143 114.198 5.22327C119.731 5.23329 124.65 5.24222 127.742 5.24791H127.785L127.784 5.28635C127.775 6.3241 127.767 7.14714 127.761 7.71948C127.757 7.99212 127.754 8.20492 127.751 8.35734C127.749 8.42367 127.748 8.47674 127.747 8.51897C127.745 8.55498 127.744 8.57258 127.742 8.57123Z" fill="#C4C4C4"/>
<path d="M129.58 5.28746C129.579 5.28584 129.577 5.26472 129.575 5.22492C129.573 5.17781 129.572 5.12069 129.57 5.05084C129.567 4.8892 129.563 4.66937 129.557 4.39213C129.551 3.816 129.542 3.0027 129.53 2.00232L129.58 2.0478C127.472 2.05241 124.604 2.05863 121.443 2.06567C121.38 2.12226 121.526 1.98851 121.511 2.00259V2.0034V2.00503V2.00828V2.01504V2.02858V2.05565V2.10953V2.21729V2.43198C121.511 2.57493 121.511 2.7168 121.511 2.85812C121.511 3.1405 121.51 3.41937 121.51 3.69416C121.509 4.24376 121.509 4.77658 121.508 5.28692L121.442 5.22682C123.792 5.23846 125.814 5.2482 127.264 5.25551C127.979 5.26255 128.552 5.26824 128.96 5.2723C129.15 5.27528 129.302 5.27799 129.417 5.27988C129.522 5.28259 129.578 5.28502 129.58 5.28746C129.583 5.2899 129.532 5.29233 129.433 5.29477C129.321 5.29667 129.174 5.2991 128.989 5.30235C128.585 5.30641 128.017 5.3121 127.308 5.31887C125.847 5.32591 123.809 5.33592 121.442 5.34757L121.376 5.34784V5.28719C121.375 4.77685 121.375 4.24376 121.374 3.69444C121.374 3.41964 121.374 3.14077 121.373 2.85839C121.373 2.71707 121.373 2.5752 121.373 2.43225V2.21756V2.1098V2.05593V2.02885V2.01531V2.00855V2.0053V2.00367V2.00286C121.358 2.01613 121.504 1.88265 121.443 1.93924C124.604 1.94628 127.472 1.9525 129.58 1.95711H129.631L129.63 2.00259C129.619 3.01434 129.61 3.83739 129.603 4.42002C129.598 4.69292 129.594 4.90924 129.591 5.06843C129.587 5.21545 129.584 5.29071 129.58 5.28746Z" fill="#C4C4C4"/>
<path d="M73.3828 92.3493C73.3813 92.3479 73.3802 92.3279 73.3787 92.2897C73.3775 92.2456 73.376 92.1903 73.3742 92.1213C73.3718 91.9667 73.3683 91.7512 73.3641 91.4748C73.3588 90.9076 73.3507 90.0924 73.3409 89.0644L73.3828 89.1028C70.2901 89.1085 65.3717 89.1175 59.8389 89.1275C59.8695 89.0993 59.7694 89.1906 59.9073 89.0644V89.0652V89.0668V89.0701V89.0766V89.0898V89.1164V89.1692V89.2747V89.4854C59.9073 89.6256 59.9073 89.7653 59.9073 89.9045C59.9073 90.1831 59.907 90.4592 59.907 90.7335C59.9067 91.2817 59.9064 91.821 59.9058 92.3493L59.8383 92.2875C63.6953 92.2989 67.0701 92.3087 69.4908 92.3157C70.6964 92.3233 71.6639 92.3292 72.3398 92.3333C72.6686 92.3368 72.926 92.3395 73.1103 92.3414C73.1932 92.343 73.2595 92.3444 73.3118 92.3452C73.3573 92.3465 73.3813 92.3479 73.3828 92.3493C73.3843 92.3506 73.3632 92.352 73.3201 92.3533C73.2702 92.3544 73.2066 92.3555 73.1269 92.3574C72.9462 92.3593 72.6935 92.362 72.371 92.3655C71.699 92.3696 70.7368 92.3758 69.5375 92.3831C67.1049 92.3901 63.7137 92.3999 59.838 92.4113L59.7706 92.4115V92.3493C59.7703 91.821 59.77 91.2817 59.7694 90.7335C59.7694 90.4592 59.7691 90.1831 59.7691 89.9045C59.7691 89.7653 59.7691 89.6256 59.7691 89.4854V89.2747V89.1692V89.1164V89.0898V89.0766V89.0701V89.0668V89.0652V89.0644C59.907 88.9377 59.8077 89.0292 59.8389 89.001C65.3717 89.0111 70.2904 89.02 73.3828 89.0257H73.4253L73.425 89.0641C73.4152 90.1019 73.4072 90.9249 73.4018 91.4972C73.3974 91.7699 73.3941 91.9827 73.3917 92.1351C73.39 92.2014 73.3885 92.2545 73.3873 92.297C73.3855 92.333 73.3843 92.3506 73.3828 92.3493Z" fill="#C4C4C4"/>
<path d="M75.219 89.0642C75.2173 89.0626 75.2155 89.0415 75.2137 89.0017C75.2122 88.9546 75.2104 88.8975 75.2083 88.8276C75.2054 88.666 75.2012 88.4461 75.1959 88.1689C75.1893 87.5928 75.1804 86.7795 75.1691 85.7791L75.2187 85.8246C73.1104 85.8292 70.2424 85.8354 67.0813 85.8424C67.0192 85.899 67.1645 85.7653 67.1496 85.7794V85.7802V85.7818V85.7851V85.7918V85.8054V85.8324V85.8863V85.9941V86.2088C67.1496 86.3514 67.1496 86.4936 67.1496 86.6349C67.1494 86.9173 67.1491 87.1961 67.1491 87.4709C67.1482 88.0205 67.1473 88.5534 67.1467 89.0637L67.081 89.0036C69.4303 89.0152 71.453 89.025 72.9027 89.0323C73.6175 89.0393 74.1906 89.045 74.5984 89.0488C74.7889 89.0521 74.9405 89.0545 75.0559 89.0564C75.1605 89.0591 75.2164 89.0615 75.219 89.0642C75.2217 89.0667 75.1712 89.0691 75.0713 89.0715C74.9595 89.0734 74.8124 89.0759 74.6275 89.0791C74.2233 89.0832 73.6553 89.0889 72.9467 89.0956C71.486 89.1027 69.4479 89.1127 67.0807 89.1243L67.015 89.1246V89.064C67.0141 88.5534 67.0132 88.0205 67.0126 87.4712C67.0123 87.1964 67.0123 86.9176 67.012 86.6352C67.012 86.4938 67.012 86.352 67.0117 86.209V85.9943V85.8866V85.8327V85.8056V85.7921V85.7853V85.7821V85.7805V85.7796C66.9966 85.7929 67.1428 85.6594 67.0813 85.716C70.2424 85.7231 73.1107 85.7293 75.2187 85.7339H75.269L75.2684 85.7794C75.2571 86.7911 75.2482 87.6142 75.2416 88.1968C75.2363 88.4697 75.2324 88.686 75.2291 88.8452C75.2259 88.9919 75.2226 89.0672 75.219 89.0642Z" fill="#C4C4C4"/>
<path d="M21.0003 28.4614C20.9989 28.4601 20.9977 28.44 20.9962 28.4019C20.995 28.358 20.9935 28.3025 20.9917 28.2335C20.9893 28.0789 20.9858 27.8634 20.9816 27.5869C20.9763 27.0198 20.9682 26.2046 20.9584 25.1766L21.0003 25.215C17.9079 25.2207 12.9892 25.2296 7.45645 25.2396C7.48706 25.2115 7.38689 25.3027 7.52481 25.1766V25.1774V25.179V25.1822V25.1887V25.202V25.2285V25.2813V25.3869V25.5976C7.52481 25.7378 7.52481 25.8775 7.52481 26.0167C7.52481 26.2953 7.52451 26.5714 7.52451 26.8457C7.52422 27.3939 7.52392 27.9332 7.52333 28.4614L7.45585 28.3997C11.3128 28.4111 14.6876 28.4208 17.1083 28.4279C18.3142 28.4354 19.2817 28.4414 19.9573 28.4455C20.2861 28.449 20.5435 28.4517 20.7278 28.4536C20.8107 28.4552 20.877 28.4566 20.9293 28.4576C20.9751 28.4587 20.9992 28.4601 21.0003 28.4614C21.0018 28.4628 20.9807 28.4641 20.9376 28.4655C20.8877 28.4666 20.8241 28.4677 20.7444 28.4696C20.5637 28.4715 20.3111 28.4742 19.9886 28.4777C19.3165 28.4817 18.3543 28.4877 17.155 28.4953C14.7224 28.5023 11.3312 28.5121 7.45556 28.5234L7.38808 28.5237V28.4614C7.38779 27.9332 7.38749 27.3939 7.38689 26.8457C7.38689 26.5714 7.3866 26.295 7.3866 26.0167C7.3866 25.8775 7.3866 25.7378 7.3866 25.5976V25.3869V25.2813V25.2285V25.202V25.1887V25.1822V25.179V25.1774V25.1766C7.52451 25.0499 7.42524 25.1414 7.45645 25.1132C12.9892 25.1232 17.9079 25.1324 21.0003 25.1378H21.0429L21.0426 25.1763C21.0327 26.214 21.0247 27.0371 21.0194 27.6094C21.0149 27.8821 21.0116 28.0949 21.009 28.2473C21.0072 28.3136 21.0057 28.3667 21.0045 28.4089C21.0033 28.4449 21.0018 28.4625 21.0003 28.4614Z" fill="#C4C4C4"/>
<path d="M22.8371 25.1692C22.8353 25.1676 22.8335 25.1465 22.8317 25.1067C22.8302 25.0595 22.8285 25.0024 22.8264 24.9326C22.8234 24.7709 22.8192 24.5511 22.8139 24.2739C22.8074 23.6977 22.7984 22.8844 22.7871 21.8841L22.8368 21.9295C20.7285 21.9341 17.8604 21.9404 14.6993 21.9474C14.6372 22.004 14.7826 21.8702 14.7677 21.8843V21.8851V21.8868V21.89V21.8968V21.9103V21.9374V21.9913V22.099V22.3137C14.7677 22.4567 14.7677 22.5985 14.7677 22.7399C14.7674 23.0222 14.7671 23.3011 14.7671 23.5759C14.7662 24.1255 14.7653 24.6583 14.7647 25.1687L14.699 25.1085C17.0484 25.1202 19.0711 25.1299 20.5207 25.1372C21.2356 25.1443 21.8086 25.15 22.2165 25.154C22.407 25.1573 22.5586 25.1597 22.6739 25.1616C22.7785 25.1643 22.8344 25.1668 22.8371 25.1692C22.8398 25.1716 22.7892 25.1741 22.6894 25.1765C22.5776 25.1784 22.4305 25.1808 22.2456 25.1841C21.8413 25.1881 21.2733 25.1938 20.5647 25.2006C19.1041 25.2076 17.0659 25.2177 14.6987 25.2293L14.6333 25.2298V25.1692C14.6324 24.6589 14.6316 24.1258 14.631 23.5764C14.6307 23.3016 14.6307 23.0228 14.6304 22.7404C14.6304 22.5991 14.6304 22.4572 14.6304 22.3143V22.0996V21.9918V21.9379V21.9109V21.8973V21.8905V21.8873V21.8857V21.8849C14.6152 21.8981 14.7614 21.7647 14.6999 21.8212C17.861 21.8283 20.7294 21.8345 22.8374 21.8391H22.8876L22.887 21.8846C22.8757 22.8963 22.8668 23.7194 22.8603 24.302C22.8552 24.5749 22.8511 24.7912 22.8481 24.9504C22.8439 25.0969 22.8406 25.1724 22.8371 25.1692Z" fill="#C4C4C4"/>
<path d="M92.5147 110.402C92.3997 110.402 92.2825 110.388 92.1654 110.358C91.6539 110.227 91.3231 109.846 91.3231 109.387V97.5689H91.6304V109.387C91.6304 109.799 91.966 110.031 92.2531 110.104C92.5405 110.178 92.9689 110.141 93.231 109.796L102.571 97.4967L102.829 97.641L93.4884 109.94C93.2631 110.237 92.9026 110.402 92.5147 110.402Z" fill="#C4C4C4"/>
<path d="M129.61 110.401C129.222 110.401 128.861 110.236 128.636 109.939L119.296 97.64L119.553 97.4957L128.894 109.795C129.156 110.14 129.584 110.178 129.871 110.103C130.159 110.03 130.494 109.798 130.494 109.386V97.5679H130.801V109.386C130.801 109.845 130.471 110.226 129.959 110.357C129.842 110.386 129.725 110.401 129.61 110.401Z" fill="#C4C4C4"/>
<path d="M135.113 66.7905H87.1468V98.7959H135.113V66.7905Z" fill="#EBEBEB"/>
<path d="M132.328 81.2313C132.328 81.2313 132.324 81.1603 132.322 81.0255C132.32 80.8877 132.319 80.689 132.316 80.4288C132.313 79.9019 132.308 79.1293 132.302 78.1286C132.295 76.1268 132.285 73.2166 132.272 69.567L132.328 69.6122C122.092 69.6179 106.833 69.6263 89.8299 69.6355H89.8272L89.9113 69.5668C89.9104 73.6208 89.9095 77.5533 89.9086 81.2307L89.8272 81.1644C102.059 81.1768 112.673 81.1877 120.234 81.1953C124.017 81.2031 127.035 81.2096 129.112 81.2139C130.149 81.2177 130.949 81.2204 131.496 81.2226C131.765 81.2245 131.971 81.2259 132.114 81.2269C132.254 81.2283 132.328 81.2313 132.328 81.2313C132.328 81.2313 132.261 81.234 132.125 81.2356C131.983 81.2364 131.781 81.238 131.516 81.2397C130.973 81.2416 130.179 81.2445 129.15 81.2483C127.077 81.2526 124.065 81.2589 120.29 81.267C112.716 81.2746 102.082 81.2854 89.8275 81.2979H89.746V81.2313C89.7451 77.5538 89.7443 73.6213 89.7434 69.5673V69.4985H89.8275H89.8302C106.834 69.508 122.092 69.5164 132.328 69.5218H132.384L132.383 69.567C132.37 73.2282 132.36 76.1476 132.353 78.1559C132.347 79.152 132.342 79.9214 132.339 80.4459C132.337 80.7025 132.335 80.8985 132.333 81.0344C132.331 81.1663 132.328 81.2313 132.328 81.2313Z" fill="#C4C4C4"/>
<path d="M132.328 95.0622C132.328 95.0622 132.324 94.9912 132.322 94.8567C132.32 94.7189 132.319 94.5202 132.316 94.26C132.313 93.7331 132.308 92.9604 132.302 91.9598C132.295 89.9579 132.285 87.0478 132.272 83.3979L132.328 83.4434C122.092 83.4491 106.833 83.4575 89.8299 83.4667H89.8272L89.9113 83.3979C89.9104 87.4523 89.9095 91.3845 89.9086 95.0619L89.8272 94.9956C102.059 95.008 112.673 95.0186 120.234 95.0264C124.017 95.0346 127.035 95.0408 129.112 95.0451C130.149 95.0489 130.949 95.0516 131.496 95.0535C131.765 95.0554 131.971 95.0568 132.114 95.0578C132.254 95.0595 132.328 95.0622 132.328 95.0622C132.328 95.0622 132.261 95.0649 132.125 95.0665C131.983 95.0676 131.781 95.0689 131.516 95.0706C130.973 95.0725 130.179 95.0754 129.15 95.0792C127.077 95.0836 124.065 95.0898 120.29 95.0979C112.716 95.1055 102.082 95.1163 89.8275 95.1288L89.746 95.129V95.0624C89.7451 91.385 89.7443 87.4525 89.7434 83.3985V83.3297H89.8275H89.8302C106.834 83.3392 122.092 83.3476 132.328 83.3533H132.384L132.383 83.3985C132.37 87.0597 132.36 89.9791 132.353 91.9874C132.347 92.9834 132.342 93.7529 132.339 94.2773C132.337 94.534 132.335 94.73 132.333 94.8659C132.331 94.9972 132.328 95.0622 132.328 95.0622Z" fill="#C4C4C4"/>
<path d="M102.369 69.4936L103.749 70.697H119.575L121.149 69.4936H102.369Z" fill="#C4C4C4"/>
<path d="M102.427 83.3297L103.807 84.5329H119.634L121.207 83.3297H102.427Z" fill="#C4C4C4"/>
<path d="M139.368 111.4C139.368 111.439 108.938 111.471 71.4087 111.471C33.8668 111.471 3.44284 111.439 3.44284 111.4C3.44284 111.361 33.8665 111.33 71.4087 111.33C108.938 111.33 139.368 111.362 139.368 111.4Z" fill="black"/>
<path d="M70.3524 17.321H22.9942V20.9627H70.3524V17.321Z" fill="#C36B00"/>
<path d="M68.3853 15.4251C68.5241 14.7344 69.0642 14.122 69.7746 13.8497C70.485 13.5773 71.3434 13.6536 71.9824 14.0459C71.1852 15.0195 69.7963 15.5621 68.4724 15.4167" fill="#D0D0D0"/>
<path d="M68.9084 15.8376C69.2339 16.3699 69.0234 17.0703 68.5758 17.523C68.1279 17.9756 67.4921 18.2307 66.8655 18.4451C66.8275 17.847 67.0106 17.239 67.3782 16.7424C67.7462 16.2459 68.2967 15.8636 68.92 15.6719" fill="#D0D0D0"/>
<path d="M67.3101 13.3248C67.0759 13.9484 66.5528 14.4768 65.8965 14.7541C65.2399 15.0313 64.4593 15.053 63.7855 14.8131C64.1211 14.2072 64.5714 13.6208 65.2286 13.3013C65.8858 12.9818 66.7864 13.0037 67.295 13.4995" fill="#D0D0D0"/>
<path d="M67.4957 12.6673C67.7566 12.106 68.4991 11.8174 69.162 11.9014C69.8245 11.985 70.4009 12.3746 70.8286 12.843C70.3346 13.1657 69.7036 13.3095 69.1011 13.2364C68.4986 13.1633 67.9308 12.8741 67.5465 12.4453" fill="#D0D0D0"/>
<path d="M69.5546 18.3594C70.0471 18.9705 69.9811 19.8566 69.5448 20.502C69.1085 21.1472 68.3645 21.5771 67.5851 21.8425C67.5052 21.0931 67.5349 20.3144 67.8577 19.6213C68.1805 18.9282 68.838 18.3329 69.6509 18.1962" fill="#D0D0D0"/>
<path d="M68.015 11.049C67.8028 10.5438 67.3224 10.1385 66.7532 9.98441C66.184 9.83009 65.5387 9.93026 65.0575 10.2476C65.1758 10.8118 65.6719 11.2956 66.2818 11.4413C66.8917 11.5869 67.5849 11.3871 67.9918 10.9485" fill="#D0D0D0"/>
<path d="M67.6971 9.20511C68.313 9.53054 69.0831 9.60337 69.7593 9.39977C70.4355 9.19618 71.0062 8.71941 71.2877 8.12378C70.8044 7.97839 70.3086 7.85115 69.8003 7.82624C69.2918 7.80133 68.7654 7.88499 68.3358 8.13434C67.9063 8.38342 67.7105 8.74134 67.6971 9.20511Z" fill="#D0D0D0"/>
<path d="M66.392 8.46766C66.9375 8.22481 67.353 7.75237 67.4945 7.21441C67.6357 6.67672 67.4998 6.08381 67.1342 5.6425C66.5641 6.03859 66.1058 6.56653 65.8136 7.1627C65.7042 7.38633 65.6165 7.62729 65.6379 7.87122C65.6593 8.11516 65.8112 8.36234 66.0618 8.45033" fill="#D0D0D0"/>
<path d="M62.8725 12.051C62.8742 12.0513 62.8781 12.0356 62.8843 12.0047C62.8912 11.9687 62.8995 11.924 62.9102 11.8682C62.9322 11.7483 62.9652 11.5715 63.0187 11.346C63.1319 10.902 63.3055 10.2316 63.831 9.56046C64.0962 9.23205 64.4535 8.90608 64.9216 8.68516C65.3832 8.45882 65.9706 8.36759 66.5424 8.50431C66.8263 8.57037 67.1048 8.69247 67.3346 8.87657C67.5685 9.05661 67.7382 9.30651 67.839 9.58131C68.0381 10.1396 67.9606 10.7704 67.7763 11.3693C67.5956 11.9738 67.3447 12.5548 67.268 13.1564C67.2305 13.4553 67.2341 13.7558 67.2986 14.0417C67.3607 14.3274 67.4868 14.5994 67.6806 14.8187C67.8723 15.0413 68.1223 15.1964 68.3568 15.3413C68.5937 15.4853 68.8202 15.625 69.0045 15.7958C69.3775 16.1345 69.6058 16.5488 69.7122 16.9438C69.8207 17.3407 69.8005 17.72 69.7205 18.0357C69.6411 18.3532 69.5035 18.6091 69.3709 18.8032C69.099 19.1923 68.8588 19.342 68.871 19.3517C68.8722 19.3531 68.8865 19.3433 68.9129 19.3238C68.9391 19.3038 68.9801 19.2756 69.0276 19.2323C69.1254 19.1492 69.263 19.0171 69.4033 18.8222C69.543 18.6283 69.6884 18.3703 69.7746 18.0473C69.8617 17.7262 69.8875 17.3372 69.7805 16.9286C69.6756 16.522 69.4453 16.0947 69.0627 15.7425C68.6885 15.3786 68.1202 15.1864 67.7525 14.7665C67.3833 14.3458 67.2891 13.7436 67.3649 13.1664C67.4404 12.5811 67.6892 12.0039 67.8723 11.3931C68.0586 10.7866 68.1413 10.1374 67.9317 9.55315C67.8259 9.26563 67.6449 9.0003 67.397 8.81078C67.1539 8.61721 66.8614 8.49077 66.565 8.42309C65.9694 8.28257 65.3568 8.38193 64.883 8.61829C64.4017 8.84923 64.0397 9.18576 63.7734 9.52283C63.5071 9.86342 63.3379 10.2116 63.2175 10.5221C63.0992 10.8343 63.0291 11.1115 62.9801 11.3389C62.9322 11.5666 62.9054 11.7448 62.8897 11.8658C62.8832 11.9221 62.8781 11.9673 62.8736 12.0036C62.8716 12.0347 62.871 12.0507 62.8725 12.051Z" fill="black"/>
<path d="M50.7575 15.6357C50.7723 15.6281 50.5666 15.4744 50.4204 15.088C50.3512 14.8969 50.3036 14.6454 50.3535 14.3622C50.4014 14.0809 50.5601 13.7706 50.8481 13.5237C50.9908 13.4005 51.1644 13.2933 51.3632 13.2207C51.5615 13.1471 51.785 13.1122 52.0178 13.1043C52.4838 13.0818 52.9876 13.1804 53.5286 13.1241C53.7955 13.0951 54.0752 13.0288 54.3133 12.8755C54.5544 12.7256 54.7193 12.48 54.7931 12.219C54.9473 11.6967 54.8427 11.1282 55.0728 10.6208C55.1848 10.3696 55.3858 10.1608 55.6209 10.006C55.8551 9.84814 56.1291 9.7496 56.4047 9.69491C56.9617 9.57741 57.5267 9.70249 57.9765 9.94047C58.4298 10.1803 58.7796 10.5209 59.0412 10.8723C59.3051 11.2254 59.4784 11.5941 59.583 11.9453C59.7953 12.6484 59.8633 13.2408 59.9293 13.645C59.9596 13.8418 59.9834 13.9978 60.0009 14.112C60.0096 14.1607 60.017 14.2005 60.0226 14.233C60.028 14.2601 60.0319 14.2739 60.0333 14.2739C60.0351 14.2736 60.0348 14.2596 60.0328 14.2319C60.0295 14.1992 60.0256 14.1588 60.0209 14.1098C60.0078 13.995 59.9903 13.8386 59.968 13.6407C59.9133 13.2348 59.8565 12.6408 59.6511 11.928C59.5497 11.5717 59.3759 11.1915 59.1101 10.8301C58.8459 10.4698 58.4904 10.1178 58.0228 9.86764C57.7889 9.74472 57.5288 9.64834 57.2494 9.59825C56.9697 9.54762 56.6737 9.55087 56.3848 9.60746C56.0967 9.66377 55.8102 9.76638 55.5629 9.93234C55.315 10.0951 55.1007 10.3168 54.9809 10.5851C54.7396 11.1271 54.848 11.6986 54.6991 12.1952C54.6293 12.4429 54.4795 12.6652 54.2589 12.8043C54.0405 12.9462 53.7759 13.0117 53.5182 13.0404C52.9983 13.0978 52.4933 13.0031 52.0145 13.0285C51.7755 13.0383 51.5425 13.0762 51.3344 13.1555C51.1266 13.2335 50.9465 13.3472 50.7994 13.4771C50.503 13.7373 50.3428 14.0622 50.2985 14.3546C50.2522 14.6486 50.3075 14.9061 50.3838 15.0997C50.4602 15.2951 50.5616 15.4297 50.6344 15.515C50.7075 15.6005 50.7575 15.6357 50.7575 15.6357Z" fill="black"/>
<path d="M54.8636 11.2364C54.4864 11.642 53.8334 11.8591 53.3313 11.7868C52.8293 11.7145 52.3736 11.3672 52.1311 10.8723C52.5407 10.5206 53.0606 10.3416 53.5614 10.3803C54.0622 10.419 54.5396 10.6746 54.8749 11.0837" fill="#D0D0D0"/>
<path d="M53.6909 13.1019C53.8748 13.6062 53.7387 14.227 53.4094 14.5801C53.08 14.9329 52.5177 15.1067 51.9273 15.0376C51.8108 14.536 51.9137 14.0386 52.2106 13.6691C52.5076 13.2995 52.9956 13.0612 53.5538 13.0136" fill="#D0D0D0"/>
<path d="M50.6935 13.6338C50.2712 14.0004 49.5964 14.1528 49.1057 14.032C48.615 13.9113 48.2027 13.522 48.0196 13.0062C48.4681 12.6962 49.0058 12.569 49.4992 12.6559C49.9926 12.743 50.4373 13.0436 50.723 13.483" fill="#D0D0D0"/>
<path d="M56.9709 9.62367C57.2752 9.17019 57.3531 8.50796 57.1201 8.09671C56.8868 7.68519 56.3817 7.40037 55.7896 7.34622C55.5516 7.81108 55.5287 8.31655 55.7263 8.73755C55.924 9.15855 56.3404 9.49101 56.8722 9.65237" fill="#D0D0D0"/>
<path d="M67.8382 4.26139C67.8394 4.2603 67.831 4.2492 67.8135 4.22836C67.7915 4.20345 67.765 4.17367 67.7329 4.13712C67.6601 4.05833 67.5487 3.94489 67.395 3.80817C67.0862 3.54041 66.5993 3.16111 65.8722 2.90959C65.5105 2.78776 65.0884 2.70031 64.6298 2.71574C64.1741 2.73253 63.6861 2.84569 63.2435 3.08828C62.8027 3.32571 62.4038 3.70448 62.2168 4.1937C62.0284 4.68211 62.0438 5.21628 61.9817 5.73935C61.9493 6.00142 61.8934 6.25754 61.7846 6.49092C61.675 6.72375 61.5017 6.92194 61.3147 7.10279C61.1277 7.28446 60.9283 7.4534 60.7541 7.64048C60.5799 7.82783 60.4384 8.0344 60.3332 8.24801C60.1213 8.67659 60.0434 9.12439 60.0369 9.53781C60.0295 9.95286 60.0981 10.337 60.1929 10.6768C60.3858 11.3577 60.6551 11.8724 60.8341 12.2265C60.9253 12.4033 60.9996 12.5392 61.0505 12.631C61.1016 12.7228 61.1298 12.7702 61.1331 12.7688C61.1361 12.7675 61.1141 12.7174 61.0689 12.6231C61.0198 12.5219 60.9536 12.3846 60.8697 12.2119C60.7021 11.854 60.4438 11.3369 60.2619 10.6614C60.1724 10.3243 60.1094 9.94609 60.1201 9.53917C60.1299 9.13414 60.2096 8.69717 60.4173 8.28294C60.5208 8.07609 60.6578 7.87818 60.8269 7.69706C60.997 7.51567 61.1955 7.34835 61.3863 7.16425C61.5766 6.98096 61.76 6.7733 61.8762 6.5272C61.9912 6.28191 62.0486 6.01631 62.0813 5.74964C62.1437 5.21764 62.1294 4.69105 62.3096 4.22348C62.4864 3.757 62.8663 3.39259 63.2913 3.16056C63.7179 2.92394 64.1914 2.81104 64.6337 2.79155C65.0777 2.77314 65.4921 2.85463 65.8482 2.97051C66.5648 3.2093 67.0541 3.57615 67.3685 3.83443C67.5255 3.96628 67.6411 4.07539 67.7184 4.15011C67.7939 4.22457 67.8355 4.26328 67.8382 4.26139Z" fill="black"/>
<path d="M61.0849 7.27549C61.2092 7.12334 61.3001 7.19942 61.5085 7.19887C61.7169 7.19833 61.919 7.26548 62.1027 7.35482C62.9023 7.74387 63.3948 8.6013 63.2893 9.42137C62.6546 9.56107 61.944 9.35964 61.5079 8.91698C61.0722 8.47432 60.9295 7.80885 61.1506 7.24923" fill="#D0D0D0"/>
<path d="M66.7349 3.69265C66.775 3.50638 66.893 3.53968 67.0808 3.45765C67.2687 3.37561 67.483 3.35693 67.6911 3.3656C68.5967 3.4035 69.446 3.98451 69.7384 4.76613C69.2313 5.14083 68.4948 5.23748 67.8923 5.00871C67.2898 4.77994 66.8466 4.23494 66.7821 3.64337" fill="#D0D0D0"/>
<path d="M60.4348 10.9668C60.7559 10.4686 61.337 10.1169 61.9653 10.0398C62.5937 9.96262 63.2562 10.1624 63.7104 10.5656C63.3323 11.0217 62.7652 11.3442 62.149 11.453C61.5331 11.5619 60.8647 11.407 60.3267 11.113" fill="#D0D0D0"/>
<path d="M60.4129 8.29936C59.7905 8.42092 59.111 8.27121 58.6185 7.90408C58.126 7.53669 57.8308 6.95975 57.8388 6.37983C58.4663 6.13318 59.2385 6.22442 59.7759 6.60914C60.3133 6.99386 60.5933 7.65527 60.4786 8.26904" fill="#D0D0D0"/>
<path d="M61.9661 4.89392C61.4236 5.19688 60.7281 5.26159 60.1295 5.06422C59.5308 4.86685 59.0419 4.41174 58.838 3.86268C59.3397 3.44006 60.1012 3.2925 60.7486 3.49258C61.3957 3.69266 61.9013 4.23197 62.0169 4.84546" fill="#D0D0D0"/>
<path d="M62.4956 3.78781C63.0383 3.48485 63.7338 3.42015 64.3322 3.61751C64.9308 3.81488 65.4198 4.27 65.6237 4.81905C65.1219 5.24168 64.3604 5.38923 63.7133 5.18915C63.0663 4.98908 62.5604 4.44977 62.445 3.83627" fill="#D0D0D0"/>
<path d="M63.2636 3.11301C62.6334 3.03016 62.0535 2.67441 61.7319 2.17409C61.4103 1.67376 61.3535 1.03915 61.5824 0.497944C62.2649 0.465185 62.9538 0.795486 63.3111 1.32613C63.6681 1.85705 63.6785 2.56612 63.3367 3.10516" fill="#D0D0D0"/>
<path d="M65.4945 2.82814C65.1726 2.32808 65.1155 1.69347 65.3441 1.15226C65.5723 0.611057 66.0815 0.174626 66.6885 0C67.1423 0.4654 67.2892 1.16174 67.0567 1.74708C66.8243 2.33241 66.2224 2.78238 65.5465 2.87524" fill="#D0D0D0"/>
<path d="M65.9194 11.3029H56.206V12.8711H65.9194V11.3029Z" fill="#FFBFF5"/>
<path d="M56.9384 12.5636L58.2406 17.4293H64.2139L65.201 12.5636H56.9384Z" fill="#FFBFF5"/>
<path d="M65.9136 12.8749C65.9136 12.8922 63.7226 12.906 61.0205 12.906C58.3174 12.906 56.127 12.8922 56.127 12.8749C56.127 12.8578 58.3177 12.8437 61.0205 12.8437C63.7226 12.8437 65.9136 12.8578 65.9136 12.8749Z" fill="black"/>
<path d="M26.4148 17.1583L26.3714 13.6563H28.4643L28.5365 17.1583H26.4148Z" fill="#F5F5F5"/>
<path d="M28.334 14.2745C28.334 14.291 27.8985 14.3045 27.3614 14.3045C26.8243 14.3045 26.3889 14.291 26.3889 14.2745C26.3889 14.258 26.8243 14.2444 27.3614 14.2444C27.8982 14.2444 28.334 14.2577 28.334 14.2745Z" fill="#E0E0E0"/>
<path d="M28.3363 14.8129C28.3363 14.8294 27.9009 14.8429 27.3638 14.8429C26.8267 14.8429 26.3912 14.8297 26.3912 14.8129C26.3912 14.7964 26.8267 14.7828 27.3638 14.7828C27.9006 14.7831 28.3363 14.7964 28.3363 14.8129Z" fill="#E0E0E0"/>
<path d="M28.334 15.3513C28.334 15.3678 27.8985 15.3814 27.3614 15.3814C26.8243 15.3814 26.3889 15.3681 26.3889 15.3513C26.3889 15.3348 26.8243 15.3213 27.3614 15.3213C27.8982 15.3213 28.334 15.3348 28.334 15.3513Z" fill="#E0E0E0"/>
<path d="M28.334 15.8997C28.334 15.9162 27.8985 15.9297 27.3614 15.9297C26.8243 15.9297 26.3889 15.9165 26.3889 15.8997C26.3889 15.8832 26.8243 15.8696 27.3614 15.8696C27.8982 15.8696 28.334 15.8832 28.334 15.8997Z" fill="#E0E0E0"/>
<path d="M28.3363 16.4401C28.3363 16.4566 27.9009 16.4701 27.3638 16.4701C26.8267 16.4701 26.3912 16.4566 26.3912 16.4401C26.3912 16.4236 26.8267 16.41 27.3638 16.41C27.9006 16.41 28.3363 16.4233 28.3363 16.4401Z" fill="#E0E0E0"/>
<path d="M26.1867 13.5411H49.3828C49.6691 14.7009 49.6289 15.9769 49.3828 17.3263H26.2857V17.0688H27.697C28.065 17.0688 28.3634 16.797 28.3634 16.4618V14.3671C28.3634 14.0319 28.065 13.7601 27.697 13.7601H26.1867V13.5411Z" fill="#FFBFF5"/>
<path d="M48.5798 17.398C48.5616 17.398 48.5468 16.5287 48.5468 15.4563C48.5468 14.3836 48.5613 13.5143 48.5798 13.5143C48.5979 13.5143 48.6128 14.3836 48.6128 15.4563C48.6128 16.5287 48.5982 17.398 48.5798 17.398Z" fill="black"/>
<path d="M29.5948 17.3891C29.5767 17.3891 29.5618 16.5197 29.5618 15.4473C29.5618 14.3747 29.5767 13.5053 29.5948 13.5053C29.613 13.5053 29.6278 14.3747 29.6278 15.4473C29.6275 16.5197 29.613 17.3891 29.5948 17.3891Z" fill="black"/>
<path d="M48.992 17.3911C48.9739 17.3911 48.959 16.5217 48.959 15.4493C48.959 14.3767 48.9736 13.5073 48.992 13.5073C49.0102 13.5073 49.025 14.3767 49.025 15.4493C49.0247 16.5217 49.0102 17.3911 48.992 17.3911Z" fill="black"/>
<path d="M29.2178 17.3891C29.1996 17.3891 29.1848 16.5197 29.1848 15.4473C29.1848 14.3747 29.1993 13.5053 29.2178 13.5053C29.2359 13.5053 29.2508 14.3747 29.2508 15.4473C29.2508 16.5197 29.2359 17.3891 29.2178 17.3891Z" fill="black"/>
<path d="M45.667 15.8687H33.6271C33.3177 15.8687 33.0666 15.6402 33.0666 15.358C33.0666 15.0762 33.3174 14.8474 33.6271 14.8474H45.667C45.9768 14.8474 46.2276 15.0759 46.2276 15.358C46.2276 15.6402 45.9768 15.8687 45.667 15.8687Z" fill="white"/>
<path d="M30.3457 10.4526C30.3457 10.5685 30.3457 13.3788 30.3457 13.3788H33.3591V10.4526H30.3457Z" fill="#EBEBEB"/>
<path d="M46.8825 10.1984C47.3533 11.2321 47.2847 12.3752 46.8825 13.5854H30.1709V13.3737H31.2356C32.1226 13.3737 32.8419 12.7187 32.8419 11.9106C32.8419 11.1027 32.1229 10.4475 31.2356 10.4475H30.1115V10.1367L46.8825 10.1984Z" fill="#D0D0D0"/>
<path d="M32.1049 10.6704C32.1049 10.6869 35.4512 10.7005 39.5783 10.7005C43.7067 10.7005 47.0524 10.6869 47.0524 10.6704C47.0524 10.6539 43.7067 10.6404 39.5783 10.6404C35.4512 10.6406 32.1049 10.6539 32.1049 10.6704Z" fill="white"/>
<path d="M31.9686 13.2185C31.9686 13.235 35.333 13.2486 39.4824 13.2486C43.6333 13.2486 46.9972 13.235 46.9972 13.2185C46.9972 13.202 43.6333 13.1884 39.4824 13.1884C35.3333 13.1887 31.9686 13.202 31.9686 13.2185Z" fill="white"/>
<path d="M30.3468 11.947C30.3468 11.9635 30.9079 11.977 31.5999 11.977C32.2922 11.977 32.8531 11.9637 32.8531 11.947C32.8531 11.9304 32.2922 11.9169 31.5999 11.9169C30.9079 11.9169 30.3468 11.9304 30.3468 11.947Z" fill="#E0E0E0"/>
<path d="M30.3468 12.6205C30.3468 12.637 30.8592 12.6505 31.4914 12.6505C32.1236 12.6505 32.6361 12.637 32.6361 12.6205C32.6361 12.604 32.1236 12.5904 31.4914 12.5904C30.8592 12.5904 30.3468 12.6037 30.3468 12.6205Z" fill="#E0E0E0"/>
<path d="M30.3304 13.2215C30.3304 13.238 30.7043 13.2515 31.1657 13.2515C31.6273 13.2515 32.0012 13.238 32.0012 13.2215C32.0012 13.205 31.6273 13.1914 31.1657 13.1914C30.7043 13.1914 30.3304 13.205 30.3304 13.2215Z" fill="#E0E0E0"/>
<path d="M30.3315 11.3569C30.3315 11.3734 30.8713 11.3869 31.5371 11.3869C32.2029 11.3869 32.7427 11.3737 32.7427 11.3569C32.7427 11.3403 32.2029 11.3268 31.5371 11.3268C30.8713 11.3268 30.3315 11.3403 30.3315 11.3569Z" fill="#E0E0E0"/>
<path d="M30.3468 10.7678C30.3468 10.7843 30.7641 10.7978 31.2792 10.7978C31.7943 10.7978 32.2116 10.7846 32.2116 10.7678C32.2116 10.7513 31.7943 10.7377 31.2792 10.7377C30.7644 10.7377 30.3468 10.7513 30.3468 10.7678Z" fill="#E0E0E0"/>
<path d="M28.6724 7.04721C28.6724 7.16309 28.6724 9.97335 28.6724 9.97335H34.8886V7.04721H28.6724Z" fill="#EBEBEB"/>
<path d="M48.7491 8.53551C48.7482 8.56123 48.7467 8.58722 48.7455 8.61294C48.695 9.49825 47.8695 10.183 46.8964 10.183H28.3833V9.97123H32.7782C33.6655 9.97123 34.3845 9.31632 34.3845 8.50816C34.3845 7.70001 33.6655 7.04509 32.7782 7.04509H28.3833V6.73428L46.9017 6.79141C47.9471 6.79493 48.7874 7.58413 48.7491 8.53551Z" fill="#FFBFF5"/>
<path d="M28.6724 8.55445C28.6724 8.57097 29.9506 8.5845 31.5268 8.5845C33.1036 8.5845 34.3815 8.57097 34.3815 8.55445C34.3815 8.53794 33.1036 8.5244 31.5268 8.5244C29.9506 8.5244 28.6724 8.53767 28.6724 8.55445Z" fill="#E0E0E0"/>
<path d="M28.7582 9.20513C28.7582 9.22165 29.9676 9.23518 31.4592 9.23518C32.9513 9.23518 34.1605 9.22192 34.1605 9.20513C34.1605 9.18862 32.9513 9.17508 31.4592 9.17508C29.9676 9.17508 28.7582 9.18862 28.7582 9.20513Z" fill="#E0E0E0"/>
<path d="M28.6724 9.80614C28.6724 9.82266 29.7597 9.8362 31.1009 9.8362C32.4423 9.8362 33.5296 9.82293 33.5296 9.80614C33.5296 9.78963 32.4423 9.77609 31.1009 9.77609C29.7597 9.77609 28.6724 9.78963 28.6724 9.80614Z" fill="#E0E0E0"/>
<path d="M28.6724 7.96139C28.6724 7.9779 29.9244 7.99144 31.4682 7.99144C33.0127 7.99144 34.2644 7.9779 34.2644 7.96139C34.2644 7.94487 33.0127 7.93134 31.4682 7.93134C29.9244 7.93161 28.6724 7.94487 28.6724 7.96139Z" fill="#E0E0E0"/>
<path d="M28.7505 7.36039C28.7505 7.3769 29.8649 7.39044 31.2393 7.39044C32.614 7.39044 33.7284 7.3769 33.7284 7.36039C33.7284 7.34387 32.6143 7.33034 31.2393 7.33034C29.8649 7.33034 28.7505 7.34387 28.7505 7.36039Z" fill="#E0E0E0"/>
<path d="M34.5115 12.1238H44.4645C44.6259 12.1238 44.7563 12.0046 44.7563 11.8579C44.7563 11.7112 44.6256 11.592 44.4645 11.592H34.5115C34.3504 11.592 34.2196 11.7112 34.2196 11.8579C34.2196 12.0046 34.3504 12.1238 34.5115 12.1238Z" fill="white"/>
<path d="M36.6215 8.7889H46.5744C46.7356 8.7889 46.8663 8.66978 46.8663 8.52304C46.8663 8.3763 46.7356 8.25717 46.5744 8.25717H36.6215C36.4604 8.25717 36.3296 8.3763 36.3296 8.52304C36.3296 8.66978 36.4601 8.7889 36.6215 8.7889Z" fill="white"/>
<path d="M111.033 37.2217C114.285 33.6971 113.785 28.4384 109.915 25.4759C106.045 22.5135 100.272 22.9693 97.0196 26.4939C93.7672 30.0185 94.2676 35.2772 98.1372 38.2397C102.007 41.2021 107.78 40.7463 111.033 37.2217Z" fill="white"/>
<path d="M113.181 31.8525C113.181 31.8525 113.173 31.8068 113.165 31.7177C113.158 31.6227 113.148 31.4914 113.136 31.3222C113.13 31.2347 113.123 31.1375 113.116 31.0309C113.103 30.9242 113.078 30.8086 113.057 30.683C113.013 30.4317 112.971 30.1404 112.865 29.8236C112.703 29.1804 112.372 28.4207 111.85 27.6155C111.324 26.8136 110.565 25.9762 109.532 25.2655C108.503 24.5616 107.205 23.9627 105.705 23.7209C105.33 23.6727 104.95 23.6021 104.556 23.6004C104.36 23.5945 104.163 23.5769 103.964 23.5799C103.765 23.5893 103.565 23.5988 103.362 23.6083C103.262 23.6148 103.16 23.614 103.059 23.6262L102.756 23.6687C102.554 23.6993 102.348 23.7209 102.145 23.7594C101.744 23.859 101.329 23.9332 100.934 24.0834C100.527 24.2023 100.144 24.3858 99.7498 24.5578C99.5581 24.6525 99.3744 24.763 99.1845 24.8656C98.991 24.9639 98.8141 25.086 98.6367 25.2094C98.2675 25.4401 97.945 25.729 97.607 26.0068C97.3018 26.3146 96.9808 26.6159 96.7177 26.9652C96.1773 27.6485 95.7059 28.4077 95.4203 29.2426C95.1245 30.0724 94.9652 30.9537 94.9518 31.8507C94.9649 32.7479 95.1236 33.6297 95.4194 34.4598C95.7047 35.295 96.1764 36.0544 96.7168 36.738C96.9802 37.0875 97.3009 37.3889 97.6064 37.6967C97.9444 37.9748 98.2672 38.2636 98.6361 38.4943C98.8135 38.6178 98.9907 38.7401 99.1839 38.8384C99.3738 38.941 99.5575 39.0515 99.7492 39.1462C100.143 39.3184 100.526 39.5017 100.933 39.6206C101.328 39.7711 101.743 39.845 102.144 39.9447C102.348 39.9831 102.553 40.0048 102.755 40.0353L103.058 40.0779C103.159 40.09 103.261 40.0895 103.362 40.0957C103.564 40.1052 103.764 40.1149 103.963 40.1242C104.162 40.1269 104.36 40.1095 104.556 40.1036C104.949 40.1017 105.329 40.0313 105.705 39.9831C107.204 39.7411 108.503 39.1425 109.532 38.4383C110.564 37.7276 111.323 36.8899 111.849 36.0883C112.37 35.2831 112.702 34.5234 112.864 33.8801C112.97 33.5633 113.012 33.272 113.056 33.0208C113.076 32.8952 113.102 32.7796 113.114 32.6729C113.122 32.5662 113.128 32.469 113.134 32.3818C113.147 32.2126 113.157 32.0813 113.164 31.9863C113.173 31.8983 113.181 31.8525 113.181 31.8525C113.181 31.8525 113.183 31.8983 113.181 31.9876C113.177 32.0829 113.173 32.2148 113.167 32.3845C113.163 32.4725 113.159 32.57 113.154 32.6772C113.144 32.7844 113.121 32.9008 113.103 33.0276C113.063 33.2807 113.026 33.5744 112.924 33.8942C112.769 34.5437 112.444 35.3126 111.924 36.1291C111.4 36.9424 110.64 37.7936 109.599 38.5181C108.562 39.2359 107.249 39.848 105.729 40.0987C105.349 40.1491 104.963 40.2216 104.564 40.2249C104.366 40.2316 104.165 40.2498 103.963 40.2473C103.762 40.2384 103.558 40.2292 103.353 40.2203C103.251 40.214 103.148 40.2146 103.045 40.2027L102.737 40.1604C102.532 40.1298 102.323 40.1082 102.117 40.0697C101.709 39.9698 101.287 39.8951 100.886 39.7435C100.472 39.6233 100.082 39.4381 99.6818 39.2637C99.4868 39.1679 99.2995 39.0561 99.1066 38.9521C98.9101 38.8525 98.73 38.7285 98.5493 38.6034C98.1739 38.3692 97.8451 38.0766 97.5015 37.7942C97.1903 37.482 96.8642 37.1755 96.5958 36.8206C96.0456 36.1262 95.5656 35.354 95.2746 34.5047C94.9732 33.6605 94.8112 32.7636 94.7981 31.8515C94.8112 30.9396 94.9735 30.0429 95.2752 29.199C95.5662 28.35 96.0462 27.5779 96.5964 26.884C96.8645 26.529 97.1909 26.2231 97.5018 25.9106C97.8454 25.6283 98.1742 25.3356 98.5496 25.1014C98.7303 24.9763 98.9104 24.8523 99.1069 24.7527C99.2998 24.6487 99.4871 24.5369 99.682 24.4411C100.082 24.2667 100.472 24.0815 100.886 23.9613C101.287 23.8097 101.709 23.7347 102.117 23.6351C102.323 23.5966 102.532 23.575 102.737 23.5444L103.045 23.5022C103.148 23.49 103.251 23.4908 103.353 23.4846C103.558 23.4754 103.761 23.4664 103.963 23.4575C104.165 23.455 104.365 23.4732 104.564 23.48C104.963 23.4832 105.348 23.5555 105.729 23.6058C107.249 23.8563 108.562 24.4684 109.599 25.1859C110.64 25.9101 111.4 26.7616 111.924 27.5749C112.444 28.3917 112.77 29.1606 112.924 29.8101C113.026 30.1301 113.063 30.4239 113.103 30.677C113.121 30.8037 113.144 30.9201 113.155 31.0273C113.159 31.1345 113.163 31.2323 113.167 31.3203C113.173 31.49 113.178 31.6221 113.181 31.7174C113.183 31.8068 113.181 31.8525 113.181 31.8525Z" fill="black"/>
<path d="M108.263 31.0232C108.214 30.5367 107.968 30.077 107.62 29.705C107.279 29.3406 106.83 29.0495 106.319 28.9366C105.777 28.817 105.182 28.9098 104.715 29.1876C104.437 29.3528 104.206 29.5821 104.044 29.8458C103.898 29.6056 103.696 29.3936 103.452 29.2328C102.999 28.9353 102.41 28.8167 101.862 28.9131C101.346 29.0038 100.882 29.2753 100.523 29.6246C100.156 29.9811 99.8861 30.4298 99.8127 30.9136C99.7205 31.5195 99.8323 32.1874 100.165 32.7191C100.516 33.2806 101.094 33.7403 101.693 34.0866C102.7 34.669 104.027 35.3997 104.027 35.3997C104.027 35.3997 105.183 34.6498 106.219 34.1115C106.835 33.7912 107.437 33.357 107.817 32.8114C108.177 32.2949 108.323 31.6324 108.263 31.0232Z" fill="#FFBFF5"/>
<path d="M95.3896 41.424C96.1383 41.424 96.7453 40.8712 96.7453 40.1892C96.7453 39.5072 96.1383 38.9544 95.3896 38.9544C94.6409 38.9544 94.0339 39.5072 94.0339 40.1892C94.0339 40.8712 94.6409 41.424 95.3896 41.424Z" fill="white"/>
<path d="M96.7437 40.1889C96.7288 40.1895 96.73 40.079 96.672 39.8941C96.6147 39.7127 96.4759 39.4487 96.1751 39.247C95.8844 39.0448 95.4088 38.9332 94.9504 39.0903C94.496 39.2343 94.1045 39.6751 94.1096 40.1889C94.1045 40.7031 94.4957 41.1438 94.9504 41.2878C95.4088 41.4449 95.8844 41.3333 96.1751 41.1311C96.4759 40.9294 96.6147 40.6654 96.672 40.484C96.7303 40.2988 96.7288 40.1881 96.7437 40.1889C96.749 40.1889 96.7526 40.216 96.755 40.2685C96.7582 40.3208 96.7529 40.399 96.7306 40.497C96.6887 40.6906 96.5588 40.9806 96.2416 41.2099C95.9355 41.4395 95.4147 41.577 94.902 41.4097C94.3937 41.2573 93.9487 40.7656 93.955 40.1887C93.949 39.612 94.3937 39.1203 94.902 38.9679C95.4147 38.8006 95.9355 38.9378 96.2416 39.1674C96.5588 39.397 96.689 39.687 96.7309 39.8803C96.7532 39.9786 96.7585 40.0565 96.7553 40.1088C96.7529 40.1616 96.749 40.1889 96.7437 40.1889Z" fill="black"/>
<path d="M38.2016 112.874L30.6553 112.195C30.6553 112.195 22.9932 117.299 21.567 116.55L31.0575 103.479L37.7358 107.457L38.2016 112.874Z" fill="black"/>
<path d="M34.221 108.542C34.3289 108.243 34.1434 107.88 33.8203 107.77C33.4972 107.659 33.0903 107.828 32.9768 108.125C32.8632 108.422 33.071 108.864 33.406 108.94C33.7407 109.017 34.2065 108.796 34.2383 108.482" fill="#E0E0E0"/>
<path d="M31.0575 103.479L32.1941 104.215L22.6698 116.472C22.6698 116.472 21.9692 116.887 21.567 116.55L31.0575 103.479Z" fill="#D0D0D0"/>
<path d="M30.5874 112.464C30.5187 112.42 30.7187 112.082 30.7214 111.632C30.7372 111.182 30.5511 110.837 30.6215 110.795C30.6777 110.745 31.0276 111.092 31.0139 111.637C31.0053 112.181 30.6415 112.517 30.5874 112.464Z" fill="white"/>
<path d="M28.9502 113.456C28.8717 113.43 28.9531 113.082 28.8143 112.686C28.688 112.287 28.4074 112.04 28.4567 111.978C28.4891 111.911 28.9314 112.114 29.094 112.609C29.2614 113.102 29.0179 113.495 28.9502 113.456Z" fill="white"/>
<path d="M26.5818 113.147C26.6092 113.08 27.0238 113.202 27.2883 113.597C27.5564 113.991 27.4893 114.383 27.4111 114.375C27.3273 114.376 27.2622 114.059 27.0393 113.737C26.8249 113.411 26.5429 113.215 26.5818 113.147Z" fill="white"/>
<path d="M32.7001 112.473C32.6555 112.408 32.9649 112.173 33.1997 111.796C33.4432 111.424 33.5142 111.063 33.5983 111.066C33.6759 111.059 33.7362 111.49 33.4524 111.93C33.173 112.372 32.7325 112.537 32.7001 112.473Z" fill="white"/>
<path d="M28.5973 86.437C28.2043 86.35 24.1578 93.0357 24.1334 97.4571C24.1087 101.94 27.027 105.784 31.188 107.182C34.7382 108.375 36.3656 108.672 36.3656 108.672L36.2461 112.955C36.2461 112.955 51.4893 114.256 59.8684 114.132C68.2475 114.008 71.0409 112.209 72.4032 108.982C73.7657 105.755 72.8119 105.135 72.8119 105.135C72.8119 105.135 73.7657 103.77 72.0625 101.97C70.3594 100.17 59.8 95.0824 49.9903 93.0966L49.6497 90.0562L28.5973 86.437Z" fill="#6700B8"/>
<path d="M63.6172 111.102C63.616 111.104 63.5899 111.096 63.5402 111.079C63.4826 111.058 63.4106 111.031 63.3212 110.999C63.1283 110.929 62.8521 110.81 62.48 110.693C61.7458 110.437 60.6594 110.116 59.2787 109.871C57.9002 109.621 56.2327 109.446 54.3737 109.386C52.5145 109.319 50.4686 109.369 48.319 109.418C46.1688 109.461 44.1164 109.463 42.2536 109.368C40.3908 109.279 38.718 109.105 37.3293 108.874C35.94 108.644 34.8375 108.364 34.0876 108.141C33.7122 108.031 33.4289 107.923 33.2339 107.859C33.1445 107.827 33.0719 107.801 33.0143 107.78C32.9652 107.762 32.9403 107.751 32.9415 107.749C32.9423 107.747 32.9691 107.753 33.0199 107.767C33.0791 107.784 33.1531 107.806 33.2449 107.832C33.4432 107.888 33.7288 107.988 34.106 108.089C34.8595 108.295 35.9617 108.56 37.3483 108.776C38.7343 108.994 40.4024 109.157 42.2607 109.239C44.1191 109.326 46.167 109.32 48.3157 109.277C50.4633 109.228 52.5148 109.182 54.3794 109.256C56.2439 109.323 57.918 109.51 59.3004 109.774C60.6847 110.032 61.7717 110.37 62.5014 110.642C62.8714 110.767 63.1446 110.896 63.3336 110.973C63.4204 111.011 63.4903 111.042 63.5465 111.066C63.5943 111.088 63.6184 111.1 63.6172 111.102Z" fill="#D0D0D0"/>
<path d="M45.0736 93.927C45.075 93.9367 44.8919 93.9719 44.5605 94.0274C44.2285 94.0802 43.7506 94.1682 43.1635 94.289C41.9894 94.5294 40.3852 94.9425 38.6859 95.5771C36.9875 96.2153 35.5281 96.9495 34.5083 97.531C33.9976 97.8213 33.5901 98.0652 33.3134 98.2404C33.0349 98.4134 32.8779 98.5054 32.8714 98.4976C32.8651 98.4897 33.0099 98.3828 33.2783 98.1957C33.5446 98.0065 33.9441 97.7493 34.4494 97.4471C35.4582 96.8417 36.9189 96.0885 38.6271 95.4469C40.3362 94.8085 41.9555 94.4078 43.1403 94.1918C43.7327 94.0826 44.2154 94.0098 44.551 93.9733C44.8863 93.9343 45.0721 93.9175 45.0736 93.927Z" fill="#D0D0D0"/>
<path d="M73.1326 106.032C73.1258 106.034 73.0993 105.932 73.0369 105.743C72.9748 105.554 72.866 105.278 72.6805 104.944C72.3119 104.278 71.5783 103.385 70.376 102.606C69.1862 101.81 67.5695 101.158 65.8015 100.401C64.0294 99.6506 62.0742 98.8381 59.992 98.0503C55.8316 96.4608 51.9316 95.3285 49.0505 94.731C48.3311 94.5791 47.6766 94.4551 47.1009 94.3522C46.5227 94.2605 46.0273 94.1681 45.6183 94.1135C45.2185 94.0574 44.9037 94.0136 44.6775 93.9819C44.5773 93.9664 44.4971 93.954 44.4332 93.944C44.3782 93.9348 44.3502 93.9288 44.3505 93.9264C44.3505 93.9264 46.183 94.0452 49.0745 94.6341C51.9681 95.208 55.8848 96.3286 60.0512 97.9206C62.1366 98.7095 64.0918 99.5266 65.8619 100.284C67.6248 101.046 69.245 101.711 70.4405 102.526C71.6482 103.324 72.3788 104.239 72.7346 104.92C72.9141 105.262 73.0143 105.542 73.0672 105.735C73.0972 105.831 73.1088 105.907 73.121 105.956C73.1311 106.006 73.1353 106.032 73.1326 106.032Z" fill="#D0D0D0"/>
<path d="M43.0519 93.9249C43.0528 93.9347 42.9285 93.9531 42.7044 93.9782C42.48 94.0018 42.1557 94.04 41.7562 94.0925C40.9575 94.1965 39.8598 94.3789 38.673 94.6746C37.4861 94.9721 36.4398 95.3257 35.695 95.6076C35.3222 95.7481 35.022 95.8661 34.8157 95.95C34.6089 96.0329 34.4917 96.0746 34.487 96.0659C34.4822 96.0573 34.5898 95.999 34.7896 95.9008C34.9884 95.8014 35.2827 95.669 35.6516 95.516C36.389 95.2093 37.4371 94.8381 38.6323 94.5384C39.8274 94.2406 40.9367 94.0725 41.7425 93.9934C42.1456 93.9533 42.4729 93.9303 42.6994 93.9236C42.9258 93.9152 43.0513 93.9152 43.0519 93.9249Z" fill="#D0D0D0"/>
<path d="M30.7241 34.3113C31.6832 32.578 31.0041 30.2838 29.3241 29.0893C27.6441 27.895 25.1717 27.8062 23.2934 28.7235C21.4152 29.641 20.157 31.459 19.8517 33.3802C19.5777 35.1051 20.0684 36.9697 21.3792 38.2397C22.69 39.5095 24.8593 40.0647 26.6237 39.3903C25.9653 40.2854 25.3072 41.1807 24.6488 42.0758C24.3602 42.4681 24.0897 43.0426 24.4752 43.3583C24.8459 43.662 25.4288 43.3908 25.8107 43.0989C26.8552 42.3013 27.7636 41.3567 28.4942 40.3087C28.1464 40.8848 27.7877 41.5064 27.8569 42.1611C27.9262 42.8155 28.6348 43.4506 29.3196 43.2427C29.8428 43.0838 30.0865 42.5501 30.2672 42.0755C30.7371 40.842 31.2071 39.6086 31.677 38.3751L30.7241 34.3113Z" fill="black"/>
<path d="M31.4764 42.8172C31.4675 42.8277 31.3046 42.734 31.0418 42.5264C30.7779 42.3201 30.4292 41.9827 30.0797 41.5108C29.3731 40.5784 28.7593 39.0241 28.8559 37.2762C28.9555 35.53 29.64 34.0458 30.2277 33.0611C30.5237 32.5648 30.7957 32.1809 30.996 31.924C31.1961 31.6671 31.3191 31.5333 31.3334 31.542C31.3717 31.5647 30.9396 32.1398 30.3944 33.1393C29.8555 34.1327 29.2171 35.5936 29.1211 37.2879C29.028 38.98 29.591 40.4883 30.2375 41.4185C30.8795 42.3645 31.5162 42.7801 31.4764 42.8172Z" fill="#D0D0D0"/>
<path d="M31.4314 30.8243C33.8687 27.9552 37.2064 26.2558 41.1852 26.0974C43.43 26.0081 44.3722 26.4101 46.0014 26.7678C47.6305 27.1252 49.1134 27.8794 50.1154 29.1029C51.3055 30.5562 52.3176 32.1915 52.5881 33.9876C52.8657 35.8326 53.1443 37.6902 53.0462 39.5504C52.9481 41.4107 52.4502 43.2939 51.2951 44.8306L46.1336 45.7793C43.2721 45.939 40.3711 46.0963 37.5631 45.57C34.7551 45.044 32.0033 43.7436 30.4428 41.5531C28.2747 38.5103 28.994 33.6933 31.4314 30.8243Z" fill="black"/>
<path d="M36.0462 30.6772L42.8853 28.0031L44.697 28.1496C48.7611 28.0621 51.6856 32.0753 51.8015 35.0726C51.9302 38.4024 51.9433 42.4727 51.4356 44.9421C50.4143 49.9075 45.8012 50.4327 45.8012 50.4327L45.904 52.0452L45.2567 63.9572L36.995 59.1808L35.4579 50.2968L34.2693 32.4129C34.277 31.5018 35.0492 30.7481 36.0462 30.6772Z" fill="#FFCBC3"/>
<path d="M45.8079 50.4249C45.8079 50.4249 42.1177 50.5484 38.5291 48.4583C38.5291 48.4583 40.3774 51.9646 45.8718 51.6362L45.8079 50.4249Z" fill="#F4A987"/>
<path d="M50.2798 34.3663C50.1478 34.5312 49.5724 34.4042 48.895 34.4383C48.2161 34.4526 47.6522 34.6205 47.5084 34.4654C47.4445 34.3898 47.5232 34.2277 47.7625 34.0647C47.9985 33.9022 48.4024 33.7566 48.8685 33.7395C49.3346 33.7233 49.7483 33.8394 49.9956 33.9848C50.2471 34.1305 50.3378 34.2861 50.2798 34.3663Z" fill="black"/>
<path d="M40.7847 34.5387C40.9351 34.6936 41.5168 34.5266 42.218 34.5125C42.9186 34.4786 43.5143 34.6059 43.6492 34.4413C43.7084 34.3614 43.613 34.2055 43.352 34.0598C43.0946 33.9147 42.666 33.798 42.1838 33.814C41.7023 33.8308 41.2862 33.9761 41.0439 34.1386C40.7978 34.3013 40.7182 34.4632 40.7847 34.5387Z" fill="black"/>
<path d="M35.4622 40.7607C35.4726 40.3893 35.0279 39.5018 34.6269 39.4344C33.5563 39.2546 31.6156 39.2844 31.5217 41.7714C31.3936 45.1711 35.1676 44.5871 35.1777 44.4899C35.186 44.4135 35.4265 42.0432 35.4622 40.7607Z" fill="#FFCBC3"/>
<path d="M34.1836 43.2178C34.1678 43.2064 34.117 43.2573 34.0055 43.2998C33.8964 43.341 33.711 43.3664 33.519 43.2939C33.1296 43.1498 32.8193 42.5691 32.8243 41.9559C32.8264 41.6461 32.9084 41.3537 33.038 41.1133C33.1614 40.868 33.3445 40.6999 33.5445 40.6742C33.7434 40.6387 33.8801 40.7514 33.9223 40.8483C33.9687 40.9449 33.9422 41.0123 33.9618 41.0186C33.9719 41.0275 34.0442 40.9642 34.0195 40.8231C34.0067 40.7549 33.966 40.6734 33.8804 40.6052C33.7933 40.5361 33.6631 40.4982 33.524 40.5074C33.2354 40.5166 32.9673 40.7497 32.8249 41.0134C32.6668 41.2779 32.5663 41.6061 32.5639 41.954C32.5621 42.6398 32.9227 43.2928 33.4571 43.4517C33.7172 43.5221 33.939 43.4571 34.0552 43.3802C34.1738 43.2998 34.1961 43.2243 34.1836 43.2178Z" fill="#FF9A6C"/>
<path d="M34.4658 39.451L35.4393 40.3219C39.4214 36.6564 47.146 27.5341 46.7158 28.0767C46.7158 28.0767 43.8838 27.0966 40.8576 27.6435C37.8317 28.1904 32.1066 29.7187 32.2924 32.9825C32.4782 36.2462 34.4658 39.451 34.4658 39.451Z" fill="black"/>
<path d="M29.0275 38.827C29.0212 38.8254 29.0388 38.7577 29.0786 38.6291C29.1196 38.5013 29.1939 38.3156 29.317 38.0879C29.5628 37.6347 30.0404 37.0177 30.8266 36.4532C31.6006 35.8746 32.6832 35.3911 33.9212 35.002C35.1565 34.6013 36.5532 34.2794 37.9163 33.706C39.2893 33.1526 40.507 32.4525 41.542 31.7369C42.5734 31.014 43.4206 30.2701 44.0789 29.6035C44.7373 28.9361 45.2129 28.3511 45.533 27.9422C45.6799 27.7476 45.7991 27.5897 45.893 27.4652C45.9762 27.3566 46.0229 27.3009 46.0285 27.3038C46.0342 27.3071 45.9988 27.3688 45.9257 27.4836C45.8511 27.5976 45.7461 27.769 45.5946 27.9801C45.292 28.4025 44.8304 29.0022 44.18 29.6853C43.5297 30.3672 42.6849 31.1275 41.6496 31.8642C40.6108 32.5935 39.3826 33.3056 37.9948 33.8649C36.6138 34.4454 35.207 34.764 33.9791 35.1536C32.7462 35.5324 31.6803 35.9948 30.9099 36.5504C30.1278 37.0919 29.6448 37.6831 29.3827 38.1196C29.1223 38.5595 29.0471 38.833 29.0275 38.827Z" fill="#D0D0D0"/>
<path d="M30.1324 39.3407C30.1324 39.3407 30.0863 39.0638 30.2548 38.5954C30.4147 38.1308 30.8374 37.4946 31.6073 36.9628C32.3697 36.4143 33.4706 36.0599 34.6837 35.7757C35.902 35.499 37.223 35.1511 38.5145 34.5633C39.8039 33.9801 40.956 33.2838 41.9018 32.5411C42.8529 31.8039 43.6153 31.044 44.2003 30.3685C44.793 29.6965 45.1856 29.0952 45.468 28.6874C45.5905 28.4912 45.6903 28.3314 45.7697 28.2045C45.8405 28.0948 45.8809 28.0382 45.8865 28.0409C45.8925 28.0436 45.8639 28.1054 45.8039 28.2204C45.7326 28.352 45.6428 28.5174 45.5328 28.7208C45.2692 29.1409 44.8914 29.7563 44.3073 30.4437C43.731 31.1347 42.9715 31.9109 42.0162 32.663C41.0665 33.42 39.9037 34.1293 38.5989 34.7195C37.2946 35.3138 35.9442 35.6641 34.7285 35.9308C33.517 36.2056 32.4386 36.5413 31.689 37.0611C30.9293 37.5666 30.5027 38.172 30.3253 38.6181C30.1392 39.067 30.1576 39.3443 30.1324 39.3407Z" fill="#D0D0D0"/>
<path d="M63.9601 63.9513C63.9601 63.9513 63.8186 59.1893 63.9384 58.4624C64.0582 57.7355 63.659 57.4447 63.2999 57.4661C62.9409 57.4877 62.6615 59.1168 62.6615 59.1168C62.6615 59.1168 62.9409 56.5358 62.9011 56.1725C62.8612 55.8089 62.3824 55.3727 61.8236 55.6272C61.2648 55.8817 60.7859 57.0085 60.7859 57.0085C60.7859 57.0085 60.4949 56.643 60.0398 57.2002C59.8255 57.4625 58.8524 61.6252 58.8524 61.6252C58.8524 61.6252 58.5911 61.4798 58.0231 61.0715C57.4551 60.6632 56.915 60.7891 56.915 60.7891L58.0231 63.4727L58.1417 63.9508L59.2896 68.581L56.1793 70.5019L58.4868 74.5554C58.4868 74.5554 64.019 69.7316 64.4978 68.5812C64.9761 67.4303 63.9601 63.9513 63.9601 63.9513Z" fill="#FFCBC3"/>
<path d="M58.6776 63.8855C58.6429 63.8991 58.4511 63.308 58.5867 62.5803C58.6467 62.2205 58.7329 61.9053 58.7921 61.6763C58.8527 61.4478 58.8961 61.3067 58.9178 61.31C58.9383 61.313 58.933 61.46 58.8997 61.6947C58.8679 61.9292 58.7986 62.2497 58.7401 62.6011C58.6081 63.3026 58.7258 63.8779 58.6776 63.8855Z" fill="#FF9A6C"/>
<path d="M59.937 62.1041C59.8948 62.0978 60.0568 60.9686 60.2987 59.5816C60.5407 58.1943 60.7713 57.0751 60.8136 57.081C60.8558 57.0873 60.6938 58.2163 60.4518 59.6035C60.2099 60.9908 59.9792 62.1103 59.937 62.1041Z" fill="#FF9A6C"/>
<path d="M60.8946 62.0661C60.8526 62.0588 61.1127 60.6507 61.4754 58.9212C61.8383 57.1912 62.1664 55.7952 62.2083 55.8025C62.2503 55.8098 61.9902 57.2177 61.6272 58.9477C61.2649 60.6772 60.9365 62.0734 60.8946 62.0661Z" fill="#FF9A6C"/>
<path d="M62.082 62.7338C62.0398 62.7283 62.148 61.8246 62.324 60.7159C62.5 59.6067 62.6768 58.7125 62.7193 58.7182C62.7615 58.7239 62.6533 59.627 62.4774 60.7363C62.3014 61.8447 62.1245 62.7392 62.082 62.7338Z" fill="#FF9A6C"/>
<path d="M52.8603 92.8434C52.8603 92.946 53.0038 93.5752 53.4655 94.0468C53.9271 94.5182 54.9603 94.8258 54.9603 94.8258C54.9603 94.8258 55.7601 96.0219 56.327 96.2271C56.8938 96.4321 57.3601 96.3638 57.227 95.7143C57.0935 95.0648 56.3442 94.248 56.3442 94.248C56.3442 94.248 58.1936 95.0648 58.3271 95.2015C58.4605 95.3383 60.3703 97.156 60.8033 97.2583C61.2367 97.361 61.5194 97.0193 61.5194 97.0193C61.5194 97.0193 62.1189 97.4118 62.4019 97.3266C62.7232 97.2296 62.6183 97.0022 62.6183 97.0022L61.8267 96.056L58.3933 93.1507L55.9269 92.0569L53.1828 84.64L52.6935 85.3578C52.6935 85.3578 50.927 88.8097 50.9603 88.9808C50.9936 89.1519 52.8603 92.8434 52.8603 92.8434Z" fill="#FFCBC3"/>
<path d="M51.1376 90.2421L52.51 92.1511L55.4901 90.8807L53.5884 82.082L51.1376 90.2421Z" fill="#FFBFF5"/>
<path d="M53.1808 67.0175C52.1254 63.5726 46.8782 54.6409 45.7559 52.8919L35.0738 50.2206C35.0738 50.2206 32.8165 51.4643 30.0252 55.5506C26.8647 60.177 27.685 69.2714 28.0367 71.5943C28.3886 73.9175 28.7147 79.9068 28.7147 79.9068C28.7147 79.9068 26.8587 82.3551 27.2983 84.1176C27.7379 85.8801 28.5952 86.7448 28.5952 86.7448L50.2311 90.9906C51.5392 90.5585 52.4826 89.5072 52.6821 88.2528C52.8227 87.3683 53.0254 86.2123 53.3092 84.822C54.0128 81.3774 54.2363 70.4621 53.1808 67.0175Z" fill="#FFBFF5"/>
<path d="M46.1118 71.6198L56.0309 70.2448L58.8499 75.1966C58.8499 75.1966 46.6171 83.4265 44.6036 84.2214C42.5901 85.016 40.0255 84.1913 38.0899 83.7018C35.6249 83.0786 34.941 81.5002 33.6659 80.1554C32.3907 78.8104 28.7814 67.066 28.7814 67.066C28.7814 67.066 28.513 67.4329 29.0498 63.1536C29.5866 58.8743 33.8822 54.289 36.3657 54.9616C38.8491 55.6341 43.2116 60.5859 43.4128 62.6034C43.6141 64.621 45.2673 71.6204 45.2673 71.6204H46.1118V71.6198Z" fill="#FFBFF5"/>
<path d="M40.8689 58.8041C40.8612 58.8168 40.6745 58.7199 40.3196 58.5835C39.9662 58.4456 39.4386 58.2708 38.7603 58.1684C38.0847 58.062 37.2566 58.0325 36.3637 58.1782C35.472 58.3203 34.5256 58.6582 33.6755 59.2148C32.8221 59.7685 32.1349 60.4432 31.5716 61.0932C31.0078 61.7451 30.5586 62.3746 30.1815 62.902C29.806 63.4313 29.5038 63.8612 29.2868 64.1534C29.1783 64.2996 29.0927 64.4122 29.0323 64.4872C28.9723 64.5622 28.9387 64.6003 28.9342 64.5976C28.9298 64.5949 28.9548 64.5516 29.0065 64.4715C29.068 64.3781 29.1441 64.2633 29.2362 64.1236C29.4497 63.8046 29.738 63.3734 30.0893 62.8484C30.4555 62.3131 30.8966 61.6756 31.4599 61.0128C32.0225 60.3525 32.7157 59.6645 33.5866 59.0995C34.4536 58.5312 35.4289 58.1871 36.3396 58.0498C37.2527 57.9082 38.0963 57.9491 38.7802 58.0699C39.4668 58.1868 39.9962 58.3785 40.3449 58.5331C40.5226 58.6054 40.651 58.6788 40.7393 58.7253C40.827 58.773 40.8716 58.8 40.8689 58.8041Z" fill="black"/>
<path d="M30.2674 68.905C30.2674 68.905 30.2915 68.9683 30.3305 69.0942C30.37 69.2252 30.4259 69.4112 30.4987 69.653C30.6443 70.1501 30.8566 70.874 31.1285 71.8024C31.6692 73.6738 32.448 76.3687 33.406 79.6847L33.4042 79.6798C33.9113 80.9661 34.9266 82.2115 36.3837 83.0619C37.8357 83.9166 39.656 84.3896 41.5663 84.4835C42.0446 84.5063 42.5303 84.5044 43.0171 84.4684C43.4998 84.4272 44.0013 84.3736 44.4516 84.2117C45.3076 83.7734 46.1598 83.2349 47.0218 82.7148C48.7419 81.6538 50.4983 80.5334 52.288 79.3823C54.5404 77.9325 56.7224 76.5084 58.8052 75.1395L58.7826 75.2267C57.8053 73.5067 56.8645 71.8511 55.9678 70.273L56.0403 70.3071C51.977 70.8204 48.3317 71.281 45.2743 71.6673L45.2229 71.6738L45.2134 71.6275C44.6502 68.8373 44.1951 66.5828 43.8797 65.0207C43.7266 64.2455 43.6074 63.6423 43.5257 63.2276C43.4877 63.0261 43.4582 62.8713 43.4374 62.7611C43.4184 62.656 43.4125 62.6013 43.4125 62.6013C43.4125 62.6013 43.4285 62.6541 43.4526 62.7584C43.477 62.868 43.5111 63.0218 43.5557 63.2222C43.6443 63.6358 43.7727 64.2374 43.938 65.0104C44.2646 66.5707 44.7361 68.8221 45.3198 71.6088L45.2589 71.569C48.3151 71.1743 51.9589 70.7035 56.0204 70.1788L56.07 70.1723L56.0932 70.2129C56.9926 71.7897 57.9361 73.4442 58.916 75.1628L58.9461 75.2153L58.8934 75.25C56.8116 76.6215 54.6305 78.0464 52.3774 79.4968C50.5872 80.6482 48.8299 81.7683 47.1071 82.829C46.2362 83.3524 45.4057 83.8803 44.5107 84.3357C44.0239 84.5095 43.5224 84.5588 43.029 84.6013C42.5344 84.6373 42.0431 84.6384 41.5592 84.6146C39.6271 84.5163 37.7858 84.0349 36.3118 83.1629C35.5758 82.7289 34.9448 82.1933 34.4377 81.6045C33.9288 81.0154 33.5573 80.3667 33.2945 79.7161L33.2933 79.7134L33.2927 79.711C32.3555 76.3898 31.594 73.6908 31.0652 71.8167C30.8063 70.8851 30.6042 70.1587 30.4657 69.66C30.4 69.4164 30.3492 69.2293 30.3135 69.0972C30.2805 68.971 30.2674 68.905 30.2674 68.905Z" fill="black"/>
<path d="M42.4127 78.0526C42.4023 78.0508 42.413 77.953 42.4416 77.7776C42.4689 77.6019 42.5212 77.3493 42.5967 77.0393C42.7471 76.4195 43.0111 75.5724 43.4052 74.6711C43.8011 73.7701 44.2505 72.9904 44.6105 72.4467C44.79 72.1746 44.9431 71.9589 45.0564 71.8143C45.1684 71.6692 45.2347 71.5915 45.2436 71.5969C45.2641 71.6091 45.0385 71.9426 44.7056 72.4963C44.3721 73.0497 43.942 73.8297 43.5491 74.7234C43.1579 75.6176 42.88 76.4526 42.7031 77.0631C42.5257 77.6733 42.4368 78.0567 42.4127 78.0526Z" fill="black"/>
<path d="M53.6625 81.9598C53.6732 81.9604 53.6726 82.1006 53.6625 82.3535C53.6494 82.6064 53.6256 82.9724 53.576 83.4229C53.4812 84.3242 53.285 85.5661 52.9402 86.913C52.7669 87.5866 52.5749 88.2215 52.3799 88.7946C52.1852 89.3678 51.929 89.8751 51.5949 90.2257C51.2647 90.5785 50.8908 90.7653 50.6227 90.8409C50.4883 90.8812 50.3786 90.8929 50.3055 90.9007C50.2315 90.904 50.1929 90.9031 50.1926 90.8983C50.1905 90.8847 50.3471 90.8793 50.6024 90.7892C50.8554 90.7004 51.2043 90.5081 51.5108 90.1619C51.8202 89.8177 52.0583 89.3247 52.2435 88.7559C52.4296 88.1849 52.6171 87.5508 52.7895 86.8808C53.1328 85.5401 53.345 84.3071 53.4675 83.4115C53.5219 82.9832 53.5674 82.6261 53.6025 82.3491C53.631 82.0982 53.6518 81.9593 53.6625 81.9598Z" fill="black"/>
<path d="M69.876 46.1358C69.876 46.1358 69.8379 51.1501 70.8482 53.2145C72.0479 55.6658 74.5937 55.887 74.5937 55.887C74.5937 55.887 74.4573 56.5638 78.9583 57.7648C80.2466 58.1084 81.5829 59.1827 81.7854 59.5828C82.4862 60.9693 82.4206 61.6764 82.3448 63.1206C82.2654 64.6326 81.9783 67.0687 81.9783 67.0687L94.2399 62.9191L91.0978 48.6515L81.0051 45.8396C81.0051 45.8396 79.9398 46.4541 78.4694 46.1525C76.9987 45.8512 69.1929 44.5514 69.876 46.1358Z" fill="#723825"/>
<path d="M78.4451 46.941C78.4451 46.941 79.6688 46.1553 80.1235 45.6934C80.3432 45.4703 81.2911 44.1524 81.9908 43.7598C82.6905 43.3673 85.9458 42.3642 88.7262 43.0535C91.5065 43.7428 95.4497 45.1346 97.2168 48.0873C98.9838 51.04 100.454 61.1258 101.781 62.8488C102.786 64.154 84.3161 64.7177 84.2997 64.4887C84.2837 64.2596 78.4451 46.941 78.4451 46.941Z" fill="#723825"/>
<path d="M82.5512 62.9286C82.1633 63.6355 81.9371 68.694 81.8078 74.4669C81.6785 80.2399 85.9418 89.0319 85.9418 89.0319C85.9418 89.0319 90.8293 97.2125 92.8989 100.511C94.9683 103.81 98.2019 109.819 99.7541 110.997C101.306 112.175 122.843 111.507 123.165 110.997C123.911 109.817 124.466 108.508 124.878 107.26C125.881 104.228 125.449 100.951 123.747 98.1893C122.838 96.7149 122.001 95.4015 122.001 95.5629C122.001 95.9162 123.554 97.0945 123.424 95.0915C123.295 93.0886 120.191 90.4968 120.191 90.4968C120.191 90.4968 121.365 90.1936 119.813 88.4398C118.26 86.6859 113.853 83.3101 111.525 78.5976C109.196 73.8851 106.409 70.1332 104.598 66.8345C102.788 63.5359 100.126 58.8188 99.3499 57.3936C98.5735 55.9684 82.5512 62.9286 82.5512 62.9286Z" fill="#723825"/>
<path d="M82.2164 61.5369C82.2164 61.5369 92.5561 61.5158 99.9992 56.7224C100.366 57.2038 100.694 58.548 100.455 59.106C100.455 59.106 91.0723 64.2549 82.285 63.5775C82.167 62.908 82.0095 62.0703 82.2164 61.5369Z" fill="#FFBFF5"/>
<g opacity="0.3">
<path d="M96.466 52.8769L84.9555 59.6248C84.7894 60.4725 85.1903 61.3695 85.8832 61.9916C86.576 62.6135 87.5302 62.9787 88.5033 63.1263C91.3021 63.5511 94.1954 62.1695 95.6552 60.0626C97.1149 57.956 97.2587 55.2686 96.466 52.8769Z" fill="black"/>
</g>
<path d="M94.39 47.7718C95.1884 49.2005 95.9913 50.6395 96.4796 52.1797C96.9677 53.7197 97.1267 55.3847 96.6265 56.9214C95.724 59.6925 92.774 61.6123 89.6741 62.2301C88.2203 62.5198 86.4919 62.4916 85.5012 61.4804C84.8428 60.8084 84.6692 59.8338 84.7967 58.9406C84.9242 58.0474 85.3163 57.2065 85.6727 56.3662C86.93 53.4008 87.7828 50.2935 88.2051 47.138" fill="#723825"/>
<path d="M88.2035 47.138C88.2062 47.1383 88.2041 47.1711 88.1979 47.2344C88.1898 47.3048 88.1791 47.3977 88.1655 47.5154C88.136 47.7624 88.0849 48.1257 88.007 48.5922C87.8516 49.5246 87.5867 50.8712 87.1124 52.5038C86.8749 53.3195 86.5839 54.2062 86.2298 55.1451C86.0527 55.6146 85.8583 56.0968 85.6488 56.5895C85.4395 57.082 85.2198 57.5864 85.0567 58.1189C84.8941 58.6504 84.7918 59.2143 84.8432 59.7872C84.8959 60.3547 85.0914 60.9392 85.5147 61.3892C85.9341 61.8413 86.5541 62.1264 87.2155 62.2404C87.8792 62.3595 88.5798 62.3324 89.2679 62.2287C92.0245 61.7774 94.4592 60.3558 95.7593 58.4844C96.4117 57.5523 96.755 56.5199 96.8376 55.5404C96.9286 54.5587 96.8011 53.636 96.6025 52.8187C96.4001 51.9994 96.1174 51.2809 95.8455 50.6609C95.572 50.0406 95.3033 49.5186 95.0822 49.0928C94.8601 48.6745 94.6859 48.3469 94.5632 48.1159C94.5073 48.0093 94.463 47.9251 94.4297 47.8612C94.4003 47.8035 94.3866 47.7732 94.389 47.7721C94.3914 47.771 94.4101 47.7989 94.444 47.8547C94.4809 47.9169 94.5296 47.9993 94.5911 48.1032C94.7189 48.3225 94.9053 48.6469 95.1366 49.0689C95.3663 49.4916 95.6437 50.0114 95.9257 50.6314C96.2066 51.2511 96.4982 51.9713 96.7095 52.7967C96.9167 53.6203 97.0526 54.5525 96.9661 55.5502C96.8879 56.5451 96.5422 57.6021 95.8802 58.5537C94.5593 60.4657 92.0937 61.9087 89.2938 62.3676C88.592 62.4732 87.8751 62.5016 87.1861 62.3779C86.5006 62.2596 85.8431 61.9593 85.3991 61.4782C84.9505 60.999 84.749 60.3853 84.6961 59.7978C84.6444 59.2038 84.7523 58.623 84.9196 58.084C85.0879 57.5428 85.3111 57.0357 85.5224 56.5446C85.7338 56.0535 85.9299 55.574 86.1092 55.1067C86.4673 54.1721 86.7634 53.29 87.0071 52.4778C87.4937 50.8531 87.7743 49.5119 87.9479 48.5835C88.0347 48.1192 88.0956 47.7572 88.1348 47.5116C88.1548 47.395 88.1705 47.3026 88.1824 47.2325C88.1937 47.1697 88.2008 47.1378 88.2035 47.138Z" fill="black"/>
<g opacity="0.3">
<path d="M85.1955 45.6026C84.865 45.4645 84.4955 45.4214 84.1341 45.4791C83.9998 45.5005 83.8514 45.5468 83.7783 45.6713C83.6666 45.8611 83.7976 46.0926 83.9427 46.2377C84.2167 46.512 84.5589 46.7088 84.9298 46.8057C85.0621 46.8404 85.2006 46.8623 85.3382 46.8388C85.4758 46.8152 85.6135 46.741 85.6943 46.6168C85.8168 46.4289 85.7814 46.1711 85.6658 45.993C85.5504 45.8148 85.3709 45.6987 85.1961 45.5874" fill="black"/>
</g>
<path d="M92.4625 55.8596C92.4682 55.8599 92.4705 55.9387 92.4604 56.0873C92.4468 56.2354 92.4147 56.4534 92.3288 56.7225C92.1605 57.2515 91.7486 58.0204 90.8661 58.5971L90.7504 58.6726L90.7665 58.5427C90.9103 57.3706 91.012 55.9344 90.9879 54.3863C90.9823 54.0611 90.9722 53.7408 90.9579 53.4276L91.1077 53.4455C90.7775 54.3928 90.2743 55.2147 89.7351 55.8648L89.5665 56.0681L89.6156 55.8182C89.8257 54.7464 90.002 53.8467 90.1301 53.1931C90.1937 52.891 90.2454 52.6465 90.285 52.4592C90.323 52.2902 90.3465 52.2003 90.3536 52.2014C90.3608 52.2025 90.3506 52.2943 90.3257 52.4654C90.2954 52.6541 90.2561 52.9007 90.2074 53.2051C90.0929 53.8608 89.9354 54.7632 89.7476 55.8385L89.6278 55.792C90.1509 55.1462 90.6393 54.3354 90.9615 53.4035L91.0923 53.025L91.1113 53.4214C91.1264 53.736 91.1371 54.0576 91.1428 54.3841C91.1672 55.9392 91.0545 57.3817 90.8931 58.5562L90.7935 58.5018C91.6531 57.956 92.0737 57.2163 92.2592 56.7027C92.4456 56.1783 92.4408 55.8572 92.4625 55.8596Z" fill="black"/>
<path d="M73.1592 46.443C73.0992 46.1801 72.8008 45.9898 72.5092 45.852C72.0865 45.6522 71.6285 45.5033 71.1565 45.4121C70.9653 45.3752 70.7668 45.3476 70.5771 45.3747C70.3875 45.402 69.9839 45.5101 69.9176 45.6533C69.4955 46.4436 69.5686 47.3061 70.0094 48.1243C70.0834 48.2619 70.1994 48.414 70.3828 48.4335C70.4773 48.4435 70.5685 48.4143 70.6535 48.3842C71.4585 48.1008 72.1834 47.6849 72.7731 47.1692C73.0017 46.9696 73.2223 46.7184 73.1592 46.443Z" fill="black"/>
<path d="M71.2594 45.9226C71.1132 45.7867 70.9548 45.6446 70.7506 45.6048C70.6088 45.5772 70.4114 45.6557 70.3014 45.7699C70.2313 45.8428 70.2435 45.9587 70.3294 46.016C70.5589 46.1693 70.8311 46.2695 71.1132 46.303C71.2068 46.3141 71.3186 46.3114 71.3742 46.2416C71.4526 46.1425 71.3534 46.0098 71.2594 45.9226Z" fill="white"/>
<path d="M124.717 100.174C124.727 100.171 124.79 100.322 124.896 100.599C125.01 100.873 125.134 101.283 125.266 101.794C125.513 102.815 125.681 104.288 125.388 105.877C125.243 106.669 125.011 107.407 124.757 108.061C124.492 108.713 124.211 109.284 123.947 109.749C123.685 110.216 123.455 110.585 123.283 110.833C123.114 111.082 123.016 111.217 123.007 111.212C122.998 111.207 123.078 111.063 123.231 110.806C123.386 110.55 123.601 110.175 123.849 109.705C124.099 109.236 124.367 108.665 124.623 108.018C124.867 107.367 125.092 106.637 125.235 105.854C125.525 104.285 125.377 102.833 125.159 101.814C125.042 101.305 124.935 100.894 124.839 100.615C124.751 100.335 124.707 100.177 124.717 100.174Z" fill="black"/>
<path d="M97.3552 72.3574C99.9334 69.2645 96.6109 62.8645 90.9034 64.2959C85.1961 65.7273 84.2033 70.0973 84.2033 70.0973C84.2033 70.0973 83.2109 71.1521 82.4663 72.2822C81.722 73.4122 80.5961 73.0941 80.5961 73.0941L75.6836 64.4467C75.6836 64.4467 69.6527 60.8862 67.364 59.6162C66.9499 59.3863 66.4149 59.6227 66.3531 60.061C66.1899 61.2179 66.0193 63.2249 66.5718 64.3495C67.4529 66.1426 71.632 66.497 71.632 66.497C71.632 66.497 72.8715 69.4946 73.6984 71.0768C74.5256 72.659 74.7738 76.2 74.7738 76.6522C74.7738 77.1043 74.8062 79.5501 74.8888 80.2283C74.9715 80.9065 75.601 80.4192 75.601 80.4192C75.7666 82.0767 79.5632 84.4454 80.2248 85.0483L79.828 82.8919C79.828 82.8919 81.4649 84.3812 81.9672 84.4291C82.4696 84.4771 81.6305 83.1185 81.6305 83.1185C81.6305 83.1185 84.7693 82.8353 86.3851 82.1844C88.0011 81.5328 95.8012 74.2215 97.3552 72.3574Z" fill="#723825"/>
<path d="M80.2249 85.048C80.2249 85.048 80.1919 85.0261 80.1315 84.979C80.073 84.9303 79.9785 84.865 79.8566 84.7768C79.6042 84.6008 79.238 84.3457 78.7651 84.016C78.2934 83.6778 77.7153 83.256 77.0991 82.7002C76.7918 82.4224 76.4755 82.1086 76.1902 81.7374C75.9081 81.3701 75.6281 80.9401 75.5556 80.4238L75.6382 80.4439C75.5553 80.5416 75.4655 80.6331 75.3472 80.7081C75.2872 80.7417 75.2146 80.7796 75.1234 80.765C75.0283 80.7471 74.9789 80.6683 74.9572 80.6074C74.9085 80.4763 74.9061 80.3494 74.8924 80.2224C74.8823 80.0949 74.8722 79.9657 74.8618 79.8355C74.8259 79.3143 74.7976 78.7704 74.7715 78.2054C74.7453 77.6412 74.723 77.052 74.7084 76.448C74.6737 75.8445 74.6107 75.2208 74.5245 74.5818C74.4029 71.9557 72.6748 69.4473 71.5643 66.5203L71.6258 66.5631C70.7163 66.4708 69.7993 66.2945 68.8972 66.0062C68.4466 65.8624 68.0055 65.6745 67.5911 65.4357C67.1782 65.1996 66.7912 64.884 66.5591 64.4676C66.3177 64.0582 66.2387 63.5971 66.1742 63.145C66.1168 62.6891 66.1103 62.228 66.1239 61.7659C66.1388 61.3034 66.1769 60.8394 66.2345 60.3748L66.2803 60.0264C66.296 59.8986 66.3576 59.7719 66.4518 59.6733C66.6379 59.4727 66.9651 59.3891 67.2389 59.4825C67.3593 59.5212 67.4461 59.5834 67.5376 59.6343L67.8129 59.7941L68.3613 60.1125C68.726 60.3242 69.0892 60.5351 69.4503 60.7449C70.1729 61.1646 70.8878 61.5799 71.5946 61.9903C73.0077 62.8115 74.3874 63.6131 75.7244 64.3901L75.7408 64.3996L75.75 64.4159C77.5384 67.5724 79.1914 70.4896 80.6523 73.0681L80.6151 73.0397C81.1368 73.1613 81.7096 72.9937 82.071 72.6547C82.2577 72.4871 82.3983 72.2903 82.5291 72.0815C82.6616 71.8761 82.79 71.6717 82.9137 71.4683C83.1619 71.0622 83.3949 70.6623 83.6169 70.2722C83.8437 69.8848 84.0354 69.4946 84.2661 69.1351C85.1807 67.6977 86.2778 66.6281 87.2905 65.8944C88.3139 65.1663 89.2425 64.7654 89.8916 64.5593C90.2123 64.4454 90.4748 64.4034 90.6433 64.3552C90.8145 64.3135 90.9034 64.2962 90.9034 64.2962C90.9034 64.2962 90.8172 64.3249 90.6481 64.372C90.4813 64.4259 90.2218 64.473 89.9044 64.5916C89.2621 64.8068 88.3448 65.2148 87.3351 65.9455C86.3361 66.6814 85.2535 67.7508 84.3541 69.1809C84.1285 69.5361 83.9385 69.9273 83.7129 70.3171C83.4924 70.7089 83.2608 71.1104 83.0135 71.5187C82.8905 71.7231 82.7624 71.9286 82.6301 72.1354C82.5023 72.3415 82.3519 72.5556 82.1551 72.7327C81.7675 73.0949 81.1588 73.2836 80.5777 73.1491L80.5533 73.1434L80.5402 73.1206C79.0734 70.5451 77.4136 67.6312 75.6177 64.4781L75.6433 64.5038C74.306 63.7282 72.9262 62.9281 71.5129 62.1086C70.8063 61.6987 70.0912 61.2837 69.3689 60.8646C69.0077 60.655 68.6448 60.4444 68.2801 60.2327L67.732 59.9146L67.4571 59.7548C67.3637 59.7023 67.2746 59.6417 67.1875 59.6157C66.974 59.542 66.7146 59.6084 66.5686 59.7662C66.4949 59.8444 66.4465 59.9403 66.4337 60.0451L66.3882 60.3911C66.3308 60.8521 66.2928 61.3127 66.2779 61.7705C66.2642 62.2277 66.2708 62.6837 66.3267 63.1301C66.3888 63.5722 66.4685 64.0236 66.6946 64.4048C66.9081 64.7897 67.2734 65.0922 67.6731 65.3207C68.0735 65.5516 68.5045 65.7362 68.9474 65.8781C69.8329 66.1627 70.7457 66.3392 71.6389 66.431L71.6847 66.4356L71.7007 66.4737C72.305 67.9189 72.9039 69.3103 73.54 70.6141C73.6967 70.9374 73.8792 71.2572 73.9939 71.5956C74.1193 71.9291 74.2109 72.2662 74.2935 72.5997C74.4531 73.2682 74.5619 73.9269 74.6475 74.5686C74.7319 75.2105 74.7929 75.8356 74.8253 76.4437C74.8377 77.0526 74.8571 77.6363 74.8806 78.2019C74.904 78.7666 74.9293 79.3103 74.9623 79.8304C74.9718 79.9603 74.9813 80.0886 74.9905 80.2156C75.0027 80.3418 75.0078 80.4709 75.0473 80.5771C75.066 80.6309 75.0999 80.6743 75.1427 80.6805C75.1864 80.6894 75.2441 80.6667 75.2949 80.6369C75.3972 80.5733 75.4875 80.4842 75.5639 80.3946L75.6332 80.3134L75.6465 80.4146C75.7119 80.9074 75.9812 81.3313 76.2571 81.6949C76.5356 82.0623 76.8468 82.3758 77.1497 82.6544C77.7572 83.2113 78.3294 83.6378 78.7955 83.9811C79.2621 84.3184 79.6233 84.5791 79.8721 84.7592C80.1149 84.9381 80.2249 85.048 80.2249 85.048Z" fill="black"/>
<g opacity="0.3">
<path d="M88.9115 79.5688C90.7378 77.884 91.5983 76.9928 92.4956 75.8971C93.7945 76.6042 95.1027 76.6903 96.6055 76.8517C95.473 77.2589 94.2478 77.4503 93.0309 77.4102C93.2503 77.8383 93.6108 78.2051 94.0534 78.451C93.0758 78.5509 92.0789 78.4929 91.123 78.2809C89.2111 80.694 86.4103 82.1187 83.2218 82.7676C83.2218 82.7676 86.8796 81.4434 88.9115 79.5688Z" fill="black"/>
</g>
<path d="M92.4969 75.8973C92.5011 75.9003 92.4758 75.9371 92.4232 76.0048C92.3587 76.0849 92.2811 76.1813 92.1881 76.2969C91.9833 76.5503 91.6783 76.9107 91.2842 77.3438C90.4938 78.2053 89.3724 79.3909 87.9058 80.4814C87.1749 81.0272 86.4288 81.4924 85.7148 81.8595C84.9988 82.2244 84.3166 82.4854 83.7367 82.682C83.153 82.8704 82.6705 82.9933 82.335 83.0675C82.1813 83.0989 82.0532 83.1249 81.9468 83.1466C81.8576 83.1631 81.8103 83.1696 81.8092 83.1647C81.808 83.1601 81.8528 83.1444 81.9393 83.119C82.0437 83.0903 82.1688 83.0559 82.3192 83.0145C82.6489 82.9243 83.1241 82.7873 83.6984 82.5886C84.2691 82.3817 84.94 82.1137 85.6447 81.7466C86.3474 81.377 87.0833 80.9135 87.808 80.3723C89.2618 79.2915 90.3913 78.1225 91.2007 77.2797C91.6046 76.856 91.9218 76.5056 92.1408 76.263C92.2428 76.1539 92.3278 76.0632 92.3985 75.9877C92.4592 75.9254 92.4927 75.8943 92.4969 75.8973Z" fill="black"/>
<path d="M140.121 108.086C139.59 106.707 138.818 105.339 137.524 104.475C134.248 102.29 128.113 102.924 124.151 102.372L123.812 106.554C124.544 107.482 126.749 108.179 125.203 110.387C124.529 111.35 123.292 111.857 122.37 112.631C121.281 113.544 120.465 114.724 120.032 116.013C119.811 116.669 119.71 117.443 120.166 117.989C120.59 118.497 121.642 118.492 121.9 117.946C121.292 119.766 119.649 121.275 117.649 121.829C119.707 123.134 122.291 123.734 124.783 123.484C127.275 123.234 129.654 122.138 131.351 120.457C131.066 120.869 130.782 121.282 130.497 121.695C133.423 121.079 136.528 120.374 138.598 118.392C139.979 117.07 140.753 115.279 140.947 113.463C141.142 111.648 140.783 109.808 140.121 108.086Z" fill="#723825"/>
<g opacity="0.3">
<path d="M131.151 112.114C130.545 113.308 129.67 114.388 128.597 115.269C129.207 115.62 130.006 115.595 130.682 115.364C131.357 115.133 131.936 114.721 132.503 114.315C132.358 114.885 132.093 115.43 131.727 115.911C133.568 115.527 135.226 114.465 136.247 113.019L135.263 110.389L131.151 112.114Z" fill="black"/>
</g>
<path d="M130.846 109.677C130.827 111.536 130.194 113.386 129.049 114.924C131.16 115.048 133.281 113.784 134.001 111.972C133.953 112.868 133.905 113.763 133.857 114.659C135.873 113.975 137.275 112.015 137.147 110.059C137.02 108.102 135.373 106.307 133.282 105.845" fill="#723825"/>
<path d="M133.283 105.845C133.283 105.845 133.639 105.887 134.228 106.131C134.809 106.373 135.627 106.858 136.3 107.735C136.632 108.171 136.921 108.703 137.089 109.315C137.243 109.927 137.279 110.622 137.092 111.316C136.919 112.011 136.557 112.707 136.013 113.31C135.478 113.919 134.741 114.424 133.884 114.725L133.775 114.764L133.781 114.656C133.8 114.289 133.821 113.898 133.842 113.503C133.871 112.982 133.899 112.47 133.926 111.969L134.075 111.996C133.662 113.016 132.842 113.818 131.924 114.319C131.004 114.826 129.974 115.038 129.045 114.983L128.934 114.976L128.997 114.892C130.034 113.5 130.469 112.134 130.659 111.187C130.754 110.71 130.792 110.331 130.814 110.073C130.822 109.952 130.829 109.855 130.834 109.778C130.84 109.712 130.844 109.677 130.847 109.677C130.85 109.677 130.853 109.712 130.854 109.779C130.854 109.846 130.857 109.945 130.852 110.075C130.842 110.335 130.816 110.717 130.73 111.198C130.561 112.155 130.141 113.541 129.102 114.958L129.053 114.867C129.955 114.914 130.955 114.703 131.849 114.206C132.74 113.715 133.534 112.934 133.93 111.949L134.104 111.517L134.079 111.976C134.052 112.477 134.025 112.99 133.997 113.51C133.976 113.905 133.955 114.296 133.935 114.663L133.831 114.594C134.659 114.303 135.376 113.816 135.898 113.225C136.43 112.64 136.786 111.963 136.958 111.288C137.144 110.614 137.113 109.939 136.969 109.342C136.811 108.744 136.534 108.22 136.214 107.789C135.565 106.922 134.77 106.432 134.204 106.178C133.629 105.922 133.277 105.863 133.283 105.845Z" fill="black"/>
<g opacity="0.3">
<path d="M124.822 107.641C125.513 106.936 125.944 106.023 126.034 105.081C126.123 104.139 125.87 103.173 125.322 102.369C125.56 104.104 125.381 105.885 124.801 107.551" fill="black"/>
</g>
<path d="M112.449 90.5024C110.13 88.761 107.738 87.024 104.944 86.0158C102.15 85.0075 98.8521 84.8153 96.2198 86.136C94.2 87.1493 92.7489 88.9795 92.0879 90.9917C91.4268 93.0038 91.5139 95.1811 92.0873 97.2154C92.1711 96.8217 92.2546 96.4284 92.3384 96.0347C94.1162 99.5838 95.2086 103.417 95.5501 107.305C95.5501 107.305 86.8782 107.03 84.978 107.305C83.0777 107.581 80.7973 109.11 80.2272 111.677C80.2272 111.677 87.4468 111.677 92.1298 111.677C96.7943 111.677 114.446 112.443 117.289 111.526C120.133 110.61 120.608 107.407 120.703 105.85" fill="#723825"/>
<path d="M120.703 105.849C120.703 105.849 120.702 106.124 120.641 106.646C120.573 107.166 120.461 107.944 120.072 108.888C119.87 109.355 119.593 109.864 119.165 110.343C118.741 110.82 118.15 111.259 117.406 111.519C117.035 111.654 116.626 111.714 116.209 111.768C115.79 111.82 115.357 111.856 114.909 111.886C114.015 111.945 113.066 111.978 112.067 111.998C108.072 112.075 103.284 111.977 97.9109 111.85C96.5677 111.82 95.1876 111.79 93.774 111.759C92.3612 111.73 90.9137 111.746 89.4352 111.743C86.4786 111.744 83.4007 111.745 80.2268 111.746H80.1338L80.1522 111.663C80.4578 110.273 81.3602 108.958 82.6885 108.113C83.3487 107.692 84.1058 107.374 84.9181 107.244C85.7319 107.139 86.5464 107.136 87.3661 107.119C90.1524 107.094 92.8861 107.159 95.5527 107.235L95.4736 107.31C95.1151 103.227 93.941 99.3959 92.2732 96.0612L92.4082 96.0466C92.3226 96.4486 92.2391 96.8393 92.1564 97.227L92.0967 97.5067L92.0188 97.2308C91.4318 95.1499 91.3848 93.0078 91.9858 91.1026C92.5791 89.1996 93.8263 87.5719 95.4124 86.5377C96.206 86.0222 97.079 85.6591 97.9603 85.4477C98.841 85.2322 99.7235 85.145 100.569 85.1566C102.262 85.1824 103.794 85.547 105.094 86.03C106.397 86.5147 107.482 87.1079 108.397 87.6545C109.309 88.2087 110.052 88.7253 110.649 89.1522C111.244 89.5802 111.692 89.9195 111.995 90.1485C112.143 90.2625 112.256 90.3494 112.336 90.4103C112.412 90.4696 112.449 90.5018 112.449 90.5018C112.449 90.5018 112.407 90.475 112.328 90.4185C112.247 90.3594 112.132 90.275 111.98 90.1645C111.673 89.9409 111.22 89.607 110.621 89.1844C110.021 88.7632 109.275 88.2523 108.361 87.7046C107.445 87.1644 106.361 86.5786 105.062 86.1015C103.768 85.6264 102.246 85.2701 100.568 85.2495C98.9049 85.2354 97.0472 85.5912 95.4813 86.6243C93.9217 87.6464 92.6935 89.2554 92.1118 91.1348C91.5218 93.0167 91.5712 95.1366 92.1558 97.1986L92.0185 97.2023C92.1005 96.8144 92.1835 96.4237 92.2688 96.0217L92.311 95.8224L92.4037 96.007C94.0825 99.3528 95.2649 103.199 95.6267 107.299L95.6335 107.377L95.5476 107.374C92.8838 107.299 90.1492 107.235 87.3688 107.26C86.5535 107.277 85.7334 107.281 84.9446 107.383C84.1605 107.508 83.4218 107.817 82.778 108.228C81.4818 109.052 80.6016 110.333 80.3023 111.69L80.2277 111.607C83.4016 111.608 86.4795 111.609 89.4361 111.61C90.914 111.615 92.3624 111.601 93.7775 111.631C95.1915 111.664 96.5719 111.696 97.9154 111.728C103.288 111.863 108.074 111.971 112.066 111.907C113.063 111.89 114.011 111.86 114.904 111.805C115.35 111.776 115.782 111.742 116.199 111.692C116.614 111.64 117.017 111.582 117.379 111.452C118.11 111.2 118.693 110.773 119.115 110.304C119.539 109.834 119.818 109.332 120.022 108.87C120.417 107.936 120.538 107.16 120.614 106.643C120.65 106.383 120.67 106.184 120.682 106.051C120.694 105.917 120.703 105.849 120.703 105.849Z" fill="black"/>
<path d="M104.6 103.168C104.595 103.17 104.569 103.129 104.523 103.048C104.478 102.967 104.408 102.85 104.33 102.693C104.169 102.381 103.955 101.919 103.735 101.333C103.293 100.165 102.869 98.4666 102.867 96.5514L103.011 96.5869C102.965 96.6576 102.916 96.7339 102.867 96.8105C102.302 97.6845 101.764 98.5156 101.278 99.2664L101.18 99.4177L101.147 99.2453C100.908 98.0004 100.975 96.9188 101.096 96.1765C101.156 95.8042 101.226 95.5134 101.282 95.3163C101.339 95.1195 101.376 95.0155 101.383 95.0172C101.391 95.0191 101.369 95.1265 101.326 95.3253C101.285 95.5243 101.228 95.8156 101.18 96.1865C101.085 96.9259 101.039 97.9956 101.286 99.222L101.156 99.2009C101.638 98.4482 102.172 97.6152 102.733 96.7388C102.783 96.6622 102.832 96.5861 102.877 96.5152L103.021 96.2918L103.021 96.5509C103.023 98.448 103.424 100.133 103.838 101.302C104.043 101.889 104.24 102.353 104.384 102.671C104.528 102.989 104.611 103.163 104.6 103.168Z" fill="black"/>
<path d="M87.2581 108.908C87.2617 108.931 86.9933 108.962 86.5914 109.096C86.1911 109.228 85.6581 109.485 85.206 109.91C84.7539 110.336 84.4894 110.83 84.358 111.199C84.2239 111.569 84.199 111.815 84.1731 111.812C84.1568 111.812 84.1422 111.56 84.2531 111.17C84.3607 110.783 84.6208 110.258 85.0946 109.812C85.568 109.366 86.1355 109.112 86.5567 109.001C86.9811 108.888 87.2575 108.893 87.2581 108.908Z" fill="black"/>
<path d="M99.0733 110.293C99.0667 110.299 98.9799 110.242 98.8334 110.126C98.6884 110.009 98.4856 109.832 98.2588 109.592C97.8056 109.115 97.2628 108.371 96.9272 107.449C96.8856 107.343 96.855 107.236 96.8196 107.132L96.9694 107.127C96.8589 107.614 96.7132 108.061 96.561 108.443L96.5084 108.576L96.4377 108.453C96.1595 107.969 96.0664 107.513 96.0426 107.2C96.0198 106.884 96.0545 106.704 96.0658 106.706C96.0834 106.706 96.0762 106.886 96.1217 107.192C96.1678 107.497 96.2775 107.934 96.5566 108.394L96.4335 108.403C96.5741 108.022 96.7111 107.579 96.8184 107.099L96.8779 106.832L96.9679 107.094C97.0027 107.196 97.033 107.301 97.0738 107.404C97.4019 108.306 97.9176 109.042 98.343 109.528C98.7698 110.017 99.0917 110.275 99.0733 110.293Z" fill="black"/>
<path d="M114.193 100.902C114.189 100.906 114.145 100.879 114.053 100.816L114.08 100.803C114.141 101.151 114.311 102.3 113.815 103.762L113.727 104.019L113.683 103.752C113.545 102.921 113.324 101.957 112.993 100.957C112.911 100.709 112.825 100.466 112.739 100.237L112.888 100.207C113.051 101.699 112.758 103.025 112.416 103.913C112.247 104.36 112.074 104.707 111.943 104.939C111.879 105.056 111.821 105.142 111.784 105.202C111.746 105.261 111.724 105.291 111.72 105.288C111.71 105.284 111.776 105.154 111.892 104.917C112.007 104.68 112.164 104.33 112.319 103.884C112.632 102.997 112.9 101.688 112.735 100.222L112.667 99.6176L112.884 100.192C112.971 100.422 113.058 100.666 113.141 100.916C113.475 101.924 113.691 102.897 113.817 103.734L113.685 103.724C114.194 102.294 114.064 101.159 114.047 100.806L114.045 100.769L114.075 100.793C114.159 100.863 114.196 100.898 114.193 100.902Z" fill="black"/>
<path d="M109.106 83.8865C109.101 83.8936 108.967 83.8283 108.736 83.6935C108.504 83.5589 108.177 83.3491 107.797 83.0619C107.035 82.4919 106.071 81.5763 105.304 80.3707L105.447 80.3206C105.461 80.3802 105.476 80.4443 105.491 80.5091C105.656 81.2095 105.812 81.8766 105.954 82.4857L106.017 82.754L105.829 82.5401C105.19 81.8119 104.812 81.0882 104.604 80.5667C104.499 80.3052 104.433 80.0932 104.394 79.947C104.356 79.8005 104.342 79.7204 104.349 79.7188C104.369 79.7139 104.455 80.0282 104.684 80.5383C104.913 81.0462 105.303 81.7501 105.94 82.4584L105.815 82.5131C105.669 81.9044 105.509 81.2384 105.341 80.5388C105.325 80.4744 105.31 80.41 105.296 80.3504L105.192 79.9118L105.438 80.3003C106.193 81.4899 107.13 82.404 107.867 82.9879C108.235 83.282 108.549 83.5023 108.77 83.6499C108.989 83.7969 109.112 83.8776 109.106 83.8865Z" fill="black"/>
<g opacity="0.3">
<path d="M102.824 96.4107C102.541 97.4661 101.893 98.3376 101.216 99.2321C101.007 98.1692 100.985 97.1157 101.16 96.0731C100.53 97.5316 100.462 99.1855 100.969 100.683C101.342 100.162 101.715 99.6398 102.088 99.1184C102.298 101.126 103.51 102.722 105.037 104.181C103.635 101.692 103.074 99.1782 102.824 96.4107Z" fill="black"/>
</g>
</svg>
