<svg width="166" height="82" viewBox="0 0 166 82" fill="none" xmlns="http://www.w3.org/2000/svg">
<path d="M150.787 80.8394C150.787 80.8394 131.192 57.3226 118.862 53.7147C106.531 50.1067 118.154 64.4325 118.154 64.4325C118.154 64.4325 96.4638 43.5936 88.2503 44.769C79.2623 46.0565 86.0745 57.3469 86.0745 57.3469C86.0745 57.3469 79.9629 52.5332 69.9156 52.5332C59.8682 52.5332 77.6833 80.3093 77.6833 80.3093L150.787 80.8394Z" fill="#C9E1FF"/>
<path d="M86.574 80.3084C86.574 80.3084 74.8604 47.9459 58.2724 51.6872C44.8323 54.7165 54.3902 71.0053 53.5789 70.2661C52.7676 69.527 45.5397 58.4729 33.8764 58.4729C22.2132 58.4729 37.4569 73.3924 37.4569 73.3924C37.4569 73.3924 12.605 66.3795 10.6572 73.7438C9.0413 79.857 18.0762 80.3115 18.0762 80.3115L86.574 80.3084Z" fill="#A9D0FF"/>
<path d="M104.959 63.7618C109.231 67.5343 112.83 71.8813 115.63 76.6486C116.405 77.9936 117.062 79.375 117.736 80.7594C117.826 80.9412 118.171 80.8109 118.098 80.62C118.024 80.4292 117.947 80.2414 117.87 80.0505C117.826 79.9415 117.601 79.9475 117.622 80.0808C117.652 80.2777 117.679 80.4716 117.709 80.6685L118.098 80.62C117.002 78.1153 115.639 75.7128 114.028 73.4466C109.334 66.6608 104.476 63.3376 104.959 63.7708V63.7618Z" fill="#006322"/>
<path d="M104.231 65.4665C104.565 65.2217 104.952 65.0441 105.368 64.9455C105.741 64.8747 106.128 64.8872 106.494 64.9818C106.205 64.7018 105.842 64.4932 105.438 64.376C104.801 64.1609 103.896 64.2457 103.584 64.4608C102.887 64.8243 102.776 65.5089 103.095 65.6725C103.413 65.8361 103.862 65.6422 104.231 65.4665Z" fill="#006322"/>
<path d="M106.102 76.8518C106.392 76.6824 106.719 76.5728 107.061 76.5307C107.366 76.5033 107.673 76.5449 107.956 76.6519C107.756 76.4014 107.488 76.2013 107.178 76.0703C106.949 75.9672 106.699 75.9063 106.444 75.8912C106.188 75.8761 105.932 75.9071 105.69 75.9824C105.096 76.2126 104.939 76.7519 105.18 76.8912C105.422 77.0306 105.79 76.9518 106.102 76.8518Z" fill="#006322"/>
<path d="M9.50504 50.1664C10.1139 50.53 10.6962 50.9287 11.2483 51.3599C14.3091 53.5562 17.4169 55.6828 21.641 60.145C27.2552 66.0414 31.4865 72.9062 34.0787 80.3235C34.1692 80.587 34.6352 80.4749 34.5413 80.2084C32.8605 75.4357 30.4936 70.883 27.5011 66.6672C19.4552 55.2829 9.39776 50.1027 9.50168 50.1603L9.50504 50.1664Z" fill="#006322"/>
<path d="M24.7478 51.5383C25.4183 55.5522 27.7416 59.1632 29.3407 62.9105C33.6151 72.9346 34.3158 80.5685 34.7047 81.4137C34.712 81.4308 34.7255 81.4451 34.743 81.4544C34.7605 81.4637 34.7809 81.4674 34.801 81.465C34.8211 81.4625 34.8398 81.4541 34.8539 81.4409C34.868 81.4278 34.8769 81.4107 34.879 81.3925C34.9863 80.6079 34.0442 75.1096 32.197 69.3932C29.0926 59.8872 25.8608 56.1732 24.8886 51.505C24.8685 51.4171 24.7277 51.4565 24.7411 51.5413L24.7478 51.5383Z" fill="#006322"/>
<path d="M14.5834 50.372C14.4694 50.581 13.9934 51.1445 13.9129 51.817C13.8424 52.2814 13.9023 52.7544 14.0873 53.1923C13.6304 52.876 13.2713 52.4587 13.0446 51.9806C12.6524 51.2233 12.6826 50.1054 12.9675 49.7025C13.4335 48.7937 14.4527 48.6029 14.7108 48.9755C14.969 49.3481 14.808 49.9025 14.5834 50.372Z" fill="#006322"/>
<path d="M21.5897 56.7268C21.3163 57.1955 21.1595 57.7124 21.1304 58.2415C21.1201 58.708 21.2424 59.169 21.4857 59.5805C20.988 59.315 20.5763 58.9357 20.2922 58.4808C19.8061 57.775 19.6888 56.6632 19.9201 56.2361C20.2554 55.3031 21.241 54.988 21.5461 55.3273C21.8511 55.6666 21.7506 56.2391 21.5897 56.7268Z" fill="#006322"/>
<path d="M30.5072 59.861C30.0851 59.9334 29.6858 60.0885 29.3372 60.3154C29.0349 60.5253 28.7972 60.8017 28.6466 61.1181C28.5865 60.7363 28.6373 60.3469 28.7941 59.9882C29.0221 59.4096 29.6758 58.834 30.058 58.7553C30.8123 58.5038 31.466 58.8704 31.399 59.1854C31.3319 59.5005 30.8927 59.7186 30.5072 59.861Z" fill="#006322"/>
<path d="M31.3952 61.8052C30.9723 61.8783 30.572 62.0333 30.2218 62.2596C29.9206 62.4718 29.6832 62.7488 29.5312 63.0654C29.4713 62.6833 29.5234 62.2937 29.682 61.9355C29.9067 61.3538 30.5604 60.7813 30.9426 60.7025C31.6969 60.4511 32.3506 60.8146 32.2836 61.1327C32.2165 61.4508 31.7807 61.678 31.3952 61.8052Z" fill="#006322"/>
<path d="M11.6159 54.5342C11.8896 54.1168 12.2616 53.759 12.7054 53.486C13.109 53.2555 13.57 53.1201 14.0464 53.0922C13.5739 52.8671 13.0449 52.7564 12.511 52.7711C11.6594 52.7711 10.6336 53.2134 10.3687 53.586C9.72171 54.2797 9.91951 55.1279 10.3687 55.1825C10.818 55.237 11.2672 54.8795 11.6159 54.5342Z" fill="#006322"/>
<path d="M15.9043 58.1095C16.178 57.6922 16.55 57.3343 16.9939 57.0614C17.3974 56.8309 17.8585 56.6955 18.3349 56.6676C17.862 56.4439 17.3328 56.3353 16.7994 56.3525C15.9512 56.3525 14.9254 56.7948 14.6605 57.1674C14.0102 57.8611 14.208 58.7093 14.6605 58.7639C15.1131 58.8184 15.5557 58.473 15.9043 58.1095Z" fill="#006322"/>
<path d="M23.5141 54.901C24.0488 54.8583 24.5873 54.9203 25.0931 55.0827C25.5361 55.2424 25.9271 55.5008 26.2296 55.834C26.1567 55.3561 25.9463 54.9038 25.6194 54.5223C25.1266 53.8952 24.1209 53.4105 23.6314 53.4348C22.6257 53.3681 21.9854 54.0103 22.1999 54.3648C22.4145 54.7192 22.9945 54.8525 23.5141 54.901Z" fill="#006322"/>
<path d="M24.767 57.6496C25.3026 57.6042 25.8426 57.6652 26.3494 57.8283C26.7923 57.988 27.1833 58.2464 27.4858 58.5796C27.4125 58.1017 27.2022 57.6496 26.8757 57.2679C26.3829 56.6438 25.3771 56.1561 24.8877 56.1803C23.8819 56.1137 23.2383 56.7559 23.4528 57.1134C23.6674 57.4709 24.2507 57.5981 24.767 57.6496Z" fill="#006322"/>
<path d="M21.361 63.6223C21.6368 63.2063 22.0084 62.8488 22.4505 62.5741C22.8545 62.3443 23.3153 62.209 23.7915 62.1803C23.3206 61.9542 22.7924 61.8435 22.2594 61.8592C21.4079 61.8592 20.3821 62.3015 20.1172 62.6741C19.4702 63.3678 19.6646 64.216 20.1172 64.2705C20.5698 64.3251 21.0123 63.9706 21.361 63.6223Z" fill="#006322"/>
<path d="M9.08793 51.5601C9.32271 51.3326 9.60842 51.1529 9.92605 51.033C10.2131 50.9379 10.5216 50.9078 10.8245 50.9452C10.4939 50.7002 10.0862 50.5557 9.6594 50.5324C9.23263 50.509 8.80857 50.6078 8.44761 50.8149C7.93803 51.1754 7.93803 51.7237 8.20958 51.8176C8.48113 51.9115 8.81973 51.7388 9.08793 51.5601Z" fill="#006322"/>
<path d="M10.227 49.3068C10.1664 49.6086 10.179 49.9187 10.2639 50.2157C10.3502 50.4805 10.5093 50.7213 10.7265 50.9154C10.3933 50.8454 10.086 50.6982 9.83478 50.4883C9.64304 50.335 9.48661 50.1491 9.37444 49.9412C9.26227 49.7333 9.19655 49.5074 9.18105 49.2766C9.18105 48.6919 9.68392 48.3678 9.9253 48.5011C10.1667 48.6343 10.2203 49.0069 10.227 49.3068Z" fill="#006322"/>
<path d="M1.62822 69.2934C7.57551 70.9384 12.7216 74.3312 17.6698 77.6271C21.0223 79.8477 20.7273 80.2718 21.4246 80.6353C21.4505 80.649 21.4804 80.6553 21.5104 80.6536C21.5403 80.6518 21.569 80.642 21.5928 80.6254C21.6166 80.6088 21.6343 80.5862 21.6438 80.5604C21.6532 80.5347 21.6539 80.5069 21.6459 80.4808C21.4682 79.9173 20.7843 79.4387 20.3049 79.054C19.7643 78.606 19.1969 78.1854 18.6052 77.7938C17.348 76.9486 16.0405 76.1579 14.7431 75.3703C12.1335 73.708 9.38647 72.2294 6.52619 70.9474C4.947 70.2632 3.30758 69.6988 1.62487 69.2601C1.5947 69.2601 1.58129 69.2934 1.62487 69.3025L1.62822 69.2934Z" fill="#006322"/>
<path d="M7.45546 68.5329C7.18349 68.9966 7.02675 69.5084 6.99617 70.0324C6.98911 70.4986 7.11128 70.9589 7.35153 71.3714C6.85818 71.1085 6.44826 70.7349 6.16141 70.2869C5.6753 69.5811 5.55796 68.4693 5.78928 68.0391C6.12453 67.1091 7.11351 66.7941 7.41523 67.1303C7.71695 67.4666 7.61973 68.0452 7.45546 68.5329Z" fill="#006322"/>
<path d="M12.4482 71.1956C12.1747 71.6588 12.0178 72.1709 11.9889 72.6952C11.9748 73.1608 12.09 73.6222 12.3241 74.0372C11.8309 73.7638 11.4244 73.3798 11.1441 72.9224C10.658 72.2165 10.5406 71.1048 10.7719 70.6776C11.1072 69.7446 12.0962 69.4295 12.4012 69.7688C12.7063 70.1081 12.6057 70.6928 12.4482 71.1956Z" fill="#006322"/>
<path d="M17.422 74.304C17.1461 74.7717 16.9892 75.2892 16.9627 75.8186C16.9483 76.2833 17.0636 76.7438 17.298 77.1576C16.806 76.8838 16.4006 76.4998 16.1212 76.0428C15.6351 75.3339 15.5178 74.2252 15.7491 73.795C16.0844 72.862 17.0901 72.55 17.3784 72.8862C17.6667 73.2225 17.5829 73.8162 17.422 74.304Z" fill="#006322"/>
<path d="M4.91378 72.7735C5.18752 72.3561 5.55949 71.9983 6.00334 71.7253C6.40707 71.4952 6.86801 71.3598 7.34433 71.3315C6.87209 71.1057 6.34289 70.9951 5.80889 71.0104C4.96072 71.0104 3.93486 71.4527 3.67001 71.8253C3.01963 72.519 3.21743 73.3672 3.67001 73.4218C4.1226 73.4763 4.56512 73.1219 4.91378 72.7735Z" fill="#006322"/>
<path d="M10.1043 75.5099C10.3796 75.0928 10.7512 74.7342 11.1938 74.4587C11.5984 74.2307 12.059 74.0964 12.5348 74.0679C12.0636 73.8422 11.5358 73.7306 11.0027 73.7438C10.1512 73.7438 9.12536 74.1891 8.86052 74.5586C8.21349 75.2554 8.40793 76.1036 8.86052 76.1551C9.3131 76.2066 9.75563 75.8582 10.1043 75.5099Z" fill="#006322"/>
<path d="M1.06252 70.2143C1.29661 69.986 1.58251 69.8062 1.90064 69.6871C2.18771 69.5921 2.49617 69.5619 2.7991 69.5993C2.53574 69.402 2.2205 69.2695 1.88388 69.2146C1.633 69.1673 1.37421 69.1658 1.12266 69.21C0.871111 69.2542 0.63184 69.3433 0.418844 69.4721C-0.0907321 69.8295 -0.0907318 70.3809 0.180819 70.4717C0.452369 70.5626 0.790969 70.393 1.06252 70.2143Z" fill="#006322"/>
<path d="M2.19929 67.9608C2.14047 68.2626 2.15304 68.5724 2.23616 68.8696C2.32298 69.1349 2.48338 69.3758 2.70216 69.5693C2.36837 69.5006 2.06068 69.3532 1.8104 69.1422C1.61737 68.9899 1.46006 68.8043 1.34778 68.5961C1.2355 68.388 1.17051 68.1616 1.15667 67.9304C1.15667 67.3488 1.65954 67.0216 1.89756 67.158C2.13559 67.2943 2.19594 67.6608 2.19929 67.9608Z" fill="#006322"/>
<path d="M165.358 80.1355H4.77429C4.58336 80.147 4.40441 80.2237 4.27369 80.35C4.14297 80.4763 4.07024 80.6427 4.07024 80.8156C4.07024 80.9885 4.14297 81.155 4.27369 81.2812C4.40441 81.4075 4.58336 81.4842 4.77429 81.4957H165.358C165.536 81.4714 165.699 81.3901 165.817 81.2664C165.935 81.1427 166 80.9849 166 80.8217C166 80.6585 165.935 80.5007 165.817 80.377C165.699 80.2533 165.536 80.1719 165.358 80.1476V80.1355Z" fill="white"/>
<path d="M45.7836 74.2772C45.7836 74.2772 46.0518 76.9339 45.8741 77.8033C45.8386 77.9473 45.7927 78.0889 45.7367 78.2274C45.5556 78.7152 46.0551 80.1995 46.0551 80.1995L52.7601 80.2207C53.1255 80.2207 52.8808 80.0117 52.5858 79.8209C52.0997 79.5179 51.7074 79.2998 50.1586 78.6455C50.058 78.6031 49.6892 78.3971 49.5551 78.3244C49.1947 78.1163 48.8685 77.8634 48.5863 77.5731C48.0968 77.0945 48.023 74.7497 48.023 74.7497L45.7836 74.2772Z" fill="#FFCBC3"/>
<path d="M49.5555 78.3241C48.3048 78.6645 46.9662 78.6327 45.7371 78.2332C45.5527 78.7179 45.2107 80.3538 45.4018 80.3538C47.078 80.3538 48.5062 80.6567 53.3237 80.5719C53.498 80.5719 53.4779 80.0357 53.3639 79.9175C53.0656 79.5964 49.6963 78.3968 49.5555 78.3241Z" fill="#DD4A00"/>
<path d="M37.3737 42.7192C37.3737 42.7192 37.4676 46.515 38.6711 48.9445C39.8445 51.3105 45.4565 57.151 46.9484 60.559C46.4858 62.4797 45.2185 65.1818 45.3124 67.3145C45.4163 69.738 45.2587 76.1147 45.2587 76.1147L48.276 76.2026L52.2252 59.7169L46.2712 41.9286L43.5691 37.6087L37.3737 42.7192Z" fill="#14473B"/>
<path d="M24.507 70.4963C24.507 70.4963 22.6564 72.7895 21.825 73.3712C21.3892 73.6741 20.2024 74.0982 20.0784 74.6102C19.9543 75.1221 25.4423 79.6692 25.4423 79.6692C25.734 79.9024 25.7005 79.5783 25.6133 79.236C25.4691 78.6786 25.3183 78.2635 24.5874 76.758C24.5405 76.661 24.4064 76.2642 24.3561 76.1218C24.231 75.7278 24.1667 75.32 24.165 74.9101C24.1483 74.2163 25.9083 72.2988 25.9083 72.2988L24.507 70.4963Z" fill="#FFCBC3"/>
<path d="M24.3762 76.1221C23.1125 75.5999 22.0678 74.7249 21.3958 73.6259C20.8762 73.8986 19.4681 74.4772 19.5922 74.6407C20.5644 75.9131 21.5701 77.4974 25.4724 80.4995C25.6132 80.6055 26.1865 79.9875 26.1865 79.8209C26.1932 79.3756 24.4265 76.2645 24.3762 76.1221Z" fill="#DD4A00"/>
<path d="M46.6589 15.5623C46.1393 12.5027 43.0751 10.3034 39.8702 11.7878C39.0351 12.1898 38.2904 12.7292 37.6743 13.3782C36.3065 14.9656 35.9746 16.9316 34.523 18.4584C33.2725 19.7762 29.9334 19.5277 28.3745 20.5395C27.5257 21.1233 26.8424 21.8809 26.3808 22.7498C25.9192 23.6188 25.6925 24.5744 25.7194 25.538C25.7194 27.9614 26.3262 30.5455 28.4013 32.0814C30.4765 33.6172 33.4301 33.9989 36.0349 33.3476C38.6398 32.6963 40.8457 31.1029 42.4415 29.152C44.0158 27.2077 45.2108 25.0347 45.975 22.7267C46.7815 20.4128 47.0149 17.9669 46.6589 15.5623Z" fill="#2C2524"/>
<path d="M34.9457 19.7152C34.9457 19.7152 31.0132 13.3687 30.0544 12.0207C29.0956 10.6726 26.6047 5.31069 26.5142 5.10167C26.4237 4.89264 28.2307 2.35405 27.8284 2.26619C27.4261 2.17834 26.9802 3.60214 26.5477 3.43249C26.1153 3.26285 24.8715 -0.166366 24.6167 0.00630626C24.1574 0.324387 25.2872 2.12685 25.0492 2.245C24.8112 2.36314 24.0636 0.254712 23.5842 0.318328C23.1048 0.381945 24.4994 2.24499 24.3653 2.41161C24.2312 2.57822 22.7829 0.818171 22.5214 1.19987C22.3806 1.40586 23.8624 2.73575 23.5674 2.85995C23.2724 2.98416 21.975 2.12685 21.8375 2.37526C21.7001 2.62366 23.0478 2.95991 23.4534 3.6294C23.8591 4.29888 24.543 4.58668 24.8279 5.82265C25.1129 7.05862 25.542 11.539 27.0037 13.7716C28.4654 16.0043 31.6971 20.9482 31.6971 20.9482L34.9457 19.7152Z" fill="#FFCBC3"/>
<path d="M58.46 44.7164C58.0275 44.3801 57.119 43.6379 57.186 43.5622C57.2531 43.4865 57.699 43.5349 57.8264 43.5774C57.9538 43.6198 58.1113 43.6622 58.2387 43.7076C58.3046 43.7272 58.3763 43.723 58.4388 43.6959C58.5013 43.6688 58.5497 43.6209 58.574 43.5622C58.6477 43.4198 58.1784 43.1442 57.994 43.0775C57.209 42.8639 56.4109 42.6919 55.6037 42.5625C55.3992 42.5201 53.0525 39.9361 52.1707 39.1091C50.7728 37.7156 49.4117 36.2191 49.2642 36.0797L45.439 28.7851L41.9423 29.0183C41.9423 29.0183 46.0692 37.1551 46.3441 37.5399C46.4682 37.7247 49.9849 40.7267 49.9883 40.7237C51.8221 42.1051 53.4447 43.3168 53.7464 43.5561C53.7464 43.5561 54.4437 44.4983 54.846 45.1193C55.0884 45.4681 55.3854 45.7834 55.7277 46.0554C56.4519 45.4495 57.3738 45.2829 58.232 44.8679C58.2991 44.8194 58.3829 44.7709 58.46 44.7164Z" fill="#FFCBC3"/>
<path d="M43.7631 23.1692C43.7631 23.1692 46.4652 24.3355 47.7861 31.5999L43.2033 32.754L41.3158 28.0737L43.7631 23.1692Z" fill="#F37458"/>
<path d="M37.5844 40.2781C37.5844 40.2781 35.2578 43.4377 34.7013 46.0551C34.1615 48.6027 35.06 56.2912 34.1213 59.8568C32.5255 61.1957 29.7631 62.7528 28.4992 64.5462C27.0509 66.5789 22.8738 71.7348 22.8738 71.7348L25.2875 73.3646L38.969 61.8985L44.5106 46.6003L46.4215 42.1139L37.5844 40.2781Z" fill="#14473B"/>
<path d="M39.4681 22.2962C39.4681 22.2962 36.3872 22.1205 35.1669 23.3322C33.9466 24.544 37.8723 34.0167 38.0936 35.5405C38.3149 37.0643 36.2866 40.0936 36.2866 40.0936C36.2866 40.0936 44.7717 43.6804 46.8436 42.4444C46.8436 42.4444 46.5083 30.2179 46.2904 29.1153C46.0725 28.0126 44.2186 23.5928 43.776 23.1565C43.3335 22.7203 39.4681 22.2962 39.4681 22.2962Z" fill="#DD4A00"/>
<path d="M40.4971 18.5819L40.4502 18.8031C40.3128 19.4726 39.7797 21.69 39.4445 22.2989C39.012 23.0351 40.9229 25.3828 42.7634 25.098C43.3099 25.0132 42.3008 22.9381 42.3477 22.72C42.4416 22.2989 42.5656 21.7264 42.683 21.1357C42.7567 20.8055 42.8305 20.4692 42.8975 20.1542L43.2562 18.5183L40.4971 18.5819Z" fill="#F8A592"/>
<path d="M40.4512 18.8031L40.4981 18.5819L43.2539 18.5183L42.8952 20.1542C42.8281 20.4571 42.7544 20.8024 42.6806 21.1326C42.187 21.0497 41.7305 20.8392 41.3664 20.5268C40.9084 20.168 40.5617 19.7076 40.3607 19.1908C40.4009 19.0424 40.4311 18.9061 40.4512 18.8031Z" fill="#DB7E69"/>
<path d="M42.352 12.9297C41.9529 12.9024 41.5524 12.9622 41.1843 13.104C40.8162 13.2458 40.4911 13.4655 40.2366 13.7446C39.4219 14.6958 38.5603 17.6342 40.5718 19.2307C42.5833 20.8272 44.5948 19.0217 44.8898 17.1102C45.1848 15.1986 45.2988 12.863 42.352 12.9297Z" fill="#F8A592"/>
<path d="M45.4852 17.0734C45.2438 17.4975 44.8382 17.7338 44.58 17.5974C44.3219 17.4611 44.3085 17.0128 44.5499 16.5887C44.7912 16.1645 45.1969 15.9313 45.455 16.0646C45.7132 16.1979 45.7266 16.6674 45.4852 17.0734Z" fill="#F8A592"/>
<path d="M42.4948 12.618C42.4948 12.618 40.7615 15.411 39.5178 15.5413C38.274 15.6716 38.1131 17.1529 38.1131 17.1529C38.1131 17.1529 38.5556 13.7328 39.7893 13.0724C40.6184 12.6742 41.5627 12.5156 42.4948 12.618Z" fill="#2C2524"/>
<path d="M39.8443 16.2409C39.9449 16.7377 39.7437 17.1921 39.3917 17.2587C39.0397 17.3254 38.6743 16.974 38.5704 16.4771C38.4664 15.9803 38.6743 15.5259 39.0263 15.4623C39.3783 15.3987 39.7437 15.7592 39.8443 16.2409Z" fill="#F8A592"/>
<path d="M33.8424 17.6582C33.8424 17.6582 38.2006 21.8781 38.841 23.5806C39.4813 25.2831 38.2107 27.7126 36.4473 27.8217C34.6839 27.9307 30.7481 20.3331 30.7481 20.3331L33.8424 17.6582Z" fill="#FFA16F"/>
<path d="M82.215 53.5566L81.9032 54.5715L83.7907 55.1107L83.8544 54.6866L82.215 53.5566ZM82.3022 54.4927L82.4765 54.0353L83.5828 54.7714L82.3022 54.4927Z" fill="#34548A"/>
<path d="M88.525 50.0668L87.9149 47.5676L84.2472 49.6245L86.3459 51.1392C86.3459 51.1392 87.003 49.6094 88.525 50.0668Z" fill="#F37458"/>
<path d="M64.6355 59.3339C64.6355 59.3339 60.398 61.0454 55.7112 63.1629C51.0245 65.2805 49.898 65.0775 49.2208 64.4656C48.5436 63.8536 48.5 62.4904 48.5 62.4904C48.1675 62.9786 47.9479 63.5226 47.8545 64.0896C47.7612 64.6567 47.796 65.2349 47.9569 65.7894C48.5235 67.6434 50.1461 67.6646 50.1461 67.6646L51.3161 67.0314L50.5484 68.2734C51.0844 68.4913 51.683 68.5501 52.2583 68.4412C52.8336 68.3324 53.3558 68.0615 53.75 67.6676C55.2922 66.271 55.6207 65.3865 55.6207 65.3865C55.6207 65.3865 55.0105 67.5434 54.4037 68.0947C54.4037 68.0947 56.1169 68.7854 57.1293 67.5434C57.7901 66.6813 58.2854 65.7248 58.5943 64.714L58.2122 67.6252C58.2122 67.6252 59.7878 67.0769 60.6461 64.817L60.1935 66.9557C61.1868 65.6669 61.9441 64.2421 62.4363 62.7358C63.0833 60.5153 64.4478 60.273 64.4478 60.273L64.6355 59.3339Z" fill="#884E31"/>
<path d="M72.7123 66.7976C72.7123 66.7976 72.8665 71.478 69.38 73.1926C68.5318 73.6106 67.1673 75.1283 67.4355 75.9644C67.7037 76.8005 69.7822 78.3879 69.7822 78.3879C70.2579 78.4506 70.7055 78.6297 71.0766 78.9057C71.4477 79.1818 71.7281 79.5443 71.8876 79.954C71.9915 80.1903 71.5222 80.1298 71.5222 80.1298H67.8345L64.6496 75.2616L64.8642 72.211L66.9393 67.458L70.9053 66.8885L72.7123 66.7976Z" fill="#884E31"/>
<path d="M90.1438 63.859C90.1438 63.859 94.8774 70.2873 95.9134 71.6838C96.3619 72.3453 96.6105 73.1015 96.6342 73.877C96.6342 73.877 96.4297 75.834 96.0039 76.2218C95.9137 76.2905 95.8049 76.3365 95.6888 76.3551C95.4401 76.4083 95.1804 76.4018 94.9354 76.3363C94.6904 76.2708 94.4686 76.1485 94.2921 75.9817C94.1155 75.8148 93.9903 75.6091 93.9289 75.3849C93.8675 75.1608 93.8721 74.9261 93.9421 74.7041C94.0643 74.369 94.1507 74.024 94.2003 73.6741C94.2003 73.2257 93.9723 73.1864 93.9723 73.1864L88.7458 70.4599L87.0327 65.9341L90.1438 63.859Z" fill="#884E31"/>
<path d="M86.7115 65.279L85.8532 71.3953L86.2589 78.3628C86.2589 78.3628 87.9351 78.7293 88.4212 79.5018C88.9073 80.2743 88.8269 80.4106 88.8269 80.4106H84.8609C84.8609 80.4106 81.6157 73.4431 81.6157 72.6616C81.6157 71.88 80.7608 67.5722 80.7608 67.0027C80.7608 66.4332 81.3006 63.8764 83.1947 63.6704C85.0889 63.4644 86.7115 65.279 86.7115 65.279Z" fill="#A05646"/>
<path d="M92.2062 49.0825L91.1837 47.8344C91.1837 47.8344 87.8312 46.965 86.3763 48.2706C85.8016 48.7647 85.3916 49.3944 85.1928 50.0883C85.0878 50.7553 85.0485 51.4294 85.0755 52.1028C85.0871 52.8535 84.8973 53.5957 84.5223 54.2657C83.8518 55.1745 81.1162 57.0982 80.0233 57.3405L80.791 57.2496C79.9441 57.6558 79.0427 57.9613 78.109 58.1584C73.372 58.8309 66.2279 58.9521 64.6355 59.3702C62.7447 59.8579 61.5948 64.9078 62.1144 67.4525C62.634 69.9971 58.7619 68.9671 57.8467 70.6242C56.9683 72.1752 60.3443 79.3214 60.3443 79.3214C60.3443 79.3214 61.2193 80.2817 61.3768 80.4241H65.192C65.192 80.4241 65.0713 78.1975 63.1637 77.628C61.2562 77.0585 61.5277 73.3869 61.5277 73.3869C61.5277 73.3869 66.9822 74.0655 69.6843 70.8635C71.7662 68.3946 71.5684 67.7312 71.3605 67.5585C72.3663 68.0583 79.3293 71.4663 82.8394 70.8635C86.6243 70.2122 87.8245 68.1371 87.8245 68.1371L87.5697 69.6275C87.5697 69.6275 90.1176 68.7945 89.8695 66.9193C89.9944 67.0116 90.0945 67.1282 90.1625 67.2604C90.2304 67.3926 90.2643 67.537 90.2618 67.6827C90.2618 67.6827 91.3681 66.3982 91.3681 62.3268C91.3681 60.0548 91.2776 54.299 91.2776 54.299C91.2776 54.299 95.8034 53.5478 96.3901 53.0176C96.7924 52.6571 97.3154 50.0186 97.3154 50.0186L92.2062 49.0825Z" fill="#A05646"/>
<path d="M84.244 49.6322C84.244 49.6322 85.1592 51.4225 86.1046 51.6921C87.05 51.9618 87.9149 47.5662 87.9149 47.5662C87.4876 47.4414 87.0301 47.4281 86.5948 47.5278C86.1595 47.6275 85.7642 47.8361 85.4542 48.1296C85.0092 48.602 84.6046 49.1043 84.244 49.6322Z" fill="#884E31"/>
<path d="M87.1475 66.3498C86.0144 67.5342 87.0536 66.4467 86.2792 67.2586C86.1183 65.8227 86.6145 64.0293 87.0335 62.6085C86.3295 63.2901 85.3908 64.6503 84.9483 65.2289C85.7462 63.9838 85.545 61.5937 85.3875 60.1699C85.3875 60.1699 84.4655 61.1544 84.0901 61.5604C84.0163 60.9212 83.8923 59.5065 84.1336 58.8854C84.375 58.2644 85.1025 57.5041 85.6389 57.0406C85.0388 57.492 84.2979 58.1887 83.9995 58.84C83.5973 59.7488 83.8889 61.9572 83.8956 62.1147C85.2366 60.7424 84.3214 61.6785 85.1629 60.8121C85.25 62.0026 85.3808 64.4776 84.7673 65.4622C85.488 65.0502 86.1686 64.1595 86.5843 63.4779C85.5015 66.0044 86.2021 67.4858 86.2055 67.5251L87.1207 66.4528C87.1903 66.664 87.2419 66.8797 87.2749 67.098C87.2749 67.0283 87.1877 66.5194 87.1475 66.3498Z" fill="#2C2524"/>
<path d="M84.1937 54.0357L83.5802 55.1959C83.5802 55.1959 84.1669 59.1341 91.3211 58.6948L91.5557 57.0287C91.5557 57.0287 85.0318 56.8227 84.1937 54.0357Z" fill="#194655"/>
<path d="M61.4306 44.9913L61.2015 45.4229L82.2467 54.5423L82.4758 54.1107L61.4306 44.9913Z" fill="#194655"/>
<path d="M61.5376 45.2707L60.9643 44.7375L57.6856 43.6591L53.9811 45.2707L58.2957 49.2179L58.6075 48.2576L55.8987 45.8281L58.051 44.5527L58.3695 44.7224L59.4892 45.3101L61.5376 45.2707Z" fill="#FFA16F"/>
<path d="M63.6871 47.4697C63.6877 48.014 63.5097 48.5462 63.1755 48.999C62.8412 49.4518 62.3658 49.8049 61.8095 50.0134C61.2531 50.222 60.6408 50.2767 60.05 50.1707C59.4592 50.0647 58.9165 49.8026 58.4906 49.4178C58.0646 49.0329 57.7747 48.5425 57.6573 48.0086C57.54 47.4748 57.6005 46.9215 57.8313 46.4187C58.0621 45.916 58.4528 45.4864 58.9539 45.1844C59.455 44.8824 60.044 44.7215 60.6464 44.7221C61.4525 44.7229 62.2254 45.0127 62.7955 45.5278C63.3655 46.0429 63.6862 46.7413 63.6871 47.4697Z" fill="#DD4A00"/>
<path d="M62.1914 47.4354C62.1914 47.7349 62.0931 48.0278 61.9089 48.2769C61.7247 48.5259 61.4629 48.7201 61.1566 48.8347C60.8503 48.9494 60.5133 48.9794 60.1881 48.9209C59.863 48.8625 59.5643 48.7182 59.3299 48.5064C59.0954 48.2946 58.9358 48.0247 58.8711 47.7309C58.8064 47.437 58.8396 47.1325 58.9665 46.8557C59.0934 46.5789 59.3082 46.3424 59.5839 46.176C59.8595 46.0095 60.1836 45.9207 60.5151 45.9207C60.9597 45.9207 61.3861 46.0803 61.7004 46.3643C62.0148 46.6484 62.1914 47.0336 62.1914 47.4354Z" fill="#FFA16F"/>
<path d="M57.6024 42.8803C57.6024 42.8803 58.5445 44.4646 58.4473 44.7615C58.3936 44.9251 56.9118 45.8672 56.0469 45.8672C55.182 45.8672 56.2112 44.189 56.3821 44.3525C56.5531 44.5161 56.4458 44.8948 56.4458 44.8948C56.4458 44.8948 56.6034 43.7376 56.8113 43.5498C57.0191 43.3619 57.0962 43.7588 57.0962 43.7588C57.0962 43.7588 56.7878 42.7742 57.0962 42.6834C57.1928 42.6607 57.295 42.6678 57.3867 42.7034C57.4783 42.7391 57.5543 42.8013 57.6024 42.8803Z" fill="#FFCBC3"/>
</svg>
